<svg id="Capa_1" data-name="Capa 1" xmlns="http://www.w3.org/2000/svg" xmlns:xlink="http://www.w3.org/1999/xlink" viewBox="0 0 600 600"><defs><style>.cls-1{fill:url(#Degradado_sin_nombre);}.cls-2{fill:#1464a5;}.cls-3{fill:url(#Degradado_sin_nombre_2);}.cls-4{fill:#043263;opacity:0.6;isolation:isolate;}.cls-5{fill:#fff;}.cls-6{fill:#28ad68;}.cls-7{fill:none;}</style><linearGradient id="Degradado_sin_nombre" x1="250.95" y1="646.36" x2="435.25" y2="992.99" gradientTransform="translate(0 -478)" gradientUnits="userSpaceOnUse"><stop offset="0" stop-color="#192647"/><stop offset="0" stop-color="#192647" stop-opacity="0.5"/><stop offset="1" stop-color="#192647" stop-opacity="0"/></linearGradient><linearGradient id="Degradado_sin_nombre_2" x1="481.75" y1="-97.9" x2="211.59" y2="-97.9" gradientTransform="matrix(1, 0, 0, -1, 0, 202)" gradientUnits="userSpaceOnUse"><stop offset="0" stop-color="#043263"/><stop offset="1" stop-color="#043263" stop-opacity="0"/></linearGradient></defs><title>tarjeta_check</title><path class="cls-1" d="M566.4,248.5A56.53,56.53,0,0,0,457.6,227H146.4a23,23,0,0,0-23,23h0V450a23,23,0,0,0,23,23H508.5a22.9,22.9,0,0,0,22.9-22.9V300.8A56.62,56.62,0,0,0,566.4,248.5Z"/><path class="cls-2" d="M101.81,177H455a26.8,26.8,0,0,1,26.8,26.81V396A26.81,26.81,0,0,1,455,422.8H101.81A26.81,26.81,0,0,1,75,396V203.81A26.81,26.81,0,0,1,101.81,177Z"/><path class="cls-3" d="M455,422.8A26.81,26.81,0,0,0,481.75,396V203.81A26.8,26.8,0,0,0,455,177H342.24L211.59,422.8Z"/><rect class="cls-4" x="75" y="213.25" width="406.75" height="40.79"/><path class="cls-5" d="M137.82,328.4H422.31a3.43,3.43,0,0,1,3.5,3.49v29.49a3.44,3.44,0,0,1-3.5,3.5H137.82a3.44,3.44,0,0,1-3.5-3.5V331.89A3.5,3.5,0,0,1,137.82,328.4Z"/><path class="cls-6" d="M527.5,197.3a65,65,0,1,1-65-65,65,65,0,0,1,65,65h0"/><path class="cls-5" d="M449.1,225.7a4.69,4.69,0,0,1-3.5-1.5l-20-20a5,5,0,0,1,.1-7.1,4.89,4.89,0,0,1,6.9,0l16.5,16.5,43.3-43.3a5,5,0,0,1,7.4,6.8l-.3.3-46.9,46.8A4.69,4.69,0,0,1,449.1,225.7Z"/><rect class="cls-7" width="600" height="600"/></svg>