<svg xmlns="http://www.w3.org/2000/svg" xmlns:xlink="http://www.w3.org/1999/xlink" viewBox="0 0 600 600"><defs><style>.cls-1{isolation:isolate;}.cls-2{fill:url(#Degradado_sin_nombre_7);}.cls-3{fill:#49a5e6;}.cls-4{fill:url(#Degradado_sin_nombre_17);}.cls-5{fill:#043263;opacity:0.6;mix-blend-mode:multiply;}.cls-6{fill:#fff;}.cls-7{fill:#1464a5;}.cls-8{fill:url(#Degradado_sin_nombre_4);}</style><linearGradient id="Degradado_sin_nombre_7" x1="260.1" y1="180.25" x2="446.64" y2="531.07" gradientUnits="userSpaceOnUse"><stop offset="0" stop-color="#192647"/><stop offset="0" stop-color="#192647" stop-opacity="0.5"/><stop offset="1" stop-color="#192647" stop-opacity="0"/></linearGradient><linearGradient id="Degradado_sin_nombre_17" x1="494.93" y1="246.2" x2="214.86" y2="246.2" gradientUnits="userSpaceOnUse"><stop offset="0" stop-color="#043263" stop-opacity="0.5"/><stop offset="1" stop-color="#043263" stop-opacity="0"/></linearGradient><linearGradient id="Degradado_sin_nombre_4" x1="465.07" y1="345.36" x2="226.43" y2="345.36" gradientUnits="userSpaceOnUse"><stop offset="0" stop-color="#043263"/><stop offset="1" stop-color="#043263" stop-opacity="0"/></linearGradient></defs><title>GLOMO</title><g class="cls-1"><g id="Contenido"><path class="cls-2" d="M523.72,196.14H236a23,23,0,0,0-23,23v67.72H178.07a23,23,0,0,0-23,23v171a23,23,0,0,0,23,23h314a23,23,0,0,0,23-23V396.25h8.65A21.22,21.22,0,0,0,544.93,375V217.35A21.22,21.22,0,0,0,523.72,196.14Z"/><rect class="cls-3" x="162.95" y="146.14" width="331.98" height="200.11" rx="23"/><path class="cls-4" d="M473.72,346.25A21.22,21.22,0,0,0,494.93,325V167.35a21.22,21.22,0,0,0-21.21-21.21H321.29L214.86,346.25Z"/><rect class="cls-5" x="162.95" y="174.61" width="331.98" height="32.54"/><rect class="cls-6" x="211.77" y="269.79" width="234.34" height="29.28" rx="3"/><rect class="cls-7" x="105.07" y="236.86" width="360" height="217" rx="23"/><path class="cls-8" d="M442.07,453.86a23,23,0,0,0,23-23v-171a23,23,0,0,0-23-23H341.85l-115.42,217Z"/><rect class="cls-5" x="105.07" y="267.73" width="360" height="35.28"/><rect class="cls-6" x="158.01" y="370.94" width="254.12" height="31.76" rx="3"/></g></g></svg>