<?xml version="1.0" encoding="UTF-8"?>
<svg width="600px" height="600px" viewBox="0 0 600 600" version="1.1" xmlns="http://www.w3.org/2000/svg" xmlns:xlink="http://www.w3.org/1999/xlink">
    <title>altin</title>
    <defs>
        <linearGradient x1="18.1890942%" y1="-17.7451996%" x2="61.6198507%" y2="73.1887206%" id="linearGradient-1">
            <stop stop-color="#192647" offset="0%"></stop>
            <stop stop-color="#192647" stop-opacity="0.5" offset="0%"></stop>
            <stop stop-color="#192647" stop-opacity="0" offset="100%"></stop>
        </linearGradient>
        <linearGradient x1="12.550341%" y1="40.0569148%" x2="68.3265369%" y2="51.6396337%" id="linearGradient-2">
            <stop stop-color="#FFECB7" offset="0%"></stop>
            <stop stop-color="#FADE8E" stop-opacity="0.4" offset="100%"></stop>
        </linearGradient>
    </defs>
    <g id="altin" stroke="none" stroke-width="1" fill="none" fill-rule="evenodd">
        <g id="noun-gold-4615871" transform="translate(65.000000, 124.000000)" fill-rule="nonzero">
            <path d="M209.758794,63.988 L185.485794,163.109 C184.294394,167.9567 185.306104,172.6285 188.391994,176.562 C191.470094,180.4878 195.770894,182.5815 200.762994,182.5815 L379.172994,182.5815 C384.165194,182.5815 388.465994,180.4917 391.543994,176.562 C394.622094,172.6362 395.633794,167.9643 394.450194,163.109 L370.169194,63.988 C368.423094,56.8591 362.231694,52 354.892194,52 L225.032194,52 C217.692394,52 211.505194,56.8594 209.755194,63.988 L209.758794,63.988 Z" id="Path" fill="url(#linearGradient-1)"></path>
            <path d="M81.7587943,247.9144 L57.4857943,347.0354 C56.2943943,351.8831 57.3061043,356.5549 60.3919943,360.4884 C63.4700943,364.4142 67.7708943,366.5079 72.7629943,366.5079 L251.172994,366.5079 C256.165194,366.5079 260.465994,364.4181 263.543994,360.4884 C266.622094,356.5626 267.633794,351.8907 266.450194,347.0354 L242.177194,247.9144 C240.431094,240.7855 234.239694,235.9264 226.900194,235.9264 L97.0301943,235.9264 C89.6903943,235.9264 83.4951943,240.7858 81.7531943,247.9144 L81.7587943,247.9144 Z" id="Path" fill="url(#linearGradient-1)"></path>
            <path d="M335.078794,247.9144 L310.801794,347.0354 C309.610394,351.8831 310.622104,356.5549 313.707994,360.4884 C316.786094,364.4142 321.086894,366.5079 326.078994,366.5079 L504.488994,366.5079 C509.481194,366.5079 513.781994,364.4181 516.859994,360.4884 C519.938094,356.5626 520.949794,351.8907 519.766194,347.0354 L495.493194,247.9144 C493.747094,240.7855 487.555694,235.9264 480.216194,235.9264 L350.346194,235.9264 C343.010294,235.9264 336.819194,240.7858 335.076194,247.9144 L335.078794,247.9144 Z" id="Path" fill="url(#linearGradient-1)"></path>
            <path d="M151.79,12.24 L127.517,111.361 C126.3256,116.2087 127.33731,120.8805 130.4232,124.814 C133.5013,128.7398 137.8021,130.8335 142.7942,130.8335 L321.2042,130.8335 C326.1964,130.8335 330.4972,128.7437 333.5752,124.814 C336.6533,120.8882 337.665,116.2163 336.4814,111.361 L312.2004,12.24 C310.4543,5.1111 304.2629,0.252 296.9234,0.252 L167.0634,0.252 C159.7236,0.252 153.5364,5.1114 151.7864,12.24 L151.79,12.24 Z M25.131,195.1664 L0.858,294.2874 C-0.3334,299.1351 0.67831,303.8069 3.7642,307.7404 C6.8423,311.6662 11.1431,313.7599 16.1352,313.7599 L194.5452,313.7599 C199.5374,313.7599 203.8382,311.6701 206.9162,307.7404 C209.9943,303.8146 211.006,299.1427 209.8224,294.2874 L185.5494,195.1664 C183.8033,188.0375 177.6119,183.1784 170.2724,183.1784 L40.4024,183.1784 C33.0626,183.1784 26.8674,188.0378 25.1254,195.1664 L25.131,195.1664 Z M278.451,195.1664 L254.174,294.2874 C252.9826,299.1351 253.99431,303.8069 257.0802,307.7404 C260.1583,311.6662 264.4591,313.7599 269.4512,313.7599 L447.8612,313.7599 C452.8534,313.7599 457.1542,311.6701 460.2322,307.7404 C463.3103,303.8146 464.322,299.1427 463.1384,294.2874 L438.8654,195.1664 C437.1193,188.0375 430.9279,183.1784 423.5884,183.1784 L293.7184,183.1784 C286.3825,183.1784 280.1914,188.0378 278.4484,195.1664 L278.451,195.1664 Z" id="Shape-Copy" fill="#F8CD50"></path>
            <path d="M127.517,111.361 C126.3256,116.2087 127.33731,120.8805 130.4232,124.814 C133.5013,128.7398 137.8021,130.8335 142.7942,130.8335 L312.2004,12.24 C310.4543,5.1111 304.2629,0.252 296.9234,0.252 L167.0634,0.252 C159.7236,0.252 153.5364,5.1114 151.7864,12.24 L127.517,111.361 Z" id="Path-Copy" fill="url(#linearGradient-2)"></path>
            <path d="M0.485794342,294.109 C-0.705605658,298.9567 0.306104342,303.6285 3.39199434,307.562 C6.47009434,311.4878 10.7708943,313.5815 15.7629943,313.5815 L185.169194,194.988 C183.423094,187.8591 177.231694,183 169.892194,183 L40.0321943,183 C32.6923943,183 26.5051943,187.8594 24.7551943,194.988 L0.485794342,294.109 Z" id="Path-Copy-2" fill="url(#linearGradient-2)"></path>
            <path d="M253.485794,294.109 C252.294394,298.9567 253.306104,303.6285 256.391994,307.562 C259.470094,311.4878 263.770894,313.5815 268.762994,313.5815 L438.169194,194.988 C436.423094,187.8591 430.231694,183 422.892194,183 L293.032194,183 C285.692394,183 279.505194,187.8594 277.755194,194.988 L253.485794,294.109 Z" id="Path-Copy-3" fill="url(#linearGradient-2)"></path>
        </g>
    </g>
</svg>