<?xml version="1.0" encoding="UTF-8"?>
<svg width="24px" height="24px" viewBox="0 0 24 24" version="1.1" xmlns="http://www.w3.org/2000/svg" xmlns:xlink="http://www.w3.org/1999/xlink">
    <title>avans_hesap_3</title>
    <g id="avans_hesap_3" stroke="none" stroke-width="1" fill="none" fill-rule="evenodd">
        <path d="M17.72,9 C20.879024,9 23.44,11.560976 23.44,14.72 C23.44,17.879024 20.879024,20.44 17.72,20.44 C14.560976,20.44 12,17.879024 12,14.72 C12,11.560976 14.560976,9 17.72,9 Z M18.435,11.2 L17.005,11.2 L17.005,14.005 L14.2,14.005 L14.2,15.435 L17.005,15.435 L17.005,18.24 L18.435,18.24 L18.435,15.435 L20.653304,15.435 L21.24,14.005 L18.435,14.005 L18.435,11.2 Z M22,4 L22.0016808,8.50122289 C20.7082152,7.5305358 19.1267141,6.99798997 17.4907636,7 C13.3486326,7.00510684 9.99490675,10.3671016 10,14.5092326 C10.0010767,15.3828877 10.151491,16.2214691 10.427065,17.0008583 L1,17 L1,4 L22,4 Z M5.5,6 L4.2375,6 L4.2375,8.0498615 L3,8.51523546 L3,9.23545706 L4.2375,8.7700831 L4.2375,9.57894737 L3,10.0443213 L3,10.7645429 L4.2375,10.299169 L4.2375,14 L4.825,14 C6.28334062,14 7.34374669,13.7082208 8.00625,13.1246537 C8.62143165,12.58277 8.95098896,11.8020472 8.99492989,10.7824647 L9,10.5429363 L7.775,10.5429363 C7.775,10.8753479 7.73333375,11.1837474 7.65,11.468144 C7.56666625,11.7525407 7.43541756,12 7.25625,12.2105263 C7.07708244,12.4210537 6.84166812,12.5854103 6.55,12.7036011 C6.3166655,12.7981538 6.04600084,12.8548848 5.73800064,12.8737951 L5.5,12.8808864 L5.5,9.82271468 L7.8,8.95844875 L7.8,8.23822715 L5.5,9.10249307 L5.5,8.29362881 L7.8,7.42936288 L7.8,6.70914127 L5.5,7.5734072 L5.5,6 Z" id="Combined-Shape" fill="#1464A5"></path>
    </g>
</svg>