<svg xmlns="http://www.w3.org/2000/svg" xmlns:xlink="http://www.w3.org/1999/xlink" width="10px" height="15px" viewBox="0 0 10 15" version="1.1">
    <title>back</title>
    <g id="Page-1" stroke="none" stroke-width="1" fill="none" fill-rule="evenodd">
        <g id="Mobil_6li" transform="translate(-20.000000, -139.000000)" fill="#4A80AD">
            <path d="M20.4358333,140.883929 L26.985,146.4975 L20.3504167,152.184643 L20.3504167,152.185 C20.1333333,152.377857 20,152.639643 20,152.928571 C20,153.520357 20.5595833,154 21.25,154 C21.5870833,154 21.8929167,153.885357 22.1175,153.699643 L22.1179167,153.7 L29.6179167,147.271071 L29.6175,147.271071 C29.8533333,147.076071 30,146.802857 30,146.5 L30,146.4975 L30,146.495 C30,146.192143 29.8533333,145.918929 29.6175,145.724286 L29.6179167,145.723929 L22.1179167,139.295357 L22.1145833,139.298214 C21.89,139.113571 21.5858333,139 21.25,139 C20.5595833,139 20,139.479643 20,140.071429 C20,140.396429 20.1691667,140.6875 20.4358333,140.883929"
                  id="back"
                  transform="translate(25.000000, 146.500000) rotate(-180.000000) translate(-25.000000, -146.500000) "/>
        </g>
    </g>
</svg>