<?xml version="1.0" encoding="UTF-8"?>
<svg width="600px" height="600px" viewBox="0 0 600 600" version="1.1" xmlns="http://www.w3.org/2000/svg" xmlns:xlink="http://www.w3.org/1999/xlink">
    <title>birikim</title>
    <defs>
        <linearGradient x1="18.1890942%" y1="28.8523902%" x2="61.6198507%" y2="57.2386829%" id="linearGradient-1">
            <stop stop-color="#192647" offset="0%"></stop>
            <stop stop-color="#192647" stop-opacity="0.5" offset="0%"></stop>
            <stop stop-color="#192647" stop-opacity="0" offset="100%"></stop>
        </linearGradient>
        <linearGradient x1="18.384414%" y1="-125.093425%" x2="61.5485045%" y2="109.933287%" id="linearGradient-2">
            <stop stop-color="#192647" offset="0%"></stop>
            <stop stop-color="#192647" stop-opacity="0.5" offset="0%"></stop>
            <stop stop-color="#192647" stop-opacity="0" offset="100%"></stop>
        </linearGradient>
        <linearGradient x1="26.8964107%" y1="30.0062008%" x2="61.3060785%" y2="53.2970155%" id="linearGradient-3">
            <stop stop-color="#FADE8E" offset="0%"></stop>
            <stop stop-color="#FADE8E" stop-opacity="0.4" offset="100%"></stop>
        </linearGradient>
        <linearGradient x1="101.23782%" y1="51.4382371%" x2="2.15506679%" y2="49.2926972%" id="linearGradient-4">
            <stop stop-color="#D8722C" offset="0%"></stop>
            <stop stop-color="#D8722C" stop-opacity="0" offset="100%"></stop>
        </linearGradient>
    </defs>
    <g id="birikim" stroke="none" stroke-width="1" fill="none" fill-rule="evenodd">
        <g id="loan_dollar" transform="translate(97.000000, 104.000000)">
            <path d="M440,268.1 C437.3,262.71 425.63,257.32 408.56,262.71 C391.49,268.1 351.56,285.62 329.97,295.05 C327.08,296.31 324.15,297.42 321.21,298.4 C320.21,292.79 317.42,288.11 312.65,285.47 L312.22,285.53 C307.530433,281.468025 301.403511,279.464161 295.22,279.97 L262.69,282.56 C255.867335,283.099997 249.012665,283.099997 242.19,282.56 L224.47,281.15 C207.2,272 189.71,262.82 180.47,260 C161.16,254.16 139.15,263.14 124.78,269 C120.654015,270.66726 116.421258,272.057021 112.11,273.16 C111.8,271.55 111.48,269.94 111.11,268.36 C109.545064,261.027101 103.097751,255.764498 95.6,255.7 L65.7,255.639974 C60.9712109,255.631448 56.4843038,257.729488 53.4589037,261.363835 C50.4335036,264.998181 49.1839886,269.791178 50.05,274.44 C52.6362039,288.689976 53.9082127,303.147359 53.85,317.63 C53.8400016,332.112061 52.5010541,346.562651 49.85,360.8 C48.9596315,365.447167 50.1866331,370.249377 53.1971111,373.899848 C56.2075892,377.550318 60.6883198,379.669237 65.42,379.68 L95.32,379.74 C102.823625,379.721135 109.306119,374.490233 110.91,367.16 C111.5,364.47 112.03,361.72 112.53,358.94 C118.85,356.82 129.53,353.88 140.53,353.88 C178.08,353.88 220.46,392.05 249.66,392.05 C257.29,392.05 271.61,384.31 286.93,374.54 C308.7,360.64 334.53,348.04 365.52,329.18 C396.51,310.32 434.23,285.62 438.72,281.18 C443.21,276.74 442.73,273.49 440,268.1 Z" id="Path" fill="url(#linearGradient-1)" fill-rule="nonzero"></path>
            <g id="Group" transform="translate(105.000000, 90.000000)" fill-rule="nonzero">
                <path d="M50.1198364,109.783775 C50.1198364,110.513775 50.2098364,111.243775 50.2798364,111.973775 C50.2798364,112.103775 50.2798364,112.243775 50.2798364,112.373775 C50.3598364,113.213775 50.4698364,114.043775 50.5898364,114.863775 C50.5898364,115.083775 50.6598364,115.303775 50.6998364,115.523775 C50.8098364,116.183775 50.9198364,116.843775 51.0498364,117.523775 L51.1698364,118.123775 C51.3298364,118.923775 51.5198364,119.713775 51.7098364,120.493775 C51.7698364,120.693775 51.8198364,120.903775 51.8798364,121.103775 C52.0398364,121.713775 52.2098364,122.323775 52.3998364,122.923775 C52.4698364,123.163775 52.5398364,123.403775 52.6198364,123.643775 C52.8498364,124.393775 53.0998364,125.143775 53.3698364,125.873775 L53.5798364,126.413775 C53.7898364,126.993775 54.0198364,127.573775 54.2598364,128.143775 L54.5898364,128.943775 C54.8498364,129.523775 55.1098364,130.103775 55.3798364,130.673775 C55.4898364,130.923775 55.6098364,131.163775 55.7298364,131.413775 C56.0198364,131.993775 56.3098364,132.563775 56.6098364,133.133775 L57.0798364,133.983775 C57.3298364,134.433775 57.5798364,134.863775 57.8398364,135.303775 C57.9898364,135.563775 58.1398364,135.823775 58.2998364,136.083775 C58.6598364,136.683775 59.0498364,137.273775 59.4398364,137.853775 L60.0398364,138.743775 L60.7898364,139.803775 L61.4498364,140.693775 C61.8598364,141.233775 62.2698364,141.763775 62.6998364,142.283775 C62.9498364,142.593775 63.2098364,142.893775 63.4698364,143.193775 C63.7298364,143.493775 63.9498364,143.763775 64.1998364,144.033775 C64.4498364,144.303775 64.7598364,144.663775 65.0498364,144.973775 C65.3398364,145.283775 65.5498364,145.513775 65.8098364,145.773775 C66.3098364,146.293775 66.8098364,146.773775 67.3298364,147.303775 L68.0198364,147.953775 L69.0198364,148.883775 L69.6798364,149.453775 C70.3098364,150.003775 70.9498364,150.523775 71.6098364,151.043775 L72.2098364,151.513775 C72.5998364,151.813775 72.9798364,152.093775 73.3798364,152.383775 L74.0198364,152.843775 C74.8498364,153.423775 75.6898364,153.983775 76.5498364,154.523775 L76.7798364,154.673775 C77.1998364,154.933775 77.6298364,155.183775 78.0598364,155.433775 L78.7298364,155.823775 L80.0498364,156.553775 L80.0498364,156.553775 C107.573276,170.554542 141.239345,159.928628 155.738452,132.664418 C170.237558,105.400209 160.225793,71.5464231 133.229836,56.553775 L133.229836,56.553775 C132.309836,56.063775 131.369836,55.603775 130.419836,55.163775 L129.909836,54.933775 C129.089836,54.563775 128.269836,54.213775 127.439836,53.933775 L126.839836,53.693775 C125.949836,53.353775 125.039836,53.033775 124.129836,52.693775 L123.789836,52.583775 C122.729836,52.243775 121.659836,51.933775 120.579836,51.663775 L120.469836,51.663775 C119.469836,51.413775 118.469836,51.203775 117.469836,51.003775 L116.569836,50.843775 C115.809836,50.703775 115.039836,50.583775 114.269836,50.483775 L113.199836,50.343775 C112.439836,50.253775 111.669836,50.183775 110.899836,50.133775 L109.899836,50.053775 C108.809836,49.993775 107.709836,49.953775 106.599836,49.953775 C75.3184282,49.953775 49.9598364,75.3123668 49.9598364,106.593775 C49.9598364,107.463775 49.9598364,108.323775 50.0298364,109.183775 C50.0898364,109.323775 50.0998364,109.553775 50.1198364,109.783775 Z" id="Path" fill="url(#linearGradient-2)"></path>
                <path d="M114.12984,57.103775 C114.102228,88.3731368 88.7359011,113.702167 57.4665325,113.683775 C26.197164,113.665364 0.86066624,88.3064956 0.869858443,57.037123 C0.87905565,25.7677504 26.2304625,0.423774099 57.4998364,0.423774099 C72.5215925,0.421120964 86.9287124,6.38799943 97.5497603,17.0109229 C108.170808,27.6338464 114.135143,42.0420196 114.12984,57.063775" id="Path" fill="#F8CD50"></path>
                <path d="M84.1398364,7.12377498 C66.2346714,-2.82015248 44.3559989,-2.32323452 26.9207661,8.42335948 C9.48553325,19.1699535 -0.789894485,38.4919312 0.047544116,58.9559318 C0.884982717,79.4199325 12.7048168,97.8377163 30.9598364,107.123775 L84.1398364,7.12377498 Z" id="Path" fill="url(#linearGradient-3)"></path>
            </g>
            <g id="Group-Copy" transform="translate(216.000000, 0.000000)" fill-rule="nonzero">
                <path d="M50.1198364,109.783775 C50.1198364,110.513775 50.2098364,111.243775 50.2798364,111.973775 C50.2798364,112.103775 50.2798364,112.243775 50.2798364,112.373775 C50.3598364,113.213775 50.4698364,114.043775 50.5898364,114.863775 C50.5898364,115.083775 50.6598364,115.303775 50.6998364,115.523775 C50.8098364,116.183775 50.9198364,116.843775 51.0498364,117.523775 L51.1698364,118.123775 C51.3298364,118.923775 51.5198364,119.713775 51.7098364,120.493775 C51.7698364,120.693775 51.8198364,120.903775 51.8798364,121.103775 C52.0398364,121.713775 52.2098364,122.323775 52.3998364,122.923775 C52.4698364,123.163775 52.5398364,123.403775 52.6198364,123.643775 C52.8498364,124.393775 53.0998364,125.143775 53.3698364,125.873775 L53.5798364,126.413775 C53.7898364,126.993775 54.0198364,127.573775 54.2598364,128.143775 L54.5898364,128.943775 C54.8498364,129.523775 55.1098364,130.103775 55.3798364,130.673775 C55.4898364,130.923775 55.6098364,131.163775 55.7298364,131.413775 C56.0198364,131.993775 56.3098364,132.563775 56.6098364,133.133775 L57.0798364,133.983775 C57.3298364,134.433775 57.5798364,134.863775 57.8398364,135.303775 C57.9898364,135.563775 58.1398364,135.823775 58.2998364,136.083775 C58.6598364,136.683775 59.0498364,137.273775 59.4398364,137.853775 L60.0398364,138.743775 L60.7898364,139.803775 L61.4498364,140.693775 C61.8598364,141.233775 62.2698364,141.763775 62.6998364,142.283775 C62.9498364,142.593775 63.2098364,142.893775 63.4698364,143.193775 C63.7298364,143.493775 63.9498364,143.763775 64.1998364,144.033775 C64.4498364,144.303775 64.7598364,144.663775 65.0498364,144.973775 C65.3398364,145.283775 65.5498364,145.513775 65.8098364,145.773775 C66.3098364,146.293775 66.8098364,146.773775 67.3298364,147.303775 L68.0198364,147.953775 L69.0198364,148.883775 L69.6798364,149.453775 C70.3098364,150.003775 70.9498364,150.523775 71.6098364,151.043775 L72.2098364,151.513775 C72.5998364,151.813775 72.9798364,152.093775 73.3798364,152.383775 L74.0198364,152.843775 C74.8498364,153.423775 75.6898364,153.983775 76.5498364,154.523775 L76.7798364,154.673775 C77.1998364,154.933775 77.6298364,155.183775 78.0598364,155.433775 L78.7298364,155.823775 L80.0498364,156.553775 L80.0498364,156.553775 C107.573276,170.554542 141.239345,159.928628 155.738452,132.664418 C170.237558,105.400209 160.225793,71.5464231 133.229836,56.553775 L133.229836,56.553775 C132.309836,56.063775 131.369836,55.603775 130.419836,55.163775 L129.909836,54.933775 C129.089836,54.563775 128.269836,54.213775 127.439836,53.933775 L126.839836,53.693775 C125.949836,53.353775 125.039836,53.033775 124.129836,52.693775 L123.789836,52.583775 C122.729836,52.243775 121.659836,51.933775 120.579836,51.663775 L120.469836,51.663775 C119.469836,51.413775 118.469836,51.203775 117.469836,51.003775 L116.569836,50.843775 C115.809836,50.703775 115.039836,50.583775 114.269836,50.483775 L113.199836,50.343775 C112.439836,50.253775 111.669836,50.183775 110.899836,50.133775 L109.899836,50.053775 C108.809836,49.993775 107.709836,49.953775 106.599836,49.953775 C75.3184282,49.953775 49.9598364,75.3123668 49.9598364,106.593775 C49.9598364,107.463775 49.9598364,108.323775 50.0298364,109.183775 C50.0898364,109.323775 50.0998364,109.553775 50.1198364,109.783775 Z" id="Path" fill="url(#linearGradient-2)"></path>
                <path d="M114.12984,57.103775 C114.102228,88.3731368 88.7359011,113.702167 57.4665325,113.683775 C26.197164,113.665364 0.86066624,88.3064956 0.869858443,57.037123 C0.87905565,25.7677504 26.2304625,0.423774099 57.4998364,0.423774099 C72.5215925,0.421120964 86.9287124,6.38799943 97.5497603,17.0109229 C108.170808,27.6338464 114.135143,42.0420196 114.12984,57.063775" id="Path" fill="#F8CD50"></path>
                <path d="M84.1398364,7.12377498 C66.2346714,-2.82015248 44.3559989,-2.32323452 26.9207661,8.42335948 C9.48553325,19.1699535 -0.789894485,38.4919312 0.047544116,58.9559318 C0.884982717,79.4199325 12.7048168,97.8377163 30.9598364,107.123775 L84.1398364,7.12377498 Z" id="Path" fill="url(#linearGradient-3)"></path>
            </g>
            <path d="M48.69,219.35 C48.69,219.35 58.44,220.74 75.63,217.62 C90.89,214.84 112.01,204.8 131.32,210.62 C150.63,216.44 205.87,250.14 220.69,253.29 C235.51,256.44 259.31,255.08 280.87,245.65 C302.43,236.22 342.39,218.71 359.46,213.32 C376.53,207.93 388.2,213.32 390.89,218.71 C393.58,224.1 394.04,227.32 389.55,231.77 C385.06,236.22 347.33,260.92 316.34,279.77 C285.35,298.62 259.52,311.24 237.75,325.13 C222.44,334.91 208.11,342.65 200.48,342.65 C171.29,342.65 128.9,304.47 91.35,304.47 C74.29,304.47 57.67,311.66 57.67,311.66 L39.26,228.6 L48.69,219.35 Z" id="Path" fill="#F7B27F" fill-rule="nonzero"></path>
            <path d="M16.56,204.249974 C11.8285941,204.2415 7.33919087,206.340596 4.31192536,209.976794 C1.28465986,213.612993 0.0340544169,218.408504 0.9,223.06 C3.49114223,237.309312 4.76319109,251.767151 4.7,266.25 C4.69998971,280.729212 3.36095474,295.1774 0.7,309.41 C-0.190368465,314.057167 1.03663306,318.859377 4.04711114,322.509848 C7.05758921,326.160318 11.5383198,328.279237 16.27,328.29 L46.17,328.36 C53.6766403,328.340102 60.160168,323.104206 61.76,315.77 C65.2683599,299.541504 67.0250838,282.983375 67,266.38 C67.0972693,249.788877 65.4210839,233.23487 62,217 C60.4293726,209.66381 53.9722416,204.404138 46.47,204.35 L16.56,204.249974 Z" id="Path" fill="#2DCCCD"></path>
            <circle id="Oval" fill="#02A5A5" fill-rule="nonzero" cx="31.01" cy="306.98" r="10"></circle>
            <path d="M248.43,286.18 L216.67,290.18 C205.995185,291.540098 195.189664,291.519932 184.52,290.12 L135,283.68 L137.71,233.52 L193.37,241 C199.968084,241.880953 206.625504,242.238735 213.28,242.07 L245.02,241.27 C251.305719,241.107914 257.373653,243.577624 261.759595,248.083182 C266.145536,252.58874 268.451119,258.720916 268.12,265 L268.12,265 C267.535518,275.889793 259.248323,284.804104 248.43,286.18 L248.43,286.18 Z" id="Path" fill="url(#linearGradient-4)" fill-rule="nonzero"></path>
            <path d="M252.13,276.52 L219.75,282.42 C208.868685,284.401061 197.778306,284.979105 186.75,284.14 L135.55,280.24 L135.55,228.6 L193.11,233.17 C199.932665,233.709997 206.787335,233.709997 213.61,233.17 L246.14,230.59 C252.586056,230.082314 258.951188,232.290132 263.698362,236.680318 C268.445535,241.070504 271.143225,247.243983 271.140003,253.71 L271.140003,253.71 C271.143946,264.90667 263.144003,274.505759 252.13,276.52 L252.13,276.52 Z" id="Path" fill="#F7B27F" fill-rule="nonzero"></path>
            <path d="M242.2,239.31 C240.62,239.64 237.25,247.61 239.06,256.12 C240.99,265.23 244.61,269.21 247.25,269.06 C248.73,268.97 260.92,267.15 267.7,266.06 C271.7,262.06 273,256.58 272.34,250.65 L272.34,250.65 C271.63,244.33 268.76,239.01 263.54,236.12 C256.8,237.1 243.18,239.1 242.2,239.31 Z" id="Path" fill="#FACBA9" fill-rule="nonzero"></path>
        </g>
    </g>
</svg>