<svg id="Contenido" xmlns="http://www.w3.org/2000/svg" xmlns:xlink="http://www.w3.org/1999/xlink" viewBox="0 0 600 600"><defs><style>.cls-1{fill:url(#Degradado_sin_nombre_7);}.cls-2{fill:#2dcccd;}.cls-3{fill:url(#Degradado_sin_nombre_5);}.cls-4{fill:#49a5e6;}.cls-5{opacity:0.5;}.cls-6{fill:url(#linear-gradient);}.cls-7{fill:#eaf9fa;}.cls-8{fill:#f8cd50;}.cls-9{fill:url(#linear-gradient-2);}</style><linearGradient id="Degradado_sin_nombre_7" x1="124.14" y1="-74.79" x2="460.63" y2="558.06" gradientUnits="userSpaceOnUse"><stop offset="0" stop-color="#192647"/><stop offset="0" stop-color="#192647" stop-opacity="0.5"/><stop offset="1" stop-color="#192647" stop-opacity="0"/></linearGradient><linearGradient id="Degradado_sin_nombre_5" x1="406.17" y1="342.34" x2="252.58" y2="342.34" gradientUnits="userSpaceOnUse"><stop offset="0" stop-color="#028484" stop-opacity="0.6"/><stop offset="1" stop-color="#028484" stop-opacity="0"/></linearGradient><linearGradient id="linear-gradient" x1="219.52" y1="151.02" x2="302.86" y2="195.33" gradientUnits="userSpaceOnUse"><stop offset="0" stop-color="#eaf9fa"/><stop offset="1" stop-color="#e9f8f9" stop-opacity="0.2"/><stop offset="1" stop-color="#eaf9fa" stop-opacity="0.5"/></linearGradient><linearGradient id="linear-gradient-2" x1="313.07" y1="357.96" x2="358.9" y2="382.32" xlink:href="#linear-gradient"/></defs><title>GLOMO</title><path class="cls-1" d="M433.17,161.91H266.83a23,23,0,0,0-23,23V515.08a23,23,0,0,0,23,23H435.12A21.06,21.06,0,0,0,456.17,517V184.91A23,23,0,0,0,433.17,161.91Z"/><rect class="cls-2" x="193.83" y="111.92" width="212.34" height="376.17" rx="23"/><path class="cls-3" d="M252.58,488.08H385.12A21.05,21.05,0,0,0,406.17,467V196.59Z"/><rect class="cls-4" x="214.88" y="157.32" width="170.24" height="40.27" rx="3"/><g class="cls-5"><path class="cls-6" d="M217.63,157.68a2.75,2.75,0,0,0-2.75,2.74V195.2a2.75,2.75,0,0,0,2.75,2.75h83.73l21.52-40.27Z"/></g><rect class="cls-7" x="214.88" y="242.8" width="46.68" height="40.27" rx="3"/><rect class="cls-7" x="276.66" y="242.8" width="46.68" height="40.27" rx="3"/><rect class="cls-7" x="338.44" y="242.8" width="46.68" height="40.27" rx="3"/><rect class="cls-7" x="214.88" y="295.88" width="46.68" height="40.27" rx="3"/><rect class="cls-7" x="276.66" y="295.88" width="46.68" height="40.27" rx="3"/><rect class="cls-7" x="338.44" y="295.88" width="46.68" height="40.27" rx="3"/><rect class="cls-7" x="214.88" y="348.97" width="46.68" height="40.27" rx="3"/><rect class="cls-7" x="276.66" y="348.97" width="46.68" height="40.27" rx="3"/><rect class="cls-7" x="214.88" y="402.05" width="46.68" height="40.27" rx="3"/><rect class="cls-7" x="276.66" y="402.05" width="46.68" height="40.27" rx="3"/><rect class="cls-8" x="338.44" y="348.97" width="46.68" height="93.36" rx="4.57"/><path class="cls-9" d="M343,349a4.57,4.57,0,0,0-4.57,4.56v59.52l36-64.08Z"/></svg>