<?xml version="1.0" encoding="utf-8"?>
<!-- Generator: Adobe Illustrator 23.0.1, SVG Export Plug-In . SVG Version: 6.00 Build 0)  -->
<svg version="1.1" id="Contenido" xmlns="http://www.w3.org/2000/svg" xmlns:xlink="http://www.w3.org/1999/xlink" x="0px" y="0px"
	 viewBox="0 0 600 600" style="enable-background:new 0 0 600 600;" xml:space="preserve">
<style type="text/css">
	.st0{fill:url(#SVGID_1_);}
	.st1{fill:#D4EDFC;}
	.st2{fill:#1464A5;}
	.st3{fill:url(#SVGID_2_);}
	.st4{fill:#2DCCCD;}
	.st5{fill:#F8CD50;}
	.st6{fill:#FFFFFF;}
	.st7{fill:#49A5E6;}
</style>
<title>_</title>
<linearGradient id="SVGID_1_" gradientUnits="userSpaceOnUse" x1="211.9533" y1="489.9386" x2="455.9196" y2="31.1003" gradientTransform="matrix(1 0 0 -1 0 602)">
	<stop  offset="0" style="stop-color:#192647"/>
	<stop  offset="0" style="stop-color:#192647;stop-opacity:0.5"/>
	<stop  offset="1" style="stop-color:#192647;stop-opacity:0"/>
</linearGradient>
<path class="st0" d="M140.1,514.9c0,12.7,10.3,23,23,23h349c1.8,0,3.6-0.2,5.4-0.6l0.3-0.1h0.2c10.1-2.7,17.1-11.8,17.1-22.2V181.6
	c-0.1-11-8-20.4-18.8-22.4c-1.4-0.3-2.8-0.4-4.2-0.4h-20v-24.5c0-6.9-5.6-12.5-12.5-12.5l0,0c-6.9,0-12.5,5.6-12.5,12.5v24.5h-258
	v-24.5c0-6.9-5.6-12.5-12.5-12.5l0,0c-6.9,0-12.5,5.6-12.5,12.5v24.5h-21c-12.6-0.1-22.9,10.1-23,22.7c0,0,0,0,0,0v51.3L140.1,514.9
	z"/>
<path class="st1" d="M485.1,180.7v282c0,12.7-10.3,23-23,23h-349c-12.7,0-23-10.3-23-23v-282"/>
<path class="st2" d="M462.1,106.7h-349c-12.6-0.1-22.9,10.1-23,22.7c0,0,0,0,0,0v51.3h395v-51.3C485,116.8,474.7,106.6,462.1,106.7
	C462.1,106.7,462.1,106.7,462.1,106.7z"/>
<linearGradient id="SVGID_2_" gradientUnits="userSpaceOnUse" x1="485.09" y1="305.79" x2="174.68" y2="305.79" gradientTransform="matrix(1 0 0 -1 0 602)">
	<stop  offset="0" style="stop-color:#192647"/>
	<stop  offset="0" style="stop-color:#043263;stop-opacity:0.2"/>
	<stop  offset="1" style="stop-color:#043263;stop-opacity:0"/>
</linearGradient>
<path class="st3" d="M462.1,106.7h-85.3l-202.1,379h287.4c12.7,0,23-10.2,23-22.9V129.6C485,117,474.8,106.7,462.1,106.7z"/>
<path class="st4" d="M146.6,69.7L146.6,69.7c6.9,0,12.5,5.6,12.5,12.5v49c0,6.9-5.6,12.5-12.5,12.5l0,0c-6.9,0-12.5-5.6-12.5-12.5
	v-49C134.1,75.3,139.7,69.7,146.6,69.7z"/>
<path class="st4" d="M429.6,69.7L429.6,69.7c6.9,0,12.5,5.6,12.5,12.5v49c0,6.9-5.6,12.5-12.5,12.5l0,0c-6.9,0-12.5-5.6-12.5-12.5
	v-49C417.1,75.3,422.7,69.7,429.6,69.7z"/>
<g>
	<path class="st5" d="M295.4,256.3c-9.5,0-17.2-7.7-17.2-17.2s7.7-17.2,17.2-17.2c9.5,0,17.2,7.7,17.2,17.2S304.9,256.3,295.4,256.3
		z M295.4,226.3c-7,0-12.8,5.7-12.8,12.8s5.7,12.8,12.8,12.8c7,0,12.8-5.7,12.8-12.8S302.5,226.3,295.4,226.3z"/>
</g>
<g>
	<path class="st5" d="M173.7,296.1c-9.5,0-17.2-7.7-17.2-17.2s7.7-17.2,17.2-17.2s17.2,7.7,17.2,17.2S183.2,296.1,173.7,296.1z
		 M173.7,266.1c-7,0-12.8,5.7-12.8,12.8s5.7,12.8,12.8,12.8s12.8-5.7,12.8-12.8S180.7,266.1,173.7,266.1z"/>
</g>
<path class="st6" d="M155.5,382c0,7-5.7,12.7-12.7,12.7c-7,0-12.7-5.7-12.7-12.7c0-7,5.7-12.7,12.7-12.7
	C149.8,369.3,155.5,375,155.5,382z"/>
<path class="st6" d="M203.8,382c0,7-5.7,12.7-12.7,12.7c-7,0-12.7-5.7-12.7-12.7c0-7,5.7-12.7,12.7-12.7
	C198.1,369.3,203.8,375,203.8,382z"/>
<path class="st6" d="M252.1,382c0,7-5.7,12.7-12.7,12.7c-7,0-12.7-5.7-12.7-12.7c0-7,5.7-12.7,12.7-12.7
	C246.4,369.3,252.1,375,252.1,382z"/>
<path class="st6" d="M300.3,382c0,7-5.7,12.7-12.7,12.7s-12.7-5.7-12.7-12.7c0-7,5.7-12.7,12.7-12.7
	C294.6,369.3,300.3,375,300.3,382z"/>
<path class="st6" d="M348.6,382c0,7-5.7,12.7-12.7,12.7s-12.7-5.7-12.7-12.7c0-7,5.7-12.7,12.7-12.7
	C342.9,369.3,348.6,375,348.6,382z"/>
<path class="st7" d="M396.8,382c0,7-5.7,12.7-12.7,12.7s-12.7-5.7-12.7-12.7c0-7,5.7-12.7,12.7-12.7
	C391.1,369.3,396.8,375,396.8,382z"/>
<path class="st7" d="M445.1,382c0,7-5.7,12.7-12.7,12.7s-12.7-5.7-12.7-12.7c0-7,5.7-12.7,12.7-12.7
	C439.4,369.3,445.1,375,445.1,382z"/>
<path class="st6" d="M155.5,430.8c0,7-5.7,12.7-12.7,12.7c-7,0-12.7-5.7-12.7-12.7c0-7,5.7-12.7,12.7-12.7
	C149.8,418,155.5,423.7,155.5,430.8C155.5,430.7,155.5,430.7,155.5,430.8z"/>
<path class="st6" d="M203.8,430.8c0,7-5.7,12.7-12.7,12.7c-7,0-12.7-5.7-12.7-12.7c0-7,5.7-12.7,12.7-12.7
	C198.1,418,203.8,423.7,203.8,430.8C203.8,430.7,203.8,430.7,203.8,430.8z"/>
<path class="st6" d="M252.1,430.8c0,7-5.7,12.7-12.7,12.7c-7,0-12.7-5.7-12.7-12.7c0-7,5.7-12.7,12.7-12.7
	C246.4,418,252.1,423.7,252.1,430.8C252.1,430.7,252.1,430.7,252.1,430.8z"/>
<path class="st6" d="M300.3,430.8c0,7-5.7,12.7-12.7,12.7c-7,0-12.7-5.7-12.7-12.7c0-7,5.7-12.7,12.7-12.7
	C294.6,418,300.3,423.7,300.3,430.8C300.3,430.7,300.3,430.7,300.3,430.8z"/>
<path class="st6" d="M348.6,430.8c0,7-5.7,12.7-12.7,12.7c-7,0-12.7-5.7-12.7-12.7c0-7,5.7-12.7,12.7-12.7
	C342.9,418,348.6,423.7,348.6,430.8C348.6,430.7,348.6,430.7,348.6,430.8z"/>
<path class="st7" d="M396.8,430.8c0,7-5.7,12.7-12.7,12.7c-7,0-12.7-5.7-12.7-12.7c0-7,5.7-12.7,12.7-12.7
	C391.1,418,396.8,423.7,396.8,430.8C396.8,430.7,396.8,430.7,396.8,430.8z"/>
<g>
	<path class="st2" d="M133,321.2l-5.8-6l39-37.7c3.6-3.5,10.9-3.4,14.5,0l35.1,33.4c0.5,0.4,2.3,0.4,2.9,0l69.2-73.1
		c1.7-1.8,4.5-2.8,7.5-2.8c0,0,0,0,0.1,0c3,0,5.7,1,7.4,2.8l57.6,60.5c0.6,0.4,2.4,0.4,3,0l78.6-85l6.1,5.7L369.6,304
		c-1.8,1.8-4.5,2.9-7.6,2.9c-3,0-5.8-1-7.5-2.8l-57.6-60.6c-0.6-0.4-2.4-0.4-3,0l-69.1,73.1c-1.7,1.8-4.4,2.8-7.3,2.8
		c-2.9,0.1-5.6-0.9-7.4-2.6l-35.1-33.4c-0.6-0.4-2.4-0.4-3,0L133,321.2z M293.9,243.6L293.9,243.6
		C293.9,243.6,293.9,243.6,293.9,243.6z M296.9,243.6L296.9,243.6L296.9,243.6z"/>
</g>
</svg>
