<?xml version="1.0" encoding="UTF-8"?>
<svg width="24px" height="24px" viewBox="0 0 24 24" version="1.1" xmlns="http://www.w3.org/2000/svg" xmlns:xlink="http://www.w3.org/1999/xlink">
    <title>Activities/Car-Moons</title>
    <g id="Activities/Car-Moons" stroke="none" stroke-width="1" fill="none" fill-rule="evenodd">
        <path d="M11.9326415,5.97639954 L10.1204677,7.79621609 L6.63728088,7.81729433 L7.18725775,5.97639954 L11.9326415,5.97639954 Z M16.8118529,5.97644556 L17.3618298,7.81734035 L11.9407995,7.79626211 L13.7530649,5.97644556 L16.8118529,5.97644556 Z M18.371019,14.8118385 C17.6116843,14.8118385 16.9960769,14.1936661 16.9960769,13.4311674 C16.9960769,12.6686688 17.6116843,12.0504963 18.371019,12.0504963 C19.1303538,12.0504963 19.7459612,12.6686688 19.7459612,13.4311674 C19.7459612,14.1488132 19.200648,14.738613 18.5034312,14.805518 L18.371019,14.8118385 Z M6.0423709,14.7658162 C5.28303617,14.7658162 4.66742873,14.1476437 4.66742873,13.3851451 C4.66742873,12.6226464 5.28303617,12.004474 6.0423709,12.004474 C6.80170563,12.004474 7.41731307,12.6226464 7.41731307,13.3851451 C7.41731307,14.1027908 6.87199991,14.6925906 6.17478312,14.7594956 L6.0423709,14.7658162 Z M6.50068496,4.64089479 L17.5002223,4.64089479 L18.8751645,9.24313178 L5.12574279,9.24313178 L6.50068496,4.64089479 Z M21.9990331,9.24313178 L20.9559103,9.24313178 L19.1409866,2.99329395 C19.1035882,2.88210391 19.0021175,2.80524655 18.8852474,2.8 L5.1816571,2.8 C5.06497034,2.80524655 4.96322462,2.88099937 4.9240846,2.99145306 L3.03033092,9.24313178 L2.00095755,9.24313178 C1.44868911,9.24257951 1.00045796,9.69184989 0.999991516,10.2464194 L0.999991516,11.2524685 C0.99844138,11.8120084 1.44383098,12.2695628 2.00095755,12.2806082 L2.83325587,12.2806082 L2.83325587,20.2038194 C2.8327059,20.7583889 3.28002042,21.2083957 3.83238052,21.2089479 L4.99191508,21.2089479 C5.54189195,21.2089479 5.94979146,20.7588492 5.94979146,20.2038194 L5.94979146,19.3680532 L17.9576197,19.3680532 L17.9576197,20.2038194 C17.9557472,20.7174093 18.3391742,21.1421103 18.8349618,21.2017828 L18.9539945,21.2089479 L19.955869,21.2089479 C20.5058459,21.2089479 21.1649015,20.7588492 21.1649015,20.2038194 L21.1649015,12.2806082 L21.9990331,12.2806082 C22.5561597,12.2695628 23.0016409,11.8120084 22.9999915,11.2524685 L22.9999915,10.2464194 C22.9994806,9.731462 22.6130379,9.30729824 22.1156574,9.24977292 L21.9990331,9.24313178 Z" id="🎨-Change-color-here" fill="#1464A5"></path>
    </g>
</svg>