<svg id="Contenido" xmlns="http://www.w3.org/2000/svg" xmlns:xlink="http://www.w3.org/1999/xlink" viewBox="0 0 600 600"><defs><style>.cls-1{fill:url(#Degradado_sin_nombre);}.cls-2{fill:#1464a5;}.cls-3{fill:url(#Degradado_sin_nombre_2);}.cls-4{fill:#004481;}.cls-5{fill:url(#Degradado_sin_nombre_3);}.cls-6{fill:#d4edfc;}.cls-7{fill:#49a5e6;}.cls-8{fill:#da3951;}.cls-9{fill:#043263;}.cls-10{opacity:0.5;}.cls-11{fill:url(#Degradado_sin_nombre_4);}.cls-12{fill:none;}</style><linearGradient id="Degradado_sin_nombre" x1="290.09" y1="312.02" x2="410.93" y2="84.75" gradientTransform="matrix(1, 0, 0, -1, 0, 602)" gradientUnits="userSpaceOnUse"><stop offset="0" stop-color="#192647" stop-opacity="0.5"/><stop offset="1" stop-color="#192647" stop-opacity="0"/></linearGradient><linearGradient id="Degradado_sin_nombre_2" x1="513.3" y1="780.45" x2="277" y2="780.45" gradientTransform="translate(0 -478)" gradientUnits="userSpaceOnUse"><stop offset="0" stop-color="#043263"/><stop offset="1" stop-color="#043263" stop-opacity="0"/></linearGradient><linearGradient id="Degradado_sin_nombre_3" x1="513.3" y1="816.45" x2="160.42" y2="816.45" xlink:href="#Degradado_sin_nombre_2"/><linearGradient id="Degradado_sin_nombre_4" x1="217.88" y1="731.12" x2="277.62" y2="762.88" gradientTransform="translate(0 -478)" gradientUnits="userSpaceOnUse"><stop offset="0" stop-color="#eaf9fa"/><stop offset="1" stop-color="#eaf9fa" stop-opacity="0.2"/><stop offset="1" stop-color="#eaf9fa" stop-opacity="0.5"/></linearGradient></defs><path class="cls-1" d="M567.9,373.3h-2v-8a9.1,9.1,0,0,0-5-8.2l-.4-1.6A16.12,16.12,0,0,0,547,343.4l-46-6.6h0l-43.1-40.6a48.31,48.31,0,0,0-31.7-11.7H315.6a37.8,37.8,0,0,0-28.7,13.2h0l-.8.9h-.5L254.9,338l-5.1,6.5h0l-.3.2h0l-64.4,5.2a42.5,42.5,0,0,0-34.5,21.4h-2.2a3,3,0,0,0-2.7,2l-3.7,11a3.11,3.11,0,0,0,1.8,3.9h.7l-3.7,12.1a11.87,11.87,0,0,0-7.5,8.5l-4.1,17.6h0a12.82,12.82,0,0,0,9.54,15.39h.06a10.15,10.15,0,0,0,3,.4h40a46,46,0,0,0,86,0H441.4a46,46,0,0,0,88.5-9.8l19.9-4.3A20.6,20.6,0,0,0,565.9,408h0V389.5h1.9a2.9,2.9,0,0,0,3-2.8v-.1c.1-.1.1-.1,0-.1V376.4a2.9,2.9,0,0,0-2.69-3.09Z"/><path class="cls-2" d="M94.3,327.6l-14,46.2,311.3,7.7,121.7-56.8-5.5-21.9a16.1,16.1,0,0,0-13.4-12.1l-46-6.6-43.1-40.6a48.69,48.69,0,0,0-31.7-11.7H263A37.52,37.52,0,0,0,234.3,245l-37.4,47.3-64.4,5.2A42.31,42.31,0,0,0,94.3,327.6Z"/><path class="cls-2" d="M76.6,373.8a12.82,12.82,0,0,0,9.54,15.39h.06a9.81,9.81,0,0,0,2.9.4H432.2l1.7-.2,63.3-13.9a20.6,20.6,0,0,0,16.1-20.1h0l-82,18-354.7.4Z"/><path class="cls-2" d="M410.3,290.5a138.2,138.2,0,0,1-21.3,1.7H196.9l36.5-46.3a40.5,40.5,0,0,1,30.8-14.1H373.6a48.49,48.49,0,0,1,31.7,11.7l43.1,40.6Z"/><path class="cls-3" d="M513.3,324.7l-5.5-21.9a16.1,16.1,0,0,0-13.4-12.1l-46-6.6-43.1-40.6a48.69,48.69,0,0,0-31.7-11.7H351.2L277,373.1H393.6Z"/><path class="cls-4" d="M76.6,373.8l358.5-.7,78.2-17.7V312.6a9.2,9.2,0,0,0-9.2-9.2h-.4L91.1,347a11.79,11.79,0,0,0-10.4,9.2Z"/><path class="cls-5" d="M503.7,303.4,245.6,329.1l-23.3,44.4,212.8-.4,78.2-17.7V312.6a9.2,9.2,0,0,0-9.2-9.2h-.4Z"/><path class="cls-6" d="M92.2,335.6h9.5a17.7,17.7,0,0,0,17.6-15.3h0a1.8,1.8,0,0,0-1.58-2h-.22l-21.7.7a2.9,2.9,0,0,0-2.7,2l-3.7,10.6a3,3,0,0,0,1.73,3.87l.07,0Z"/><path class="cls-7" d="M360.5,246H233.4l-36.3,46c0,.1,0,.2.1.2h0l215-5.6a3,3,0,0,0,3-3v-.1a2.83,2.83,0,0,0-1.1-2.3L383.9,254A38.12,38.12,0,0,0,360.5,246Z"/><path class="cls-8" d="M515.2,320.6h-14a8.3,8.3,0,0,0-8.4,7.6,8.11,8.11,0,0,0,7.57,8.6H515.2a2.9,2.9,0,0,0,3-2.8v-.1h0V323.6a3,3,0,0,0-2.9-3Z"/><circle class="cls-6" cx="172.1" cy="373.3" r="38.3"/><path class="cls-9" d="M126.2,373.3a46,46,0,1,1,46,46h-.1A46,46,0,0,1,126.2,373.3Zm16.7,0a29.2,29.2,0,1,0,29.2-29.2,29.2,29.2,0,0,0-29.2,29.2Z"/><circle class="cls-6" cx="431.8" cy="373.3" r="38.3"/><path class="cls-9" d="M385.8,373.3a46,46,0,1,1,46,46h0A46,46,0,0,1,385.8,373.3Zm16.8,0a29.1,29.1,0,1,0,0-.2v.2Z"/><polygon class="cls-9" points="316.4 246 332.7 246 348.9 288.3 318.5 289.2 316.4 246"/><g class="cls-10"><polygon class="cls-11" points="298.3 246 233 246 197.2 292 272.5 290.1 298.3 246"/></g><rect class="cls-12" width="600" height="600"/></svg>