<?xml version="1.0" encoding="utf-8"?>
<!-- Generator: Adobe Illustrator 23.0.1, SVG Export Plug-In . SVG Version: 6.00 Build 0)  -->
<svg version="1.1" id="Capa_1" xmlns="http://www.w3.org/2000/svg" xmlns:xlink="http://www.w3.org/1999/xlink" x="0px" y="0px"
	 viewBox="0 0 600 600" style="enable-background:new 0 0 600 600;" xml:space="preserve">
<style type="text/css">
	.st0{fill:url(#SVGID_1_);}
	.st1{fill:#2DCCCD;}
	.st2{fill:url(#SVGID_2_);}
	.st3{opacity:0.8;fill:#028484;enable-background:new    ;}
	.st4{fill:#FFFFFF;}
	.st5{fill:#1464A5;}
	.st6{fill:url(#SVGID_3_);}
</style>
<title>GLOMO</title>
<linearGradient id="SVGID_1_" gradientUnits="userSpaceOnUse" x1="250.7009" y1="424.6477" x2="410.9666" y2="123.2317" gradientTransform="matrix(1 0 0 -1 0 600)">
	<stop  offset="0" style="stop-color:#192647"/>
	<stop  offset="0" style="stop-color:#192647;stop-opacity:0.5"/>
	<stop  offset="1" style="stop-color:#192647;stop-opacity:0"/>
</linearGradient>
<path class="st0" d="M516.2,309.4c-0.6-0.7-1.2-1.4-1.9-2.1c-0.6-0.7-1.2-1.3-1.9-1.9c-0.3-0.3-0.6-0.6-0.9-0.8
	c-0.3-0.3-0.7-0.6-1-0.9c-0.3-0.3-0.8-0.7-1.2-0.9c-0.2-0.2-0.6-0.5-0.8-0.7c-0.5-0.3-0.9-0.7-1.3-1c-0.2-0.2-0.5-0.3-0.7-0.6
	c-0.5-0.3-1-0.7-1.5-1c-0.2-0.1-0.3-0.2-0.6-0.3c-0.6-0.3-1.2-0.7-1.7-1c-0.1-0.1-0.2-0.1-0.5-0.2c-0.6-0.3-1.3-0.7-1.9-1
	c-0.1,0-0.1-0.1-0.2-0.1c-2.9-1.5-5.9-2.8-9-3.7v-16.3v-32.4V237l0,0c0-0.3,0-0.7,0-1c0-0.3,0-0.7,0-1c0-0.3-0.1-0.7-0.1-1
	s-0.1-0.7-0.1-1c-0.1-0.3-0.2-0.7-0.2-1c-0.1-0.3-0.1-0.7-0.2-0.9c-0.1-0.3-0.2-0.7-0.3-1c-0.1-0.3-0.2-0.6-0.3-0.9
	c-0.1-0.3-0.3-0.7-0.5-1c-0.1-0.2-0.2-0.6-0.5-0.8c-0.2-0.3-0.3-0.6-0.6-0.9c-0.1-0.2-0.3-0.6-0.5-0.8c-0.2-0.3-0.5-0.6-0.7-0.9
	c-0.2-0.2-0.3-0.5-0.6-0.8c-0.2-0.2-0.5-0.6-0.7-0.8c-0.2-0.2-0.5-0.5-0.7-0.7c-0.2-0.2-0.6-0.5-0.8-0.7c-0.2-0.2-0.5-0.5-0.7-0.7
	c-0.2-0.2-0.6-0.5-0.8-0.6c-0.2-0.2-0.5-0.3-0.8-0.6c-0.3-0.2-0.6-0.3-0.9-0.6c-0.2-0.1-0.6-0.3-0.8-0.5c-0.3-0.1-0.7-0.3-0.9-0.5
	c-0.3-0.1-0.6-0.3-0.9-0.5c-0.3-0.1-0.7-0.2-1-0.3c-0.3-0.1-0.6-0.2-0.9-0.3c-0.3-0.1-0.7-0.2-1-0.2c-0.3-0.1-0.6-0.2-0.9-0.2
	c-0.3-0.1-0.7-0.1-1.2-0.1c-0.3,0-0.7-0.1-0.9-0.1c-0.3,0-0.8,0-1.2-0.1c-0.3,0-0.7,0-1,0l0,0l0,0l0,0h-92.5H180.3
	c-11.7,0-21.2,9.5-21.2,21.2v7.2v32.4v117.3c0,11.7,9.5,21.2,21.2,21.2h90.9h101.1c7.9,7.4,16.8,15,26.4,23.3l0,0l4.4,3.7
	c6.7,5.7,14.2,12.2,22.2,19.1c3.2,2.8,7.6,3.6,11.5,2.1c1.3-0.5,2.5-1.2,3.6-2.1c7.9-6.9,15.5-13.4,22.2-19.1
	c19.6-16.7,36.6-31.1,48.3-45.4c13.2-15.9,19.3-31,19.3-47.5C529.8,333.9,525,320,516.2,309.4z"/>
<g>
	<g id="Contenido">
		<path class="st1" d="M139.7,180.9h289.8c11.7,0,21.2,9.5,21.2,21.2v156.7c0,11.7-9.5,21.2-21.2,21.2H139.7
			c-11.7,0-21.2-9.5-21.2-21.2V202.1C118.5,190.4,128,180.9,139.7,180.9z"/>
		
			<linearGradient id="SVGID_2_" gradientUnits="userSpaceOnUse" x1="450.7024" y1="278.4243" x2="230.5444" y2="278.4243" gradientTransform="matrix(1 0 0 1 0 2)">
			<stop  offset="0" style="stop-color:#028484;stop-opacity:0.8"/>
			<stop  offset="1" style="stop-color:#028484;stop-opacity:0.1"/>
		</linearGradient>
		<path class="st2" d="M429.5,380c11.7,0,21.2-9.4,21.2-21.1l0,0v-157c0-11.7-9.5-21.2-21.2-21.1l0,0H337L230.5,380L429.5,380
			L429.5,380z"/>
		<rect x="118.5" y="209.2" class="st3" width="332.2" height="32.4"/>
		<path class="st4" d="M170.1,283.3h229c1.5,0,2.8,1.3,2.8,2.8v23.6c0,1.5-1.3,2.8-2.8,2.8h-229c-1.5,0-2.8-1.3-2.8-2.8v-23.6
			C167.3,284.6,168.6,283.3,170.1,283.3z"/>
		<path class="st5" d="M473.9,272.6c-10-10.9-24.2-17.1-38.9-17c-11.1,0-21.9,3.7-30.6,10.5c-4.7,3.7-8.9,8-12.4,13
			c-3.5-4.9-7.6-9.3-12.4-13c-8.7-6.9-19.4-10.6-30.6-10.5c-14.8-0.1-28.9,6-38.9,17c-10,10.8-15.4,25.6-15.4,41.6
			c0,16.4,6.1,31.6,19.3,47.5c11.8,14.2,28.7,28.7,48.3,45.4c6.7,5.7,14.2,12.2,22.2,19.1c4.3,3.8,10.8,3.8,15,0
			c7.9-6.9,15.5-13.4,22.2-19.1c19.6-16.7,36.6-31.1,48.3-45.4c13.2-15.9,19.3-31,19.3-47.5C489.2,298.1,483.8,283.4,473.9,272.6z"
			/>
		
			<linearGradient id="SVGID_3_" gradientUnits="userSpaceOnUse" x1="489.2379" y1="340.2792" x2="357.745" y2="340.2792" gradientTransform="matrix(1 0 0 1 0 2)">
			<stop  offset="0" style="stop-color:#043263;stop-opacity:0.8"/>
			<stop  offset="1" style="stop-color:#043263;stop-opacity:0"/>
		</linearGradient>
		<path class="st6" d="M473.9,272.6c-9.3-10.1-22.1-16.1-35.8-16.9L358,403.2l4.4,3.7c6.7,5.7,14.2,12.2,22.2,19.1
			c4.3,3.8,10.8,3.8,15,0c7.9-6.9,15.5-13.4,22.2-19.1c19.6-16.7,36.6-31.1,48.3-45.4c13.2-15.9,19.3-31,19.3-47.5
			C489.2,298.1,483.8,283.4,473.9,272.6z"/>
	</g>
</g>
</svg>
