<svg xmlns="http://www.w3.org/2000/svg" xmlns:xlink="http://www.w3.org/1999/xlink" viewBox="0 0 600 600"><defs><style>.cls-1{fill:none;}.cls-2{fill:url(#Degradado_sin_nombre_78);}.cls-3{fill:#004481;}.cls-4{fill:#043263;}.cls-5{fill:#2dcccd;}.cls-6{fill:#49a5e6;}.cls-10,.cls-13,.cls-7,.cls-8,.cls-9{opacity:0.5;isolation:isolate;}.cls-7{fill:url(#Degradado_sin_nombre_3);}.cls-8{fill:url(#Degradado_sin_nombre_3-2);}.cls-9{fill:url(#Degradado_sin_nombre_3-3);}.cls-10{fill:url(#Degradado_sin_nombre_3-4);}.cls-11{fill:#1464a5;}.cls-12{fill:#eaf9fa;}.cls-13{fill:url(#Degradado_sin_nombre_3-5);}</style><linearGradient id="Degradado_sin_nombre_78" x1="242.31" y1="162.1" x2="454.34" y2="560.86" gradientTransform="translate(0 2)" gradientUnits="userSpaceOnUse"><stop offset="0" stop-color="#192647" stop-opacity="0.5"/><stop offset="1" stop-color="#192647" stop-opacity="0"/></linearGradient><linearGradient id="Degradado_sin_nombre_3" x1="223.11" y1="149.11" x2="322.11" y2="248.09" gradientTransform="translate(0 2)" gradientUnits="userSpaceOnUse"><stop offset="0" stop-color="#fff" stop-opacity="0.5"/><stop offset="1" stop-color="#e8f7f8" stop-opacity="0.2"/><stop offset="1" stop-color="#fff" stop-opacity="0"/></linearGradient><linearGradient id="Degradado_sin_nombre_3-2" x1="213.17" y1="231.06" x2="292.31" y2="310.19" xlink:href="#Degradado_sin_nombre_3"/><linearGradient id="Degradado_sin_nombre_3-3" x1="203.27" y1="312.96" x2="262.46" y2="372.14" xlink:href="#Degradado_sin_nombre_3"/><linearGradient id="Degradado_sin_nombre_3-4" x1="352.11" y1="404.11" x2="390.5" y2="442.5" xlink:href="#Degradado_sin_nombre_3"/><linearGradient id="Degradado_sin_nombre_3-5" x1="193.29" y1="394.93" x2="232.58" y2="434.22" xlink:href="#Degradado_sin_nombre_3"/></defs><title>8</title><g id="Cuadrados_Blancos" data-name="Cuadrados Blancos"><rect class="cls-1" width="600" height="600"/></g><g id="Capa_7" data-name="Capa 7"><path class="cls-2" d="M491.5,210.5a3,3,0,0,0,3-3v-10a23,23,0,0,0-23-23H425V161.4a2.9,2.9,0,0,0-2.9-2.9H277.9a2.9,2.9,0,0,0-2.9,2.9h0v13.1H228.5a23,23,0,0,0-23,23h0v10a3,3,0,0,0,3,3h9v311h-4a8,8,0,0,0-8,8v12h289v-12a8,8,0,0,0-8-8h-4v-311Z"/><rect class="cls-3" x="167.5" y="160.5" width="265" height="311"/><path class="cls-4" d="M178.5,124.5h243a23,23,0,0,1,23,23h0v10a3,3,0,0,1-3,3h-283a3,3,0,0,1-3-3v-10a23,23,0,0,1,23-23Z"/><path class="cls-3" d="M227.9,108.5H372.1a2.9,2.9,0,0,1,2.9,2.9h0v13.1H225V111.4a2.9,2.9,0,0,1,2.9-2.9Z"/><path class="cls-5" d="M163.5,471.5h273a8,8,0,0,1,8,8v12h-289v-12A8,8,0,0,1,163.5,471.5Z"/><path class="cls-6" d="M193,182.5H407a3,3,0,0,1,3,3v44a3,3,0,0,1-3,3H193a3,3,0,0,1-3-3v-44A3,3,0,0,1,193,182.5Z"/><path class="cls-7" d="M190,185.5v44a3,3,0,0,0,3,3H339.7l27.6-50H193A3,3,0,0,0,190,185.5Z"/><path class="cls-6" d="M193,254.5H407a3,3,0,0,1,3,3v44a3,3,0,0,1-3,3H193a3,3,0,0,1-3-3v-44A3,3,0,0,1,193,254.5Z"/><path class="cls-8" d="M190,257.5v44a3,3,0,0,0,3,3H300l27.5-50H193A3,3,0,0,0,190,257.5Z"/><path class="cls-6" d="M193,326.5H407a3,3,0,0,1,3,3v44a3,3,0,0,1-3,3H193a3,3,0,0,1-3-3v-44A3,3,0,0,1,193,326.5Z"/><path class="cls-9" d="M190,329.5v44a3,3,0,0,0,3,3h67.1l27.8-50H193A3,3,0,0,0,190,329.5Z"/><path class="cls-6" d="M361,398.5h46a3,3,0,0,1,3,3v70H358v-70A3,3,0,0,1,361,398.5Z"/><path class="cls-10" d="M361,398.5a3,3,0,0,0-3,3v70h5.5l40.5-73Z"/><rect class="cls-11" x="382" y="398.5" width="4" height="73"/><path class="cls-12" d="M374,441.5a2,2,0,0,1-2-2v-6a2,2,0,0,1,4,0v6A2,2,0,0,1,374,441.5Z"/><path class="cls-12" d="M394,441.5a2,2,0,0,1-2-2v-6a2,2,0,0,1,4,0v6A2,2,0,0,1,394,441.5Z"/><path class="cls-6" d="M193,398.5H332.3a3,3,0,0,1,3,3v44a3,3,0,0,1-3,3H193a3,3,0,0,1-3-3v-44A3,3,0,0,1,193,398.5Z"/><path class="cls-13" d="M190,401.5v44a3,3,0,0,0,3,3h27.3l27.7-50H193A3,3,0,0,0,190,401.5Z"/></g></svg>