<?xml version="1.0" encoding="UTF-8"?>
<svg width="600px" height="600px" viewBox="0 0 600 600" version="1.1" xmlns="http://www.w3.org/2000/svg" xmlns:xlink="http://www.w3.org/1999/xlink">
    <title>current_account</title>
    <defs>
        <linearGradient x1="21.5532457%" y1="23.7235382%" x2="68.7193567%" y2="79.2699169%" id="linearGradient-1">
            <stop stop-color="#192647" offset="0%"></stop>
            <stop stop-color="#192647" stop-opacity="0.5" offset="0%"></stop>
            <stop stop-color="#192647" stop-opacity="0" offset="100%"></stop>
        </linearGradient>
        <linearGradient x1="14.175141%" y1="34.3842553%" x2="72.5442056%" y2="59.0794613%" id="linearGradient-2">
            <stop stop-color="#E9F8F9" offset="0%"></stop>
            <stop stop-color="#E9F8F9" stop-opacity="0.2" offset="100%"></stop>
            <stop stop-color="#E9F8F9" stop-opacity="0.5" offset="100%"></stop>
        </linearGradient>
        <linearGradient x1="100%" y1="50.0076196%" x2="0%" y2="50.0076196%" id="linearGradient-3">
            <stop stop-color="#043263" offset="0%"></stop>
            <stop stop-color="#043263" stop-opacity="0" offset="100%"></stop>
        </linearGradient>
    </defs>
    <g id="current_account" stroke="none" stroke-width="1" fill="none" fill-rule="evenodd">
        <g transform="translate(112.000000, 173.000000)">
            <path d="M425.74,177.47 L366,177.47 L366,63.32 C365.983525,57.7598081 361.480192,53.2564748 355.92,53.2399444 L38.39,53.2399444 C36.2233879,53.2319903 34.1432029,54.0891297 32.6111663,55.6211663 C31.0791297,57.1532029 30.2219903,59.2333879 30.23,61.4 L30.23,62 C30.1664847,62.4506078 30.13,62.9049483 30.13,63.36 L30.13,265.48 C30.13,265.928404 30.1666605,266.376081 30.23,266.82 L30.23,267.29 C30.1563603,269.46857 30.9748931,271.582853 32.4963073,273.143907 C34.0177215,274.704961 36.1102566,275.577593 38.29,275.56 L218.94,275.56 L218.94,296.37 C218.94,303.168625 224.451375,308.680102 231.25,308.680102 L425.74,308.680102 C428.993289,308.693285 432.118463,307.412966 434.427329,305.12098 C436.736195,302.828994 438.039413,299.713299 438.05,296.46 L438.05,189.69 C438.022438,182.917362 432.512658,177.447865 425.74,177.47 L425.74,177.47 Z" id="Path" fill="url(#linearGradient-1)" fill-rule="nonzero"></path>
            <path d="M10.16,0.79967695 L325.85,0.79967695 C331.412466,0.811003921 335.918996,5.31753407 335.93,10.88 L335.93,213 C335.919017,218.564097 331.414083,223.0735 325.85,223.09 L10.16,223.09 C4.59819089,223.068041 0.0964443549,218.561828 0.07967695,213 L0.07967695,10.88 C0.058473466,8.20007655 1.11355642,5.62366277 3.0086096,3.7286096 C4.90366277,1.83355642 7.48007655,0.778473466 10.16,0.79967695 Z" id="Path" fill="#4EA5E2" fill-rule="nonzero"></path>
            <path d="M8.25,223.120348 L170.48,223.120348 L279.57,0.799901183 L8.35,0.799901183 C6.18165858,0.789316664 4.09889378,1.64527558 2.56468761,3.17760389 C1.03048144,4.70993221 0.171972325,6.79164712 0.18,8.96 L0.18,8.96 L0.18,214.85 C0.10627736,217.03032 0.926161003,219.146179 2.449766,220.707544 C3.97337099,222.268909 6.06852837,223.140335 8.25,223.120348 Z" id="Path" fill="url(#linearGradient-2)" opacity="0.5"></path>
            <rect id="Rectangle" fill="#D4ECFA" fill-rule="nonzero" x="30.13" y="109.59" width="125.53" height="29.54"></rect>
            <rect id="Rectangle" fill="#D4ECFA" fill-rule="nonzero" x="30.13" y="159.39" width="274.05" height="29.54"></rect>
            <rect id="Rectangle" fill="#1464A5" fill-rule="nonzero" x="188.9" y="125.03" width="219.1" height="131.21" rx="12.31"></rect>
            <path d="M395.7,256.240065 C398.955016,256.250624 402.080647,254.966386 404.387924,252.670364 C406.695201,250.374342 407.994707,247.255029 408,244 L408,137.25 C407.997361,133.993237 406.699025,130.871353 404.391459,128.573168 C402.083894,126.274982 398.956747,124.989373 395.7,124.999935 L333,124.999935 L262.76,256.240065 L395.7,256.240065 Z" id="Path" fill="url(#linearGradient-3)" fill-rule="nonzero"></path>
            <rect id="Rectangle" fill="#043263" fill-rule="nonzero" opacity="0.6" style="mix-blend-mode: multiply;" x="188.9" y="143.7" width="219.1" height="21.33"></rect>
            <rect id="Rectangle" fill="#D4EDFC" fill-rule="nonzero" x="221.12" y="206.1" width="154.66" height="19.2" rx="1.61"></rect>
        </g>
    </g>
</svg>