<svg xmlns="http://www.w3.org/2000/svg" xmlns:xlink="http://www.w3.org/1999/xlink" viewBox="0 0 600 600"><defs><style>.cls-1{fill:none;}.cls-2{fill:url(#Degradado_sin_nombre_66);}.cls-3{fill:#043263;}.cls-4{fill:#49a5e6;}.cls-5{fill:#072146;}.cls-6{fill:#5ac4c4;}.cls-7,.cls-8{opacity:0.5;isolation:isolate;}.cls-7{fill:url(#Degradado_sin_nombre_2);}.cls-8{fill:url(#Degradado_sin_nombre_10);}</style><linearGradient id="Degradado_sin_nombre_66" x1="236.86" y1="6687.24" x2="432.85" y2="6318.64" gradientTransform="matrix(1, 0, 0, -1, 0, 6870)" gradientUnits="userSpaceOnUse"><stop offset="0" stop-color="#192647" stop-opacity="0.5"/><stop offset="1" stop-color="#192647" stop-opacity="0"/></linearGradient><linearGradient id="Degradado_sin_nombre_2" x1="205.41" y1="212.87" x2="326.45" y2="333.91" gradientUnits="userSpaceOnUse"><stop offset="0" stop-color="#eaf9fa"/><stop offset="1" stop-color="#eaf9fa" stop-opacity="0.2"/><stop offset="1" stop-color="#eaf9fa" stop-opacity="0.5"/></linearGradient><linearGradient id="Degradado_sin_nombre_10" x1="380.08" y1="6558.43" x2="442.64" y2="6495.86" gradientTransform="matrix(1, 0, 0, -1, 0, 6870)" gradientUnits="userSpaceOnUse"><stop offset="0" stop-color="#fff" stop-opacity="0.5"/><stop offset="1" stop-color="#edf8f9" stop-opacity="0.2"/><stop offset="1" stop-color="#fff" stop-opacity="0"/></linearGradient></defs><title>6</title><g id="Cuadrados_Blancos" data-name="Cuadrados Blancos"><rect class="cls-1" width="600" height="600"/></g><g id="Capa_6" data-name="Capa 6"><path class="cls-2" d="M517.24,297.12H499.56V228.55a16.84,16.84,0,0,0-16.87-16.85h-296a16.89,16.89,0,0,0-16.87,16.85h0V418.67a16,16,0,0,0,.54,4.15H153.17A2.19,2.19,0,0,0,151,425h0v7.84h-8.85A2.19,2.19,0,0,0,140,435v17.57a2.19,2.19,0,0,0,2.16,2.16h277v30.64A18.7,18.7,0,0,0,437.86,504h79.38A18.78,18.78,0,0,0,536,485.35h0V315.77a18.78,18.78,0,0,0-18.76-18.65Z"/><path class="cls-3" d="M149.12,175.78h296.3a16.88,16.88,0,0,1,16.87,16.87h0V398.82h-330V192.65A16.87,16.87,0,0,1,149.12,175.78Z"/><path class="cls-4" d="M154,190.45h286a7.36,7.36,0,0,1,7.34,7.34V365a7.36,7.36,0,0,1-7.34,7.33H154A7.35,7.35,0,0,1,146.7,365V197.79A7.36,7.36,0,0,1,154,190.45Z"/><path class="cls-3" d="M104.6,397.28H488.4a2.16,2.16,0,0,1,2.2,2.2v17.6a2.17,2.17,0,0,1-2.2,2.2H104.6a2.16,2.16,0,0,1-2.2-2.2v-17.6A2.2,2.2,0,0,1,104.6,397.28Z"/><path class="cls-5" d="M480.84,397.28H113.4v-7.85a2.16,2.16,0,0,1,2.2-2.2h363a2.16,2.16,0,0,1,2.2,2.2Z"/><path class="cls-6" d="M322.13,404.61h-47.6a7.35,7.35,0,0,1-7.33-7.33h62.26A7.4,7.4,0,0,1,322.13,404.61Z"/><path class="cls-7" d="M154,372.34H299.25l97.62-181.89H154a7.36,7.36,0,0,0-7.33,7.34V365A7.35,7.35,0,0,0,154,372.34Z"/><path class="cls-3" d="M394.56,251.89h75.32a20.74,20.74,0,0,1,20.75,20.72V438.22A20.74,20.74,0,0,1,469.88,459H394.56a20.74,20.74,0,0,1-20.75-20.73V272.61A20.68,20.68,0,0,1,394.56,251.89Z"/><rect class="cls-4" x="373.81" y="277.75" width="116.82" height="155.25"/><polygon class="cls-8" points="373.99 277.93 373.99 433 389.6 433 473.94 277.93 373.99 277.93"/></g></svg>