<svg id="Contenido" xmlns="http://www.w3.org/2000/svg" xmlns:xlink="http://www.w3.org/1999/xlink" viewBox="0 0 600 600"><defs><style>.cls-1,.cls-2,.cls-8{fill:#69c8ca;}.cls-1{clip-rule:evenodd;}.cls-3{fill:url(#Degradado_sin_nombre_51);}.cls-4{fill:#1464a5;}.cls-5{fill:#49a5e6;}.cls-6,.cls-8{fill-rule:evenodd;}.cls-6{opacity:0.5;fill:url(#Degradado_sin_nombre_50);}.cls-7{fill:#153260;}.cls-9{clip-path:url(#clip-path);}.cls-10{clip-path:url(#clip-path-2);}.cls-11{clip-path:url(#clip-path-3);}.cls-12{clip-path:url(#clip-path-4);}.cls-13{fill:#59a96e;}.cls-14{fill:#fff;}</style><linearGradient id="Degradado_sin_nombre_51" x1="218.17" y1="79.56" x2="480.51" y2="572.96" gradientUnits="userSpaceOnUse"><stop offset="0" stop-color="#192647"/><stop offset="0" stop-color="#192647" stop-opacity="0.5"/><stop offset="1" stop-color="#192647" stop-opacity="0"/></linearGradient><linearGradient id="Degradado_sin_nombre_50" x1="196.19" y1="223.72" x2="320.02" y2="347.56" gradientUnits="userSpaceOnUse"><stop offset="0" stop-color="#fff" stop-opacity="0.5"/><stop offset="1" stop-color="#edf6f7" stop-opacity="0.1"/></linearGradient><clipPath id="clip-path"><path class="cls-1" d="M182.28,318a7.09,7.09,0,0,1,0,8.75l3.62,1.51a8.89,8.89,0,0,0,0-11.92Zm7.7-3.32,4.37-1.81a16.58,16.58,0,0,1,.27,18.61l-.27.4L190,330.09a11.94,11.94,0,0,0,.27-15.07l-.27-.32,4.37-1.81Zm8.3-3.62,4.22-1.82a24.29,24.29,0,0,1,.3,25.62l-.3.49-4.22-1.81a19.79,19.79,0,0,0,.29-22.05l-.29-.43,4.22-1.82Zm12.52-5.29a32,32,0,0,1,0,33.2l-4.23-1.81a27.44,27.44,0,0,0,0-29.58Z"/></clipPath><clipPath id="clip-path-2"><path class="cls-1" d="M381,322.48C381,312.4,388.23,305,398.9,305s17.71,7.09,17.71,17c0,6.08-3.22,10.35-8.94,10.35-3.59,0-5.27-1.63-6-4a9.54,9.54,0,0,1-7.14,3.45c-3.72,0-6.08-2.5-6.08-7,0-7.5,3.95-12.17,8.67-12.17a6,6,0,0,1,5.27,2.31l.32-2h5.54L406,326.43c-.37,1.87.36,2.86,2.49,2.86,2.87,0,4.91-2.58,4.91-7.17,0-8.31-5.72-14-14.53-14s-14.4,5.95-14.4,14.4S389.82,337,398.63,337a14.86,14.86,0,0,0,8.54-2.32l1.54,2.23a18,18,0,0,1-10.31,2.9c-10.72,0-17.39-7.31-17.39-17.35m19.57,3.18,1.14-7a4,4,0,0,0-3.27-1.55c-3,0-4.45,3.5-4.45,7,0,2.13.68,3.36,2.9,3.36a5.47,5.47,0,0,0,3.68-1.82"/></clipPath><clipPath id="clip-path-3"><path class="cls-1" d="M309.43,311.8v4h-4v-4Zm0,17.21v4h-4v-4Zm-14.57-2.65v9.27H285.6v-9.27ZM283,338.28h14.56V323.72H283Zm11.91-29.13v9.27H285.6v-9.27ZM292.22,329v4h-4v-4ZM283,321.07h14.56V306.5H283Zm9.27-9.27v4h-4v-4Zm19.86-2.65v9.27h-9.27v-9.27Zm2.64,14.57v2.64h-9.26v-2.64Zm-11.91,0v2.64h-2.65v-2.64ZM314.72,329v9.27h-2.64V329Zm-11.91,0v6.62h6.62v2.65h-9.27V329Zm-2.65-7.94h14.56V306.5H300.16Z"/></clipPath><clipPath id="clip-path-4"><rect class="cls-2" x="281.62" y="305.04" width="34.57" height="34.57"/></clipPath></defs><title>-</title><path class="cls-3" d="M463.84,244.61a65.08,65.08,0,1,0-86.91-89.32H256.84a23,23,0,0,0-23,23v29.17h0V511.1h0v29.19a23,23,0,0,0,23,23h184a23,23,0,0,0,23-23V244.61Z"/><rect class="cls-4" x="183.84" y="105.29" width="230" height="408" rx="23"/><rect class="cls-5" x="183.84" y="157.29" width="230" height="304"/><polygon class="cls-6" points="183.84 157.46 183.84 461.1 217.95 461.15 379.5 157.31 183.84 157.46"/><circle class="cls-7" cx="198.86" cy="322.39" r="45.36"/><path class="cls-8" d="M182.28,318a7.09,7.09,0,0,1,0,8.75l3.62,1.51a8.89,8.89,0,0,0,0-11.92Zm7.7-3.32,4.37-1.81a16.58,16.58,0,0,1,.27,18.61l-.27.4L190,330.09a11.94,11.94,0,0,0,.27-15.07l-.27-.32,4.37-1.81Zm8.3-3.62,4.22-1.82a24.29,24.29,0,0,1,.3,25.62l-.3.49-4.22-1.81a19.79,19.79,0,0,0,.29-22.05l-.29-.43,4.22-1.82Zm12.52-5.29a32,32,0,0,1,0,33.2l-4.23-1.81a27.44,27.44,0,0,0,0-29.58Z"/><g class="cls-9"><rect class="cls-2" x="174.74" y="298.25" width="48.25" height="48.28"/></g><circle class="cls-7" cx="398.81" cy="322.39" r="45.36"/><path class="cls-8" d="M381,322.48C381,312.4,388.23,305,398.9,305s17.71,7.09,17.71,17c0,6.08-3.22,10.35-8.94,10.35-3.59,0-5.27-1.63-6-4a9.54,9.54,0,0,1-7.14,3.45c-3.72,0-6.08-2.5-6.08-7,0-7.5,3.95-12.17,8.67-12.17a6,6,0,0,1,5.27,2.31l.32-2h5.54L406,326.43c-.37,1.87.36,2.86,2.49,2.86,2.87,0,4.91-2.58,4.91-7.17,0-8.31-5.72-14-14.53-14s-14.4,5.95-14.4,14.4S389.82,337,398.63,337a14.86,14.86,0,0,0,8.54-2.32l1.54,2.23a18,18,0,0,1-10.31,2.9c-10.72,0-17.39-7.31-17.39-17.35m19.57,3.18,1.14-7a4,4,0,0,0-3.27-1.55c-3,0-4.45,3.5-4.45,7,0,2.13.68,3.36,2.9,3.36a5.47,5.47,0,0,0,3.68-1.82"/><g class="cls-10"><rect class="cls-2" x="373.74" y="297.68" width="50.14" height="49.42"/></g><circle class="cls-7" cx="298.84" cy="322.39" r="45.36"/><path class="cls-8" d="M309.43,311.8v4h-4v-4Zm0,17.21v4h-4v-4Zm-14.57-2.65v9.27H285.6v-9.27ZM283,338.28h14.56V323.72H283Zm11.91-29.13v9.27H285.6v-9.27ZM292.22,329v4h-4v-4ZM283,321.07h14.56V306.5H283Zm9.27-9.27v4h-4v-4Zm19.86-2.65v9.27h-9.27v-9.27Zm2.64,14.57v2.64h-9.26v-2.64Zm-11.91,0v2.64h-2.65v-2.64ZM314.72,329v9.27h-2.64V329Zm-11.91,0v6.62h6.62v2.65h-9.27V329Zm-2.65-7.94h14.56V306.5H300.16Z"/><g class="cls-11"><rect class="cls-2" x="281.62" y="305.04" width="34.57" height="34.57"/><g class="cls-12"><rect class="cls-2" x="276.3" y="299.85" width="45.07" height="45.07"/></g></g><path class="cls-13" d="M448.94,136.86a65.1,65.1,0,1,1-65.1-65.1h0a65.1,65.1,0,0,1,65.1,65.1"/><path class="cls-14" d="M370.44,166.06a5.83,5.83,0,0,1-4.1-1.7l-20.1-20a5.8,5.8,0,0,1,8.2-8.2l16,15.9,42.8-42.7a5.8,5.8,0,1,1,8.2,8.2l-46.9,46.8A5.83,5.83,0,0,1,370.44,166.06Z"/></svg>