<?xml version="1.0" encoding="utf-8"?>
<!-- Generator: Adobe Illustrator 25.0.0, SVG Export Plug-In . SVG Version: 6.00 Build 0)  -->
<svg version="1.1" id="Layer_1" xmlns="http://www.w3.org/2000/svg" xmlns:xlink="http://www.w3.org/1999/xlink" x="0px" y="0px"
	 width="24px" height="23px" viewBox="0 0 24 23" xml:space="preserve">
<g id="_x30_3_x5F_Footer">
	<path id="icon-facebook-copy-2" fill="#49A5E6" d="M15,7.2h-1.3c-1,0-1.1,0.5-1.1,1.1
		v1.4h2.3l-0.3,2.3h-1.9V18h-2.3v-5.9h-2V9.7h2V8.1c0-2,1.2-3,2.9-3c0.8,0,1.5,0.1,1.8,0.1V7.2z M12,0.4c-6.1,0-11.1,5-11.1,11.1
		s5,11.1,11.1,11.1s11.1-5,11.1-11.1S18.1,0.4,12,0.4L12,0.4z"/>
</g>
</svg>
