<svg id="Contenido" xmlns="http://www.w3.org/2000/svg" xmlns:xlink="http://www.w3.org/1999/xlink" viewBox="0 0 600 600"><defs><style>.cls-1{fill:url(#Degradado_sin_nombre);}.cls-2{fill:#e6d5a5;}.cls-3{fill:#2dcccd;}.cls-4,.cls-5,.cls-9{opacity:0.38;isolation:isolate;}.cls-4{fill:url(#Degradado_sin_nombre_2);}.cls-5{fill:url(#Degradado_sin_nombre_3);}.cls-6{fill:#b79e5d;}.cls-7{fill:#028484;}.cls-8{fill:#112f61;}.cls-9{fill:url(#Degradado_sin_nombre_4);}.cls-10{fill:none;}</style><linearGradient id="Degradado_sin_nombre" x1="239.2" y1="-1313.61" x2="389.24" y2="-1031.44" gradientTransform="translate(0 1556.04)" gradientUnits="userSpaceOnUse"><stop offset="0" stop-color="#1a2746" stop-opacity="0.5"/><stop offset="1" stop-color="#1a2746" stop-opacity="0"/></linearGradient><linearGradient id="Degradado_sin_nombre_2" x1="278.46" y1="-1249.55" x2="202.11" y2="-1249.55" gradientTransform="translate(0 1556.04)" gradientUnits="userSpaceOnUse"><stop offset="0" stop-color="#028484"/><stop offset="1" stop-color="#028484" stop-opacity="0.1"/></linearGradient><linearGradient id="Degradado_sin_nombre_3" x1="283.16" y1="-1179.9" x2="169.91" y2="-1179.9" xlink:href="#Degradado_sin_nombre_2"/><linearGradient id="Degradado_sin_nombre_4" x1="398.25" y1="-1198.38" x2="287.29" y2="-1198.38" xlink:href="#Degradado_sin_nombre_2"/></defs><path class="cls-1" d="M430,334.65c-.06-1.91-.14-3.85-.26-5.83a1.22,1.22,0,0,0-.48-.88,3.26,3.26,0,0,0-3-1.06c-66.32,2.55-92.83,36.52-103.1,68V306.7l.34-.46c8.55-15.1,12.3-24.89,13.88-31,6.79.37,16.83-1.69,20.92-15.69.1-.31.17-.66.27-1s.16-.58.23-.89h0a.43.43,0,0,0,0-.16.23.23,0,0,0-.05-.21.62.62,0,0,0-.49-.36,32.67,32.67,0,0,0-5.64-1c1.32-7.51-2.19-14.79-8.69-17.12s-14,1.19-17.69,8a32.94,32.94,0,0,0-5.65-3.37c-.42-.19-.68-.1-.85.25a28.35,28.35,0,0,0-3,9.75,38.83,38.83,0,0,0-8.46-12.13c2.85-5.86,4-14.38-4.81-23.43l-.78-.75-.62-.61h0l-.12-.12a.23.23,0,0,0-.21-.05.62.62,0,0,0-.55.24,32.79,32.79,0,0,0-3.93,4.94c-5.73-3.91-12.89-4.23-17.77-.27s-6,11.24-3.25,17.72a33.08,33.08,0,0,0-5.11,2.92c-.38.27-.43.55-.21.88,9.65,14.57,21.44,11.54,27.67,8.45,4.76,4.92,10.57,15.32,10.57,37v63.55c-4.82-22.35-20.88-53.63-73.16-52.16a2.14,2.14,0,0,0-1.85.81.83.83,0,0,0-.29.61c0,1.27,0,2.51.09,3.74,2.43,70.36,63.61,69.74,75.21,69v42.34C298.11,389.06,270.57,352,204,366.81a2.72,2.72,0,0,0-2.11,1.47,1,1,0,0,0-.21.83c.33,1.6.67,3.17,1.06,4.72,18.46,80.56,84.62,74,106.44,69.47v23.95c-.27-.07-.55-.11-.82-.18-9.57-2.73-22-1.33-33,.1-18.05,1.06-39.5,5.11-42.91,33.3a4,4,0,0,0,3.52,4.4H425.36a4,4,0,0,0,4-4,3.93,3.93,0,0,0-.21-1.27c-2.32-7-10.57-13.05-29.85-17.21-32.39-7-30.81-14.22-52.93-21.86-8.62-1.25-14.2-.74-19.31,2l-2.57,1.82a13,13,0,0,1-1.28.8V449.07C346,448.5,433.35,439.49,430,334.65Zm-102.39-62a76.74,76.74,0,0,1-4.48,11.24,99,99,0,0,0-1.83-16.37,25.32,25.32,0,0,0,6.3,5.13Z"/><path class="cls-2" d="M397.37,469.19c-2.34-7-10.57-13.05-29.86-17.21-32.38-7-30.82-14.23-52.92-21.87-8.63-1.24-14.21-.74-19.33,2l-2.55,1.82a18.88,18.88,0,0,1-16.13,2.73c-9.57-2.72-22-1.33-33,.11-18,1.06-39.49,5.1-42.91,33.29a4,4,0,0,0,3.53,4.41H393.54a4,4,0,0,0,4-4,3.93,3.93,0,0,0-.21-1.27"/><path class="cls-3" d="M202.13,271.19c.68,74.45,65.07,72.91,75.69,72.13a1.67,1.67,0,0,0,1.55-1.6c.32-10.57-.83-74.61-75.13-72.53-1.51.06-2.11.73-2.11,2"/><path class="cls-4" d="M202.92,269.83a.85.85,0,0,0-.81.82c.56,74.69,65,73.16,75.7,72.39a.77.77,0,0,0,.45-.22.66.66,0,0,0,0-.93h0L203.53,270a.83.83,0,0,0-.56-.23Z"/><path class="cls-3" d="M170.1,339.42c18.89,93.3,99.33,75.77,112.52,72.24a2.1,2.1,0,0,0,1.55-2.39C282,395.88,265.1,315.79,172.28,336.4c-1.88.44-2.53,1.43-2.18,3"/><path class="cls-5" d="M170.76,337.46h0a1,1,0,0,0-.83,1.14.15.15,0,0,0,0,.07c18.79,93.65,99.32,76.08,112.57,72.56a1,1,0,0,0,.53-.37.87.87,0,0,0-.28-1.18L171.52,337.62a.92.92,0,0,0-.58-.17h-.18"/><ellipse class="cls-6" cx="284.12" cy="451.49" rx="14.74" ry="7.33"/><path class="cls-7" d="M284.41,453.38c-3.87,0-7-.7-7-4.56v-191c0-36.49-16.37-41-16.63-41.29a7,7,0,0,1,9.58-10.22c1.29,1.21,21.07,9,21.07,51.51v191c0,3.86-3.17,4.56-7,4.56"/><path class="cls-7" d="M281.81,281c-2.59-1.47-4.41-3.17-2.95-5.72l3.53-4.8c13.8-24.39,14-30.59,13.9-30.87A5.39,5.39,0,0,1,306.44,236h0l.12.39c.41,1.29,1.28,11-14.79,39.37l-3.53,4.81c-1.46,2.59-3.83,1.87-6.42.41"/><path class="cls-8" d="M247.75,190.85c6.19-5,16.06-3.17,22,4.16s5.78,17.37-.41,22.41-16.07,3.17-22-4.16-5.78-17.37.42-22.41"/><path class="cls-8" d="M312.23,208.4c7.4,2.64,10.92,11.69,7.88,20.2s-11.5,13.28-18.89,10.64-10.91-11.67-7.87-20.19,11.5-13.29,18.88-10.65"/><path class="cls-3" d="M327.06,227.23c-5.28,22.32-24.54,17.46-27.68,16.5a.5.5,0,0,1-.35-.59c.63-3.17,5.34-22.36,27.53-16.65.46.11.6.36.5.74"/><path class="cls-3" d="M299.29,243.54a.22.22,0,0,1,.07-.28l27.38-16.48a.28.28,0,0,1,.18,0,.26.26,0,0,1,.19.31h0c-5.28,22.41-24.54,17.54-27.7,16.58a.2.2,0,0,1-.12-.1"/><path class="cls-3" d="M288,213.28c-10.21,20.55,7.7,29.12,10.72,30.39a.53.53,0,0,0,.66-.22c1.56-2.88,10.18-20.62-10.57-30.42-.42-.19-.7-.11-.87.25"/><path class="cls-3" d="M299.43,243.55a.2.2,0,0,1-.26-.11h0l-10.94-30a.31.31,0,0,1,0-.19.24.24,0,0,1,.31-.13h0c21,9.51,12.54,27.47,11,30.36a.27.27,0,0,1-.11.1"/><path class="cls-3" d="M270.38,186.1c16.85,15.57,3.17,30,.81,32.22a.49.49,0,0,1-.69,0c-2.49-2.11-16.91-15.63-1.06-32.16.33-.34.61-.34.9-.08"/><path class="cls-3" d="M270.94,218.31a.19.19,0,0,1-.2-.18h0l-.94-31.93a.28.28,0,0,1,.06-.18.26.26,0,0,1,.35,0c16.91,15.58,3.26,30,.88,32.27a.38.38,0,0,1-.15,0"/><path class="cls-3" d="M239.18,212.36c12.68,19.14,29.06,7.93,31.7,5.95a.51.51,0,0,0,.12-.68c-1.69-2.79-12.73-19.14-31.59-6.15-.38.28-.43.55-.21.88"/><path class="cls-3" d="M271.09,217.68a.22.22,0,0,1-.25.16l-31.45-5.57a.27.27,0,0,1-.17-.1.25.25,0,0,1,.06-.35h0c18.71-13.42,30,2.92,31.78,5.71a.38.38,0,0,1,0,.15"/><path class="cls-3" d="M394.51,296.4C279.34,300.82,284.21,400,285.8,416.31a2.58,2.58,0,0,0,2.55,2.33c16.52.08,116.23-4.16,109.65-119.4-.07-2-1.14-2.95-3.49-2.88"/><path class="cls-9" d="M396.63,297.19h0a1.4,1.4,0,0,0-.85.41L287.58,416.39a1.06,1.06,0,0,0,0,1.46,1.09,1.09,0,0,0,.73.28c16.57.09,116.44-4.23,109.61-119.78a1.25,1.25,0,0,0-1.25-1.16h-.08"/><rect class="cls-10" width="600" height="600"/></svg>