<?xml version="1.0" encoding="UTF-8"?>
<svg width="600px" height="600px" viewBox="0 0 600 600" version="1.1" xmlns="http://www.w3.org/2000/svg" xmlns:xlink="http://www.w3.org/1999/xlink">
    <title>foreign_exchange_mobile</title>
    <defs>
        <linearGradient x1="35.3087134%" y1="1.03379895%" x2="64.6941014%" y2="98.9811674%" id="linearGradient-1">
            <stop stop-color="#192647" offset="0%"></stop>
            <stop stop-color="#192647" stop-opacity="0.5" offset="0%"></stop>
            <stop stop-color="#192647" stop-opacity="0" offset="100%"></stop>
        </linearGradient>
        <linearGradient x1="28.0813953%" y1="20.8641667%" x2="62.7915475%" y2="67.0008333%" id="linearGradient-2">
            <stop stop-color="#FFFFFF" stop-opacity="0.5" offset="0%"></stop>
            <stop stop-color="#ECF7F8" stop-opacity="0.1" offset="100%"></stop>
        </linearGradient>
        <linearGradient x1="99.9627699%" y1="50.0172924%" x2="0.0148920328%" y2="50.0172924%" id="linearGradient-3">
            <stop stop-color="#49A5E6" stop-opacity="0.2" offset="0%"></stop>
            <stop stop-color="#49A5E6" stop-opacity="0" offset="100%"></stop>
        </linearGradient>
    </defs>
    <g id="foreign_exchange_mobile" stroke="none" stroke-width="1" fill="none" fill-rule="evenodd">
        <g transform="translate(137.000000, 71.000000)">
            <path d="M122.5,79.9 L304.9,79.9 C317,79.9 326.8,89.7 326.8,101.8 L326.8,459 C326.8,471.1 317,480.8 304.9,480.8 L122.5,480.8 C110.4,480.8 100.6,471 100.6,459 L100.6,101.8 C100.7,89.7 110.4,79.9 122.5,79.9 Z" id="Path" fill="url(#linearGradient-1)" fill-rule="nonzero"></path>
            <path d="M74.8,29.8 L257.2,29.8 C269.3,29.8 279.1,39.6 279.1,51.6 L279.1,408.8 C279.1,420.9 269.3,430.7 257.2,430.7 L74.8,430.7 C62.7,430.7 52.9,420.9 52.9,408.8 L52.9,51.6 C52.9,39.5 62.7,29.8 74.8,29.8 Z" id="Path" fill="#1464A5" fill-rule="nonzero"></path>
            <rect id="Rectangle" fill="#49A5E6" fill-rule="nonzero" x="52.9" y="80.1" width="226.1" height="300.2"></rect>
            <polygon id="Path" fill="url(#linearGradient-2)" opacity="0.5" points="53.3 80.3 53.3 380.1 131 380.1 279 106.8 279 80.1"></polygon>
            <path d="M158,0.8 L12.8,0.8 C5.7,0.8 0,6.5 0,13.6 L0,115.9 C0,123 5.7,128.7 12.8,128.7 L142.6,128.7 L168,154.1 C168.7,154.8 169.7,154.7 170.4,154.1 C170.7,153.8 170.9,153.4 170.9,152.9 L170.9,143.5 L170.9,13.5 C170.9,6.6 165.1,0.8 158,0.8 C158.1,0.8 158.1,0.8 158,0.8 Z" id="Path" fill="#D4EDFC" fill-rule="nonzero"></path>
            <path d="M158,0.8 L126.6,0.8 L36.6,128.7 L142.6,128.7 L168,154.1 C168.7,154.8 169.7,154.8 170.4,154.1 C170.7,153.8 170.9,153.4 170.9,152.9 L170.9,13.6 C170.9,6.6 165.1,0.8 158,0.8 C158,0.8 158,0.8 158,0.8 Z" id="Path" fill="url(#linearGradient-3)" fill-rule="nonzero"></path>
            <path d="M69.2,83.5 C71.7,87.5 75,91 78.8,93.8 C62,96.6 46.1,85.4 43.3,68.6 C40.5,51.8 51.7,35.9 68.5,33.1 C71.9,32.5 75.4,32.5 78.8,33.1 C75,35.9 71.7,39.4 69.2,43.4 C58.2,45.9 51.2,56.9 53.7,67.9 C55.5,75.7 61.5,81.8 69.2,83.5 L69.2,83.5 Z M101.1,32.7 C118.1,32.7 131.9,46.5 131.9,63.5 C131.9,80.5 118.1,94.3 101.1,94.3 C84.1,94.3 70.3,80.5 70.3,63.5 C70.3,63.5 70.3,63.5 70.3,63.5 C70.3,46.5 84.1,32.7 101.1,32.7 L101.1,32.7 Z M104.2,78.3 L104.2,84 L104,84 L98.7,81.5 L98.7,78.6 C96.2,78.4 93.7,77.8 91.3,76.7 L91,76.6 L90.8,76.5 L90.8,76.3 L90.8,76 L91.4,72.1 L91.5,71.4 L91.6,70.9 L92,71.2 L92.6,71.6 C95,73.1 97.7,73.8 100.4,73.9 C103.4,73.9 105.2,72.5 105.2,70.3 C105.2,68.1 104.2,67.2 99.6,65.4 C93,62.7 90.9,60.6 90.9,56.5 C90.9,52.4 93.9,49.4 98.4,48.5 L98.4,43 L98.7,43 L103.9,45.5 L103.9,48.3 C105.6,48.5 107.3,49 108.9,49.8 L109.3,50 L109.5,50.1 L109.5,50.3 L109.5,50.6 L108.8,54.5 L108.7,55.2 L108.6,55.7 L108.2,55.4 L107.6,55 C105.8,53.7 103.7,53 101.5,53 C98.6,53 97.1,54.2 97.1,56.1 C97.1,58 98.1,58.8 102.6,60.6 C109.3,63.3 111.2,65.5 111.2,70 C111.3,74.1 108.6,77.1 104.2,78.3" id="Shape" fill="#004481"></path>
            <path d="M69.2,83.5 C71.7,87.5 75,91 78.8,93.8 C62,96.6 46.1,85.4 43.3,68.6 C40.5,51.8 51.7,35.9 68.5,33.1 C71.9,32.5 75.4,32.5 78.8,33.1 C75,35.9 71.7,39.4 69.2,43.4 C58.2,45.9 51.2,56.9 53.7,67.9 C55.5,75.7 61.5,81.8 69.2,83.5 L69.2,83.5 Z M101.1,32.7 C118.1,32.7 131.9,46.5 131.9,63.5 C131.9,80.5 118.1,94.3 101.1,94.3 C84.1,94.3 70.3,80.5 70.3,63.5 C70.3,63.5 70.3,63.5 70.3,63.5 C70.3,46.5 84.1,32.7 101.1,32.7 L101.1,32.7 Z M104.2,78.3 L104.2,84 L104,84 L98.7,81.5 L98.7,78.6 C96.2,78.4 93.7,77.8 91.3,76.7 L91,76.6 L90.8,76.5 L90.8,76.3 L90.8,76 L91.4,72.1 L91.5,71.4 L91.6,70.9 L92,71.2 L92.6,71.6 C95,73.1 97.7,73.8 100.4,73.9 C103.4,73.9 105.2,72.5 105.2,70.3 C105.2,68.1 104.2,67.2 99.6,65.4 C93,62.7 90.9,60.6 90.9,56.5 C90.9,52.4 93.9,49.4 98.4,48.5 L98.4,43 L98.7,43 L103.9,45.5 L103.9,48.3 C105.6,48.5 107.3,49 108.9,49.8 L109.3,50 L109.5,50.1 L109.5,50.3 L109.5,50.6 L108.8,54.5 L108.7,55.2 L108.6,55.7 L108.2,55.4 L107.6,55 C105.8,53.7 103.7,53 101.5,53 C98.6,53 97.1,54.2 97.1,56.1 C97.1,58 98.1,58.8 102.6,60.6 C109.3,63.3 111.2,65.5 111.2,70 C111.3,74.1 108.6,77.1 104.2,78.3" id="Shape"></path>
        </g>
    </g>
</svg>