<svg xmlns="http://www.w3.org/2000/svg" xmlns:xlink="http://www.w3.org/1999/xlink" viewBox="0 0 600 600"><defs><style>.cls-1{fill:url(#Degradado_sin_nombre_5);}.cls-2{fill:#1464a5;}.cls-3{fill:url(#Degradado_sin_nombre_2);}.cls-4{fill:#2dcccd;}.cls-5{fill:none;}</style><linearGradient id="Degradado_sin_nombre_5" x1="245.3" y1="441.9" x2="428.22" y2="97.89" gradientTransform="matrix(1, 0, 0, -1, 0, 602)" gradientUnits="userSpaceOnUse"><stop offset="0" stop-color="#192647" stop-opacity="0.5"/><stop offset="1" stop-color="#192647" stop-opacity="0"/></linearGradient><linearGradient id="Degradado_sin_nombre_2" x1="471.86" y1="788.46" x2="221.4" y2="788.46" gradientTransform="translate(0 -478)" gradientUnits="userSpaceOnUse"><stop offset="0" stop-color="#043263" stop-opacity="0.6"/><stop offset="1" stop-color="#043263" stop-opacity="0"/></linearGradient></defs><g id="Contenido"><circle class="cls-1" cx="340.8" cy="339.7" r="170.5"/><circle class="cls-2" cx="300" cy="299.8" r="170.5"/><path class="cls-3" d="M381.5,150.3,221.4,451.5C305,494.9,408,462.2,451.3,378.6S463,194.7,381.5,150.3Z"/><path class="cls-4" d="M279.7,331.1a145.3,145.3,0,0,1-.9-17.1c0-18.1,11.2-28.6,25.2-36.2s19.1-12.7,19.1-24.3c0-9.6-8.1-16.3-22.4-16.3-16.7,0-32.7,10.3-41.5,21.5l-21.9-23.4c13.6-15.7,35.5-28.6,67.4-28.6,36.3,0,56,18.4,56,43.7,0,22.1-12.6,32.8-28.1,41.2-21.7,11.2-21.4,16-21.4,39.5Zm-4.6,34c0-10,7-18,20.1-18s20.6,8,20.6,18-7.2,18-20.6,18S275.1,374.8,275.1,365.1Z"/></g><g id="Capa_2" data-name="Capa 2"><rect class="cls-5" width="600" height="600"/></g></svg>