<?xml version="1.0" encoding="UTF-8"?>
<svg width="24px" height="24px" viewBox="0 0 24 24" version="1.1" xmlns="http://www.w3.org/2000/svg" xmlns:xlink="http://www.w3.org/1999/xlink">
    <title>Activities/Holidays</title>
    <g id="Activities/Holidays" stroke="none" stroke-width="1" fill="none" fill-rule="evenodd">
        <path d="M15.96,18.1700121 L19.48,14.6500121 C20.4680493,13.6619628 21.8482346,13.5170219 22.8689619,14.4140861 L23,14.5370201 L17.150376,20.4939161 C16.9802091,20.667251 16.7564449,20.7756742 16.5175426,20.8031148 L16.397008,20.8100121 L16.253304,20.8100121 L16.84,22.5700121 L15.08,22.5700121 L14.493304,20.8100121 L4.226696,20.8100121 L3.64,22.5700121 L1.88,22.5700121 L2.466696,20.8100121 L1,20.8100121 L1,19.2260121 C1,18.6817145 1.41188224,18.2335458 1.94094356,18.1762091 L2.056,18.1700121 L15.96,18.1700121 L19.48,14.6500121 L15.96,18.1700121 Z M13.135288,11.4559817 L15.109304,16.4100297 L13.349304,16.4100297 L11.56,12.0100297 L13.135288,11.4559817 Z M8.6168576,1.97553054 C6.0727776,4.60662054 5.18046643,8.46302057 6.35348551,12.1672977 L6.4590976,12.4844025 L2.9869696,13.6980985 C1.3107456,8.90262654 3.8294816,3.65571454 8.6168576,1.97553054 Z M8.6289576,1.97135054 L8.6410136,1.96703854 C11.1752403,2.81689579 13.6629712,5.47282491 15.023577,9.09269193 L15.1516936,9.44598254 L8.1952056,11.8775985 C6.91361334,8.19232887 7.11423961,4.53112412 8.4877123,2.19998276 L8.6289576,1.97135054 L8.6410136,1.96703854 L8.6289576,1.97135054 Z M8.653272,1.96278814 C13.3592213,0.324534572 18.4968118,2.74082277 20.2668169,7.3707731 L20.36,7.62550014 L16.887784,8.83910814 C15.559512,5.03909214 12.386056,2.44960414 8.653272,1.96278814 Z" id="🎨-Change-color-here" fill="#1464A5"></path>
    </g>
</svg>