<svg xmlns="http://www.w3.org/2000/svg" xmlns:xlink="http://www.w3.org/1999/xlink" viewBox="0 0 600 600"><defs><style>.cls-1{fill:none;}.cls-2{fill:url(#Degradado_sin_nombre_57);}.cls-3{fill:#043263;}.cls-4{fill:#1464a5;}.cls-5{fill:url(#Degradado_sin_nombre_10);}.cls-6{fill:#2dcccd;}.cls-7{fill:#004481;}</style><linearGradient id="Degradado_sin_nombre_57" x1="241.16" y1="136.9" x2="434.13" y2="499.84" gradientUnits="userSpaceOnUse"><stop offset="0" stop-color="#192647" stop-opacity="0.5"/><stop offset="1" stop-color="#192647" stop-opacity="0"/></linearGradient><linearGradient id="Degradado_sin_nombre_10" x1="444.52" y1="-962.47" x2="211.84" y2="-962.47" gradientTransform="matrix(1, 0, 0, -1, 0, -638)" gradientUnits="userSpaceOnUse"><stop offset="0" stop-color="#043263" stop-opacity="0.6"/><stop offset="1" stop-color="#043263" stop-opacity="0"/></linearGradient></defs><title>8</title><g id="Cuadrados_Blancos" data-name="Cuadrados Blancos"><rect class="cls-1" width="600" height="600"/></g><g id="Capa_18" data-name="Capa 18"><path class="cls-2" d="M184.9,332.3l38.59,5.35,0,159.24a3,3,0,0,0,3,3h265a3,3,0,0,0,3-3V337.65l38.58-5.35,4.47-7a23,23,0,0,0-7.07-31.75h0l-169.89-108a3,3,0,0,0-3.22-.05L187.5,293.5a23,23,0,0,0-7.07,31.75h0l4.47,7"/><path class="cls-3" d="M134.9,282.3,309,306.45,483.1,282.3,310.61,172a3,3,0,0,0-3.22,0Z"/><path class="cls-4" d="M173.48,257.62,307.4,172a3,3,0,0,1,3.2,0l133.92,85.66V446.89a3,3,0,0,1-3,3h-265a3,3,0,0,1-3-3Z"/><path class="cls-5" d="M352.94,199.05l91.58,58.57V446.89a3,3,0,0,1-3,3H211.84"/><path class="cls-6" d="M277.5,320h63a3,3,0,0,1,3,3V449.89h-69V323A3,3,0,0,1,277.5,320Z"/><path class="cls-7" d="M307.39,135.5,137.5,243.5a23,23,0,0,0-7.07,31.75h0l4.47,7L307.39,172a3,3,0,0,1,3.22,0L483.1,282.3l4.47-7a23,23,0,0,0-7.07-31.75h0l-169.89-108A3,3,0,0,0,307.39,135.5Z"/></g></svg>