<?xml version="1.0" encoding="utf-8"?>
<!-- Generator: Adobe Illustrator 25.0.0, SVG Export Plug-In . SVG Version: 6.00 Build 0)  -->
<svg version="1.1" id="Layer_1" xmlns="http://www.w3.org/2000/svg" xmlns:xlink="http://www.w3.org/1999/xlink" x="0px" y="0px"
	 width="24px" height="23px" viewBox="0 0 23 23" xml:space="preserve">
<g id="_x30_3_x5F_Footer" fill="#49A5E6">
	<path id="icon-linkedin-copy-2" fill="#49A5E6" fill-rule="evenodd" clip-rule="evenodd" d="M18.4,16h-2.6v-4.2c0-0.8-0.4-1.7-1.4-1.7c-1,0-1.5,0.8-1.5,1.7V16h-2.5V8.4h2.5
		v1.1c0.7-0.9,1.4-1.3,2.5-1.3c1.1,0,3,0.5,3,3.5V16z M7.9,7.3C7,7.3,6.4,6.8,6.4,6c0-0.7,0.7-1.3,1.5-1.3c0.8,0,1.5,0.6,1.5,1.3
		C9.3,6.8,8.7,7.3,7.9,7.3L7.9,7.3z M6.6,16h2.6V8.4H6.6V16z M12,0.4c-6.1,0-11,4.9-11,11s4.9,11,11,11s11-4.9,11-11
		S18.1,0.4,12,0.4L12,0.4z"/>
</g>
</svg>
