<svg id="Contenido" xmlns="http://www.w3.org/2000/svg" xmlns:xlink="http://www.w3.org/1999/xlink" viewBox="0 0 600 600"><defs><style>.cls-1{fill:url(#Degradado_sin_nombre_23);}.cls-2{fill:url(#Degradado_sin_nombre_23-2);}.cls-3{fill:#f7b27f;}.cls-4{fill:#2dcccd;fill-rule:evenodd;}.cls-5{fill:#02a5a5;}.cls-6{fill:url(#Degradado_sin_nombre_19);}.cls-7{fill:#facba9;}.cls-8{fill:#f8cd51;}.cls-9{fill:url(#Degradado_sin_nombre_10);}.cls-10{fill:#fef5dc;}</style><linearGradient id="Degradado_sin_nombre_23" x1="232.96" y1="151" x2="403.43" y2="471.6" gradientUnits="userSpaceOnUse"><stop offset="0" stop-color="#192647"/><stop offset="0" stop-color="#192647" stop-opacity="0.5"/><stop offset="1" stop-color="#192647" stop-opacity="0"/></linearGradient><linearGradient id="Degradado_sin_nombre_23-2" x1="300.18" y1="105.59" x2="473.64" y2="431.83" xlink:href="#Degradado_sin_nombre_23"/><linearGradient id="Degradado_sin_nombre_19" x1="379.59" y1="287.42" x2="247.66" y2="287.42" gradientTransform="matrix(1, 0.05, -0.05, 1, 16.42, 26.32)" gradientUnits="userSpaceOnUse"><stop offset="0" stop-color="#d8722c"/><stop offset="1" stop-color="#d8722c" stop-opacity="0"/></linearGradient><linearGradient id="Degradado_sin_nombre_10" x1="288.44" y1="589.66" x2="335.32" y2="614.58" gradientTransform="translate(0 -400)" gradientUnits="userSpaceOnUse"><stop offset="0" stop-color="#fade8e"/><stop offset="1" stop-color="#fade8e" stop-opacity="0.4"/></linearGradient></defs><title>_</title><path class="cls-1" d="M552,334.1c-2.7-5.39-14.37-10.78-31.44-5.39s-57,22.91-78.59,32.34c-2.89,1.26-5.82,2.37-8.76,3.35-1-5.61-3.79-10.29-8.56-12.93l-.43.06a23.09,23.09,0,0,0-17-5.56l-32.53,2.59a129.91,129.91,0,0,1-20.5,0l-17.72-1.41C319.2,338,301.71,328.82,292.47,326c-19.31-5.84-41.32,3.14-55.69,9a99.92,99.92,0,0,1-12.67,4.16c-.31-1.61-.63-3.22-1-4.8A16,16,0,0,0,207.6,321.7l-29.9-.06a15.89,15.89,0,0,0-15.65,18.8,236.54,236.54,0,0,1,3.8,43.19,236.72,236.72,0,0,1-4,43.17,15.89,15.89,0,0,0,15.57,18.88l29.9.06a16,16,0,0,0,15.59-12.58c.59-2.69,1.12-5.44,1.62-8.22,6.32-2.12,17-5.06,28-5.06,37.55,0,79.93,38.17,109.13,38.17,7.63,0,21.95-7.74,37.27-17.51,21.77-13.9,47.6-26.5,78.59-45.36s68.71-43.56,73.2-48S554.73,339.49,552,334.1Z"/><path class="cls-2" d="M327.91,267.36c0,.73.09,1.46.16,2.19,0,.13,0,.27,0,.4.08.84.19,1.67.31,2.49,0,.22.07.44.11.66.11.66.22,1.32.35,2l.12.6c.16.8.35,1.59.54,2.37.06.2.11.41.17.61.16.61.33,1.22.52,1.82.07.24.14.48.22.72.23.75.48,1.5.75,2.23l.21.54c.21.58.44,1.16.68,1.73l.33.8c.26.58.52,1.16.79,1.73.11.25.23.49.35.74.29.58.58,1.15.88,1.72l.47.85c.25.45.5.88.76,1.32.15.26.3.52.46.78.36.6.75,1.19,1.14,1.77l.6.89.75,1.06.66.89c.41.54.82,1.07,1.25,1.59.25.31.51.61.77.91s.48.57.73.84.56.63.85.94.5.54.76.8c.5.52,1,1,1.52,1.53l.69.65,1,.93.66.57c.63.55,1.27,1.07,1.93,1.59l.6.47c.39.3.77.58,1.17.87l.64.46c.83.58,1.67,1.14,2.53,1.68l.23.15c.42.26.85.51,1.28.76l.67.39,1.32.73h0a56.64,56.64,0,0,0,53.18-100h0c-.92-.49-1.86-.95-2.81-1.39l-.51-.23c-.82-.37-1.64-.72-2.47-1l-.6-.24c-.89-.34-1.8-.66-2.71-1l-.34-.11c-1.06-.34-2.13-.65-3.21-.92l-.11,0c-1-.25-2-.46-3-.66l-.9-.16c-.76-.14-1.53-.26-2.3-.36l-1.07-.14c-.76-.09-1.53-.16-2.3-.21l-1-.08c-1.09-.06-2.19-.1-3.3-.1a56.64,56.64,0,0,0-56.64,56.64c0,.87,0,1.73.07,2.59C327.88,266.9,327.89,267.13,327.91,267.36Z"/><path class="cls-3" d="M160.69,285.35s9.75,1.39,26.94-1.73c15.26-2.78,36.38-12.82,55.69-7s74.55,39.52,89.37,42.67,38.62,1.79,60.18-7.64,61.52-26.94,78.59-32.33,28.74,0,31.43,5.39,3.15,8.61-1.34,13.06-42.22,29.15-73.21,48-56.82,31.47-78.59,45.36c-15.31,9.78-29.64,17.52-37.27,17.52-29.19,0-71.58-38.18-109.13-38.18-17.06,0-33.68,7.19-33.68,7.19L151.26,294.6Z"/><path class="cls-4" d="M128.56,270.25a15.9,15.9,0,0,0-15.66,18.81,235.66,235.66,0,0,1,3.8,43.19,234.85,234.85,0,0,1-4,43.16,15.89,15.89,0,0,0,15.57,18.88l29.9.07a16,16,0,0,0,15.59-12.59A232.08,232.08,0,0,0,179,332.38,232.86,232.86,0,0,0,174,283a16,16,0,0,0-15.53-12.65Z"/><circle class="cls-5" cx="143.01" cy="372.98" r="10"/><path class="cls-6" d="M360.43,352.18l-31.76,4a125.35,125.35,0,0,1-32.15-.06L247,349.68l2.71-50.16L305.37,307a126.26,126.26,0,0,0,19.91,1.07l31.74-.8A22.55,22.55,0,0,1,380.12,331h0A22.57,22.57,0,0,1,360.43,352.18Z"/><path class="cls-3" d="M364.13,342.52l-32.38,5.9a129.42,129.42,0,0,1-33,1.72l-51.2-3.9V294.6l57.56,4.57a129.91,129.91,0,0,0,20.5,0l32.53-2.58a23.18,23.18,0,0,1,25,23.12h0A23.18,23.18,0,0,1,364.13,342.52Z"/><path class="cls-7" d="M354.2,305.31c-1.58.33-4.95,8.3-3.14,16.81,1.93,9.11,5.55,13.09,8.19,12.94,1.48-.09,13.67-1.91,20.45-3,4-4,5.3-9.48,4.64-15.41h0c-.71-6.32-3.58-11.64-8.8-14.53C368.8,303.1,355.18,305.1,354.2,305.31Z"/><path class="cls-8" d="M391.92,214.58A56.6,56.6,0,1,1,335.28,158h0a56.58,56.58,0,0,1,56.64,56.55"/><path class="cls-9" d="M362,164.7a56.55,56.55,0,1,0-53.1,99.86Z"/><path class="cls-10" d="M315.53,212.5h-7.7v-5.8h8.4c2.34-13.08,10.48-19,19.92-19,10,0,15.24,5.11,17.84,11.52l-7.36,4.15c-1.82-5.45-5-8-10.48-8-5.81,0-10,3.72-11.44,11.43h13.08v5.8H324.11v1.82c0,1,0,2.08.08,3h13.69v5.89h-13c1.47,7.19,5.11,10.92,11.43,10.92,5.46,0,8.75-2.43,10.74-8.49l7.19,4.33c-2.95,6.76-9,11.61-18,11.61-9.78,0-17.49-5.81-19.92-18.37h-8.48v-5.89h7.79c-.09-.95-.09-1.9-.09-2.85v-2Z"/></svg>