<?xml version="1.0" encoding="UTF-8"?>
<svg width="600px" height="600px" viewBox="0 0 600 600" version="1.1" xmlns="http://www.w3.org/2000/svg" xmlns:xlink="http://www.w3.org/1999/xlink">
    <title>mevduat_urunleri</title>
    <defs>
        <linearGradient x1="39.8686916%" y1="41.5865716%" x2="69.7739892%" y2="64.5636138%" id="linearGradient-1">
            <stop stop-color="#043263" stop-opacity="0.5" offset="1%"></stop>
            <stop stop-color="#043263" stop-opacity="0" offset="100%"></stop>
        </linearGradient>
        <linearGradient x1="24.0693754%" y1="28.1501909%" x2="61.3253355%" y2="53.2456513%" id="linearGradient-2">
            <stop stop-color="#FFFFFF" stop-opacity="0.6" offset="0%"></stop>
            <stop stop-color="#FFFFFF" stop-opacity="0.2" offset="100%"></stop>
        </linearGradient>
        <linearGradient x1="24.5526726%" y1="-74.1161904%" x2="61.0004688%" y2="-99.2110125%" id="linearGradient-3">
            <stop stop-color="#FFFFFF" stop-opacity="0.6" offset="0%"></stop>
            <stop stop-color="#FFFFFF" stop-opacity="0.2" offset="100%"></stop>
        </linearGradient>
        <linearGradient x1="24.4195542%" y1="-16.7098423%" x2="61.1739862%" y2="-41.8100002%" id="linearGradient-4">
            <stop stop-color="#FFFFFF" stop-opacity="0.6" offset="0%"></stop>
            <stop stop-color="#FFFFFF" stop-opacity="0.2" offset="100%"></stop>
        </linearGradient>
        <linearGradient x1="14.2114619%" y1="34.3521642%" x2="72.4738672%" y2="59.0829985%" id="linearGradient-5">
            <stop stop-color="#E7F6F7" offset="0%"></stop>
            <stop stop-color="#E7F6F7" stop-opacity="0.2" offset="100%"></stop>
            <stop stop-color="#E7F6F7" stop-opacity="0.5" offset="100%"></stop>
        </linearGradient>
    </defs>
    <g id="mevduat_urunleri" stroke="none" stroke-width="1" fill="none" fill-rule="evenodd">
        <g id="deposit_into_account_dollar" transform="translate(21.000000, 188.000000)">
            <path d="M548.752693,58 L265.052299,58 C263.127276,57.9877369 261.276184,58.7426873 259.906261,60.0989132 C258.536338,61.4551391 257.759809,63.3015394 257.747508,65.2319069 L257.747508,65.7801207 C257.697236,66.1669527 257.670046,66.5564502 257.666086,66.946533 L257.666086,158.311608 C256.293529,157.534 254.886078,156.79916 253.44373,156.107089 L252.93193,155.873806 L250.698618,154.929012 L250.082131,154.684066 C249.291166,154.380798 248.48857,154.089195 247.674342,153.820921 L247.267227,153.692615 C246.290153,153.377684 245.31308,153.086081 244.312742,152.841134 L244.242951,152.841134 C243.312404,152.607852 242.381858,152.409562 241.439679,152.222936 L240.602187,152.071302 C239.892646,151.942997 239.183104,151.83802 238.473562,151.733043 L237.473224,151.604737 C236.775315,151.523088 236.054141,151.464768 235.344599,151.406447 L234.425684,151.336462 C233.413715,151.278142 232.390114,151.243149 231.366512,151.243149 C216.596495,151.244334 202.519823,157.526478 192.63251,168.52938 C192.074182,169.147578 191.527486,169.789105 190.992422,170.430632 C189.922293,171.737013 188.921956,173.078387 187.979777,174.478082 C187.498995,175.17793 187.045353,175.889441 186.618853,176.612617 C185.20518,178.94239 183.976181,181.379912 182.943194,183.902694 C181.226614,182.492227 179.39824,181.224416 177.476233,180.111854 C177.08075,179.878571 176.685268,179.680281 176.313049,179.458663 L176.313049,179.458663 L176.115308,179.353686 C175.545348,179.050418 174.952125,178.758815 174.370533,178.490541 L174.068106,178.338907 C172.608636,177.673418 171.113605,177.089321 169.58985,176.589288 L169.485164,176.589288 C168.752358,176.356006 168.019553,176.146052 167.275116,175.947762 L167.054111,175.889441 C166.28641,175.702815 165.530341,175.527853 164.727744,175.387884 L164.727744,175.387884 C162.285347,174.921568 159.80454,174.687248 157.318267,174.688036 L154.701105,174.688036 L153.712399,174.758021 L152.549216,174.874662 L152.025783,174.944647 C151.493569,174.977556 150.964685,175.051649 150.443854,175.166265 L150.443854,175.166265 C146.591132,175.806926 142.852616,177.009402 139.347086,178.735487 L139.160976,178.8288 L137.695366,179.586968 L136.194859,180.461777 L136.090173,180.520098 C131.087079,183.558748 126.801028,187.64976 123.527794,192.510816 L123.399843,192.685778 C123.109048,193.117351 122.829884,193.572251 122.539088,194.027152 L122.283188,194.470389 C122.166869,194.657015 122.038919,194.843641 121.934233,195.030267 L121.573646,195.695122 L121.259586,196.266664 L120.654731,197.433076 C120.550044,197.631366 120.45699,197.829656 120.363935,198.027946 C120.166194,198.436191 119.980085,198.844435 119.805607,199.264343 L119.561339,199.859214 C119.386861,200.279122 119.212384,200.710695 119.049538,201.142267 C118.979747,201.328893 118.909956,201.527183 118.851797,201.713809 C118.688951,202.157046 118.537737,202.600283 118.398155,203.043519 L118.223678,203.615061 L118.223678,203.615061 C117.332293,202.952407 116.404132,202.341002 115.44367,201.783794 L114.594546,201.317229 L114.594546,201.317229 L114.454964,201.23558 L113.210358,200.617382 L112.989353,200.512405 C111.946587,200.038225 110.878741,199.621582 109.790599,199.264343 L109.720808,199.264343 C109.197376,199.101046 108.673944,198.949412 108.138879,198.821107 L107.976034,198.821107 C107.440969,198.681137 106.894273,198.564496 106.347577,198.459519 L106.347577,198.459519 C104.601787,198.134933 102.830614,197.967082 101.055093,197.957962 L98.4728265,197.957962 L97.6469664,198.039611 L97.2514841,198.039611 L96.0883008,198.202908 L96.0883008,198.202908 C93.3376795,198.655835 90.6686007,199.512626 88.1670229,200.745687 L88.0274409,200.815672 L86.980576,201.363886 C86.631621,201.550512 86.282666,201.760466 85.9337111,201.97042 L85.8406564,201.97042 C82.2699925,204.140826 79.207308,207.056862 76.8608817,210.520222 L76.7794589,210.648527 C76.5700859,210.963459 76.3607129,211.290054 76.1629718,211.61665 L75.9768625,211.931581 L75.7209622,212.328161 L75.4766937,212.80639 C75.3952708,212.934696 75.3254799,213.074665 75.244057,213.214634 C75.1626342,213.354604 74.9532612,213.774512 74.8136792,214.066115 L74.6043062,214.497688 C74.4647242,214.789291 74.3367741,215.080894 74.2088239,215.372497 L74.0343464,215.80407 C73.9063963,216.107337 73.790078,216.410604 73.6737596,216.713871 L73.5225458,217.122116 C73.4062275,217.448711 73.301541,217.763642 73.1968545,218.078574 C73.1477889,218.211492 73.1089034,218.347969 73.0805362,218.486818 C72.9719724,218.813413 72.8789178,219.140009 72.8013722,219.466604 L72.6966857,219.863185 C72.6152629,220.201444 72.5454719,220.52804 72.4756809,220.866299 C72.4902033,221.012644 72.4575914,221.159804 72.3826262,221.286208 L72.2081488,222.265994 L72.1383578,222.732559 C72.1168144,223.053248 72.0779849,223.372534 72.0220394,223.689017 C72.0417307,223.863422 72.0417307,224.039498 72.0220394,224.213902 C71.9926535,224.508659 71.9926535,224.805619 72.0220394,225.100376 L72.0220394,227.129933 C71.9930447,227.611612 71.9930447,228.094606 72.0220394,228.576284 C72.0801986,229.054513 72.0220394,229.229475 72.0918304,229.544407 L72.1965169,230.500865 L72.3360989,231.492315 C72.3512478,231.698337 72.3902837,231.901888 72.4524172,232.098849 C72.5687356,232.740376 72.7083175,233.381903 72.8595314,234.011766 L72.9874815,234.489995 C73.0805362,234.828254 73.1735908,235.15485 73.2782773,235.481445 C73.3829638,235.808041 73.4294912,235.971338 73.510914,236.216285 L73.790078,237.021109 C73.9878191,237.534331 74.1855603,238.047552 74.4065651,238.549109 C74.4065651,238.654087 74.5112516,238.759064 74.5577789,238.875705 C79.0552981,248.817765 88.7141381,255.407871 99.587501,255.953171 C110.460864,256.498471 120.727203,250.907615 126.191483,241.46514 C134.515293,251.381452 147.040482,256.74481 159.939817,255.916371 C172.839152,255.087933 184.579711,248.166148 191.574014,237.266056 L191.969496,237.720957 L192.423137,238.245842 L193.365316,239.283949 L193.749166,239.680529 C194.423813,240.392041 195.110091,241.06856 195.808001,241.733415 L195.982478,241.896713 L197.145661,242.93482 L197.459721,243.214759 C198.681063,244.276194 199.960565,245.279308 201.274962,246.212438 L201.530862,246.399064 C202.891787,247.355522 204.287606,248.25366 205.741585,249.093477 L205.916063,249.198454 C206.416232,249.466729 206.904769,249.746667 207.404938,250.003278 L207.404938,250.003278 C223.329968,258.376742 242.432776,257.935973 257.956881,248.836866 C257.956871,250.734148 258.710066,252.553383 260.050113,253.892773 C261.390161,255.232164 263.206807,255.981509 265.098827,255.975309 L548.98533,255.975309 C553.945881,255.975375 557.974397,251.956526 558,246.98227 L558,66.9931895 C557.987692,64.5957033 557.026111,62.3013184 555.326799,60.6147896 C553.627488,58.9282608 551.329651,57.9877446 548.938803,58 L548.752693,58 Z" id="Path" fill="url(#linearGradient-1)" fill-rule="nonzero"></path>
            <g id="Group-2" transform="translate(0.000000, 89.000000)">
                <path d="M63.2151515,83.0555833 C63.2151515,100.377241 49.1731732,114.41922 31.8515152,114.41922 C14.5298571,114.41922 0.487878788,100.377241 0.487878788,83.0555833 C0.487878788,65.7339252 14.5298571,51.6919469 31.8515152,51.6919469 L31.8515152,51.6919469 C49.1731732,51.6919469 63.2151515,65.7339252 63.2151515,83.0555833" id="Path" fill="#F6CB5C" fill-rule="nonzero"></path>
                <path d="M32.0342784,50.5303307 C17.4945996,50.5713582 4.85545073,60.4510799 1.39817085,74.4778464 C-2.05910902,88.5046129 4.555914,103.065784 17.4323642,109.772755 L46.9525253,54.3005317 C42.3682069,51.8429191 37.2437351,50.5478414 32.0342784,50.5303307 L32.0342784,50.5303307 Z" id="Path" fill="url(#linearGradient-2)" fill-rule="nonzero"></path>
                <path d="M22.8089995,61.1390214 C25.1422926,61.1342947 26.4976797,61.1315489 26.8751169,61.1307843 C26.8742507,61.5593751 26.8705331,63.3987627 26.8639644,66.6489169 C26.8573956,69.8990863 26.8537142,71.7206046 26.8529201,72.1134871 L39.2151415,67.4275118 C39.212615,68.6775758 39.2103412,69.8026303 39.2083201,70.8026754 L26.8460987,75.4886507 C26.84581,75.6315143 26.8451964,75.9351108 26.844258,76.3994099 C26.8433196,76.8637241 26.8427061,77.1673055 26.8424173,77.3101691 L33.5384957,74.8322098 L39.2046386,72.6242089 C39.2042055,72.8385043 39.2031047,73.3831623 39.2013362,74.2582131 C39.1995677,75.1332639 39.198503,75.6600678 39.198142,75.8386548 C39.1978533,75.9815184 39.1633885,76.0530197 39.0947623,76.0531587 L27.1962195,80.5239002 C27.0588226,80.59561 26.9385786,80.6672851 26.8354876,80.7389255 C26.8310843,82.9176028 26.8250028,85.9266804 26.817243,89.7661583 C26.8094832,93.6056361 26.8034016,96.6147289 26.7989983,98.7934062 C26.7989983,98.7934062 26.7989623,98.8112603 26.7988901,98.8469838 C26.7988179,98.8826921 26.7987818,98.9005463 26.7987818,98.9005463 C29.9220929,98.5013534 32.6868015,97.2635479 35.0929222,95.1871449 C37.739603,92.9316834 39.5123996,90.1243943 40.4113264,86.7652775 C40.7918821,85.2287217 40.9837119,83.6925483 40.9868159,82.156742 C40.9868159,82.156742 42.3593413,82.1539615 45.1044066,82.1484006 C45.0974047,85.6128653 44.2844375,88.8825224 42.6655051,91.9573717 C41.5284002,94.31693 39.9801873,96.3558717 38.0208665,98.0742121 C36.1988704,99.7565509 34.1546221,101.046459 31.888136,101.943952 C28.9348098,103.128562 25.8801034,103.545485 22.7240023,103.194721 C22.7286942,100.87318 22.7357322,97.3908615 22.7451162,92.7477646 C22.7545002,88.1046677 22.7615743,84.6044946 22.7663385,82.2472303 C22.7663385,82.2472303 22.5431117,82.3369832 22.0966873,82.5164587 L15.0399853,85.1558808 C15.0421508,84.0843887 15.0444246,82.9593342 15.0468067,81.780702 L22.7731599,78.8720666 C22.773593,78.6577712 22.7748562,78.0327392 22.7769496,76.9969706 C22.3991369,77.1763072 21.8925759,77.391643 21.2572813,77.6429327 C20.6219721,77.8942375 20.2185022,78.0379179 20.0468716,78.0739737 L15.9775997,79.6358713 C15.9775997,79.6358713 15.8660044,79.6718056 15.6428282,79.7436892 C15.4196521,79.8155728 15.2222415,79.8695501 15.0505964,79.905606 C15.0540612,78.191243 15.056335,77.0661884 15.0574178,76.5304424 L22.7836627,73.6753695 C22.7868388,72.10387 22.7910616,70.0144787 22.7963311,67.4071955 C22.8016006,64.7999274 22.8058233,62.710536 22.8089995,61.1390214 L22.8089995,61.1390214 Z" id="Path" fill="#FFFFFF" transform="translate(30.072196, 82.222853) rotate(-120.000000) translate(-30.072196, -82.222853) "></path>
                <path d="M136.39697,69.6341357 C136.422437,87.2581411 125.684076,103.160776 109.191838,109.922644 C92.6996002,116.684511 73.7035366,112.973081 61.0662879,100.519925 C48.4290392,88.0667699 44.6409707,69.3259764 51.4694112,53.0410891 C58.2978517,36.7562017 74.3971515,26.1363913 92.256159,26.1363913 L92.256159,26.1363913 C116.609826,26.1363913 136.362133,45.6009323 136.39697,69.6341357" id="Path" fill="#F6CB5C" fill-rule="nonzero"></path>
                <path d="M92.6075959,26.1363913 C72.6148563,26.3004458 55.2847242,40.0506536 50.5320376,59.5203209 C45.779351,78.9899882 54.8172107,99.2095739 72.4749168,108.611139 L113.164646,31.2918579 C106.840603,27.901703 99.7789586,26.1307303 92.6075959,26.1363913 L92.6075959,26.1363913 Z" id="Path" fill="url(#linearGradient-3)" fill-rule="nonzero"></path>
                <path d="M82.140859,38.6021552 C85.3515863,38.609546 87.2166661,38.6138392 87.7360385,38.6150347 C87.7373929,39.2038982 87.7432056,41.7311299 87.7534765,46.1966884 C87.7637474,50.6622676 87.7695036,53.1649478 87.7707451,53.7047497 L104.754084,47.3399506 C104.758034,49.0574795 104.76159,50.6032513 104.76475,51.9772661 L87.7814111,58.3420652 C87.7818625,58.538353 87.7828219,58.9554802 87.7842892,59.5934053 C87.7857565,60.2313511 87.7867158,60.6484575 87.7871673,60.8447453 L96.9866622,57.4799641 L104.770506,54.4799671 C104.771183,54.7743988 104.772905,55.5227331 104.77567,56.7250117 C104.778435,57.9272902 104.7801,58.6510938 104.780664,58.8964639 C104.781116,59.0927518 104.734115,59.190787 104.639682,59.1905696 L88.2931144,65.2624043 C88.1044738,65.3601134 87.9394366,65.4578769 87.7980025,65.5556948 C87.8048874,68.5490945 87.8143965,72.683425 87.8265297,77.9586863 C87.8386629,83.2339476 87.848172,87.368299 87.8550568,90.3616987 C87.8550568,90.3616987 87.8551133,90.3862295 87.8552262,90.4353118 C87.855339,90.4843734 87.8553954,90.5089042 87.8553954,90.5089042 C92.1508925,89.9790137 95.9479481,88.2947649 99.2465823,85.4561788 C102.875178,82.3730041 105.297977,78.5264374 106.514998,73.9164785 C107.029538,71.8075696 107.28438,69.6980628 107.279527,67.5879375 C107.279527,67.5879375 109.16819,67.592285 112.945617,67.60098 C112.956485,72.360991 111.857217,76.8485469 109.647735,81.0636476 C108.097027,84.2988308 105.978704,87.0910518 103.292767,89.4403313 C100.795583,91.7409632 97.9902349,93.5010867 94.8767424,94.7207226 C90.8198213,96.3307604 86.6188338,96.8854199 82.27376,96.3847011 C82.2664236,93.1950135 82.2554191,88.4104718 82.2407464,82.0310758 C82.2260736,75.6516799 82.2150127,70.8426074 82.2075634,67.6038375 C82.2075634,67.6038375 81.9009229,67.7258264 81.2876817,67.9697629 L71.5929056,71.5542423 C71.5895196,70.0820628 71.5859643,68.536291 71.5822397,66.9169061 L82.1968975,62.966522 C82.1962203,62.6720902 82.1942452,61.8133258 82.190972,60.3902287 C81.6721439,60.6343825 80.9763642,60.9272318 80.1036525,61.2687144 C79.2309209,61.6102178 78.6765751,61.8052285 78.440615,61.8537467 L72.8503253,63.9755232 C72.8503253,63.9755232 72.6969768,64.0242316 72.3902997,64.121669 C72.0836227,64.2191065 71.8122942,64.2920946 71.5763141,64.3406128 C71.5708966,61.9851588 71.5673412,60.439387 71.5656482,59.7032973 L82.1804753,55.8265055 C82.1755092,53.6673394 82.1689065,50.7966144 82.1606672,47.2143304 C82.1524279,43.6320672 82.1458252,40.7613421 82.140859,38.6021552 L82.140859,38.6021552 Z" id="Path" fill="#FFFFFF" transform="translate(92.255633, 67.582514) rotate(-50.000000) translate(-92.255633, -67.582514) "></path>
                <g id="Group" transform="translate(116.649495, 0.580836)">
                    <path d="M112.676768,56.3384137 C112.676768,87.4532439 87.4532141,112.676798 56.3383838,112.676798 C25.2235536,112.676798 0,87.4532439 0,56.3384137 C0,25.2235835 25.2235536,2.98610442e-05 56.3383838,2.98610442e-05 L56.3383838,2.98610442e-05 C87.4532141,2.98610442e-05 112.676768,25.2235835 112.676768,56.3384137" id="Path" fill="#F6CB5C" fill-rule="nonzero"></path>
                    <path d="M56.3008249,0 C30.3987616,0.0660248491 7.87919581,17.7849058 1.72125287,42.9444165 C-4.43669007,68.1039273 7.3539002,94.2204271 30.2975309,106.241702 L82.8800224,6.64795915 C74.7039919,2.27425095 65.5731875,-0.00952538584 56.3008249,0 Z" id="Path" fill="url(#linearGradient-4)" fill-rule="nonzero"></path>
                    <path d="M43.8172191,13.7716348 C48.4820467,13.7716348 51.1917991,13.7716348 51.9463891,13.7716348 C51.9463891,14.6264936 51.9463891,18.2953005 51.9463891,24.777995 C51.9463891,31.2607196 51.9463891,34.8938847 51.9463891,35.6775204 L76.6426809,26.3808779 C76.6426809,28.8742312 76.6426809,31.1182432 76.6426809,33.1129138 L51.9463891,42.4095563 C51.9463891,42.6945092 51.9463891,43.3000569 51.9463891,44.2261388 C51.9463891,45.152251 51.9463891,45.7577684 51.9463891,46.0427214 L65.3235411,41.127268 L76.6426809,36.746109 C76.6426809,37.1735384 76.6426809,38.2599027 76.6426809,40.0052621 C76.6426809,41.7506215 76.6426809,42.8013741 76.6426809,43.1575804 C76.6426809,43.4425333 76.5740659,43.5850098 76.4368651,43.5850098 L52.6667152,52.4542229 C52.3923135,52.5966994 52.1522048,52.7391758 51.9463891,52.8816523 C51.9463891,57.2271998 51.9463891,63.2290475 51.9463891,70.8871955 C51.9463891,78.5453435 51.9463891,84.5472214 51.9463891,88.8927689 C51.9463891,88.8927689 51.9463891,88.9283804 51.9463891,88.9996338 C51.9463891,89.0708569 51.9463891,89.1064685 51.9463891,89.1064685 C58.1890697,88.322863 63.7114243,85.8651212 68.5134818,81.7332734 C73.7957567,77.2452495 77.3286849,71.6530254 79.1122955,64.9566011 C79.8669145,61.8933419 80.244224,58.8300827 80.244224,55.7667933 C80.244224,55.7667933 82.9882403,55.7667933 88.4763019,55.7667933 C88.4763019,62.6769474 86.8641851,69.1952836 83.6399514,75.3218021 C81.3761235,80.0235558 78.2890906,84.0841503 74.3788529,87.5036157 C70.7430168,90.8518279 66.6612563,93.4164044 62.1336004,95.1973753 C56.2339363,97.5482522 50.1284856,98.3674994 43.8172191,97.6551171 C43.8172191,93.0246167 43.8172191,86.078851 43.8172191,76.8178201 C43.8172191,67.5567891 43.8172191,60.5754119 43.8172191,55.8736582 C43.8172191,55.8736582 43.3712946,56.0517764 42.4795039,56.4079525 L28.3820258,61.6440005 C28.3820258,59.5068233 28.3820258,57.2628113 28.3820258,54.9119345 L43.8172191,49.1416223 C43.8172191,48.7141929 43.8172191,47.4675163 43.8172191,45.4015923 C43.0626001,45.7577684 42.0507259,46.185228 40.7816256,46.6838806 C39.5124963,47.1825633 38.7064379,47.4675163 38.3634504,47.5387394 L30.2342513,50.6376404 C30.2342513,50.6376404 30.0112891,50.7088635 29.5653937,50.85134 C29.1194984,50.9938164 28.7250424,51.1006813 28.3820258,51.1719045 C28.3820258,47.7524692 28.3820258,45.5084572 28.3820258,44.4398686 L43.8172191,38.7763912 C43.8172191,35.6419088 43.8172191,31.4744494 43.8172191,26.274013 C43.8172191,21.0736067 43.8172191,16.9061473 43.8172191,13.7716348 L43.8172191,13.7716348 Z" id="Path" fill="#FFFFFF"></path>
                </g>
            </g>
            <path d="M209.000029,0 L490.988373,0 C495.94725,0 499.974406,4.01290377 500,8.97988235 L500,189.020118 C499.974406,193.987096 495.94725,198 490.988373,198 L209.000029,198 C204.04569,197.993663 200.025597,193.982556 200,189.020118 L200,8.97988235 C199.993855,6.60444502 200.930023,4.3238429 202.602587,2.63978654 C204.275152,0.955730176 206.547103,0.00616995672 208.918634,0 L209.000029,0 Z" id="Path" fill="#49A5E6" fill-rule="nonzero"></path>
            <path d="M207.19555,198 L351.770086,198 L449,0 L207.28836,0 C205.368401,-0.0122451564 203.522178,0.741600232 202.15586,2.09584102 C200.789541,3.4500818 200.015055,5.29377949 200.002787,7.22132147 L200.002787,7.22132147 L200.002787,7.22132147 L200.002787,190.639064 C199.9498,192.54293 200.654251,194.389591 201.96043,195.770867 C203.26661,197.152144 205.066956,197.954289 206.963525,198 L207.19555,198 Z" id="Path" fill="url(#linearGradient-5)" opacity="0.5"></path>
            <rect id="Rectangle" fill="#D1EAF8" fill-rule="nonzero" x="226" y="96" width="112" height="26" rx="2.36"></rect>
            <rect id="Rectangle" fill="#D1EAF8" fill-rule="nonzero" x="226" y="141" width="245" height="26" rx="2.36"></rect>
        </g>
    </g>
</svg>