<!-- Generated by IcoMoon.io -->
<svg version="1.1" xmlns="http://www.w3.org/2000/svg" width="320" height="512" viewBox="0 0 320 512">
<title></title>
<g id="icomoon-ignore">
</g>
<path fill="#616161" d="M128.001 460.8c0-17.6 14.4-31.999 31.999-31.999s31.999 14.4 31.999 31.999-14.4 31.999-31.999 31.999-31.999-14.4-31.999-31.999zM44.8 396.801v-281.599c0-6.799 6-12.798 12.798-12.798h204.799c6.799 0 12.798 6 12.798 12.798v281.599c0 6.799-6 12.798-12.798 12.798h-204.799c-6.799 0-12.798-6-12.798-12.798zM121.6 57.599c0-3.603 2.8-6.4 6.4-6.4h64c3.603 0 6.4 2.8 6.4 6.4s-2.8 6.4-6.4 6.4h-64c-3.603 0-6.4-2.8-6.4-6.4zM6.4 51.2v409.6c0 28 23.2 51.2 51.2 51.2h204.799c28 0 51.2-23.2 51.2-51.2v-409.6c0-28-23.2-51.2-51.2-51.2h-204.799c-28 0-51.2 23.2-51.2 51.2z"></path>
</svg>
