<?xml version="1.0" encoding="UTF-8"?>
<svg width="24px" height="24px" viewBox="0 0 24 24" version="1.1" xmlns="http://www.w3.org/2000/svg" xmlns:xlink="http://www.w3.org/1999/xlink">
    <title>Tools and Objects/Mobile</title>
    <g id="Tools-and-Objects/Mobile" stroke="none" stroke-width="1" fill="none" fill-rule="evenodd">
        <path d="M18,1 C18.5522847,1 19,1.44771525 19,2 L19,22 C19,22.5522847 18.5522847,23 18,23 L6,23 C5.44771525,23 5,22.5522847 5,22 L5,2 C5,1.44771525 5.44771525,1 6,1 L18,1 Z M12,20 C11.4477153,20 11,20.4477153 11,21 C11,21.5522847 11.4477153,22 12,22 C12.5522847,22 13,21.5522847 13,21 C13,20.4477153 12.5522847,20 12,20 Z M17,3 L7,3 L7,19 L17,19 L17,3 Z M15,5 L15,10 L9,16 L9,5 L15,5 Z" id="🎨-Change-color-here" fill="#1464A5"></path>
    </g>
</svg>