<svg id="Capa_1" data-name="Capa 1" xmlns="http://www.w3.org/2000/svg" xmlns:xlink="http://www.w3.org/1999/xlink" viewBox="0 0 600 600"><defs><style>.cls-1{fill:url(#Degradado_sin_nombre);}.cls-2{fill:#004481;}.cls-3{fill:url(#Degradado_sin_nombre_87);}.cls-4{fill:#d4edfc;}.cls-5{fill:#49a5e6;}.cls-6{fill:#043263;}.cls-7{fill:url(#Degradado_sin_nombre_13);}.cls-8{fill:#2dcccd;}.cls-9{fill:#da3951;}.cls-10{fill:#f8cd50;}.cls-11{fill:url(#Degradado_sin_nombre_4);}.cls-12{fill:url(#Degradado_sin_nombre_5);}.cls-13{fill:url(#Degradado_sin_nombre_6);}.cls-14{fill:url(#Degradado_sin_nombre_7);}.cls-15,.cls-18{fill:#028484;}.cls-16{fill:url(#Degradado_sin_nombre_8);}.cls-17{fill:#02a5a5;}.cls-18{opacity:0.8;isolation:isolate;}.cls-19{fill:none;}</style><linearGradient id="Degradado_sin_nombre" x1="218.09" y1="492.82" x2="469.25" y2="20.46" gradientTransform="matrix(1, 0, 0, -1, 0, 602)" gradientUnits="userSpaceOnUse"><stop offset="0" stop-color="#1c2645"/><stop offset="0" stop-color="#1c2645" stop-opacity="0.5"/><stop offset="1" stop-color="#1c2645" stop-opacity="0"/></linearGradient><linearGradient id="Degradado_sin_nombre_87" x1="494.84" y1="301.36" x2="236.65" y2="301.36" gradientTransform="matrix(1, 0, 0, -1, 0, 602)" gradientUnits="userSpaceOnUse"><stop offset="0" stop-color="#072146" stop-opacity="0.8"/><stop offset="1" stop-color="#072146" stop-opacity="0"/></linearGradient><linearGradient id="Degradado_sin_nombre_13" x1="174.06" y1="470.28" x2="326.37" y2="317.97" gradientTransform="matrix(1, 0, 0, -1, 0, 602)" gradientUnits="userSpaceOnUse"><stop offset="0" stop-color="#fff" stop-opacity="0.4"/><stop offset="1" stop-color="#ebf6f7" stop-opacity="0"/></linearGradient><linearGradient id="Degradado_sin_nombre_4" x1="-12452.14" y1="12402.39" x2="-12471.35" y2="12412.6" gradientTransform="matrix(-1, 0, 0, 1, -12122.1, -11961.38)" gradientUnits="userSpaceOnUse"><stop offset="0" stop-color="#eaf9fa" stop-opacity="0.4"/><stop offset="1" stop-color="#e8f7f8" stop-opacity="0.1"/><stop offset="1" stop-color="#eaf9fa" stop-opacity="0.5"/></linearGradient><linearGradient id="Degradado_sin_nombre_5" x1="-12494.68" y1="12402.39" x2="-12513.88" y2="12412.6" gradientTransform="matrix(-1, 0, 0, 1, -12122.1, -11961.38)" gradientUnits="userSpaceOnUse"><stop offset="0" stop-color="#eaf9fa" stop-opacity="0.7"/><stop offset="1" stop-color="#e8f7f8" stop-opacity="0.1"/><stop offset="1" stop-color="#eaf9fa" stop-opacity="0.5"/></linearGradient><linearGradient id="Degradado_sin_nombre_6" x1="-12537.2" y1="12402.36" x2="-12556.43" y2="12412.58" xlink:href="#Degradado_sin_nombre_4"/><linearGradient id="Degradado_sin_nombre_7" x1="296.76" y1="228.88" x2="211" y2="228.88" gradientTransform="matrix(1, 0, 0, -1, 0, 602)" gradientUnits="userSpaceOnUse"><stop offset="0" stop-color="#043263" stop-opacity="0.1"/><stop offset="1" stop-color="#043263" stop-opacity="0.05"/></linearGradient><linearGradient id="Degradado_sin_nombre_8" x1="255.7" y1="183.49" x2="198.8" y2="183.49" gradientTransform="matrix(1, 0, 0, -1, 0, 602)" gradientUnits="userSpaceOnUse"><stop offset="0" stop-color="#043263" stop-opacity="0.2"/><stop offset="1" stop-color="#043263" stop-opacity="0"/></linearGradient></defs><title>Cajero neutro</title><rect class="cls-1" x="148.83" y="136.39" width="389.68" height="417.94" rx="24.1"/><rect class="cls-2" x="105.16" y="91.68" width="389.68" height="417.94" rx="24.1"/><path class="cls-3" d="M470.74,91.68H465.3L236.65,509.61H470.74a24.1,24.1,0,0,0,24.1-24.1h0V115.78a24.1,24.1,0,0,0-24.1-24.1Z"/><rect class="cls-4" x="149.37" y="137.15" width="301.29" height="186.09" rx="5.49"/><rect class="cls-5" x="158.23" y="146.01" width="283.57" height="168.37" rx="2.66"/><rect class="cls-4" x="149.37" y="358.69" width="147.39" height="28.86" rx="2.66"/><path class="cls-6" d="M168.12,370.46H278a2.66,2.66,0,0,1,2.66,2.66h0a2.66,2.66,0,0,1-2.66,2.66H168.12a2.66,2.66,0,0,1-2.66-2.66h0A2.66,2.66,0,0,1,168.12,370.46Z"/><path class="cls-7" d="M160.89,146a2.66,2.66,0,0,0-2.66,2.66h0V311.72a2.66,2.66,0,0,0,2.66,2.66h0l135,.13,89.52-168.37Z"/><rect class="cls-4" x="332.2" y="358.69" width="33.67" height="29.24" rx="2.66"/><rect class="cls-4" x="374.74" y="358.69" width="33.67" height="29.24" rx="2.66"/><rect class="cls-4" x="417.28" y="358.69" width="33.67" height="29.24" rx="2.66"/><rect class="cls-4" x="332.2" y="396.79" width="33.67" height="29.24" rx="2.66"/><rect class="cls-4" x="374.74" y="396.79" width="33.67" height="29.24" rx="2.66"/><rect class="cls-4" x="417.28" y="396.79" width="33.67" height="29.24" rx="2.66"/><rect class="cls-8" x="417.28" y="434.9" width="33.67" height="29.24" rx="2.66"/><rect class="cls-9" x="332.2" y="434.9" width="33.67" height="29.24" rx="2.66"/><rect class="cls-10" x="374.74" y="434.9" width="33.67" height="29.24" rx="2.66"/><path class="cls-11" d="M334.86,464.14h7.52l15.5-29.24h-23a2.66,2.66,0,0,0-2.66,2.66h0v23.92A2.66,2.66,0,0,0,334.86,464.14Z"/><path class="cls-12" d="M377.4,464.14h7.51l15.51-29.24h-23a2.66,2.66,0,0,0-2.66,2.66h0v23.92A2.66,2.66,0,0,0,377.4,464.14Z"/><path class="cls-13" d="M419.93,464.14h7.52L443,434.9H420a2.66,2.66,0,0,0-2.65,2.66v23.92A2.66,2.66,0,0,0,419.93,464.14Z"/><path class="cls-14" d="M294.1,358.69H226.3L211,387.55h83.1a2.66,2.66,0,0,0,2.66-2.66h0V361.35a2.66,2.66,0,0,0-2.66-2.66Z"/><path class="cls-15" d="M190.46,372.87h65.2v88.62a2.66,2.66,0,0,1-2.66,2.66H193.12a2.66,2.66,0,0,1-2.66-2.66h0V372.87Z"/><path class="cls-16" d="M247.33,372.87,198.8,464.14h54.9a2,2,0,0,0,2-1.95V372.87Z"/><path class="cls-17" d="M213.28,459.16h0a1.72,1.72,0,0,1-1.7,1.72H195.45a1.72,1.72,0,0,1-1.73-1.71h0V443.05a1.72,1.72,0,0,1,1.71-1.73h0A17.76,17.76,0,0,1,213.28,459v.15Z"/><path class="cls-17" d="M232.84,459.16h0a1.72,1.72,0,0,0,1.72,1.72h16.11a1.72,1.72,0,0,0,1.73-1.71h0V443.05a1.72,1.72,0,0,0-1.71-1.73h0A17.76,17.76,0,0,0,232.84,459v.15Z"/><path class="cls-17" d="M204,372.87A22.37,22.37,0,0,0,200.47,385a22.6,22.6,0,1,0,41.62-12.16Z"/><rect class="cls-18" x="190.46" y="372.87" width="65.2" height="7.33"/><rect class="cls-19" width="600" height="600"/></svg>