<svg id="Contenido" xmlns="http://www.w3.org/2000/svg" xmlns:xlink="http://www.w3.org/1999/xlink" viewBox="0 0 600 600"><defs><style>.cls-1{fill:url(#Degradado_sin_nombre_7);}.cls-2{fill:#043263;}.cls-3{fill:#d4edfc;}.cls-4{fill:url(#Degradado_sin_nombre_37);}.cls-5{fill:#fff;}.cls-6{fill:#1464a5;}.cls-7{fill:#004481;}.cls-8{fill:#2dcccd;}.cls-9{fill:url(#Degradado_sin_nombre_3);}</style><linearGradient id="Degradado_sin_nombre_7" x1="237.25" y1="155.3" x2="454.86" y2="564.55" gradientUnits="userSpaceOnUse"><stop offset="0" stop-color="#192647"/><stop offset="0" stop-color="#192647" stop-opacity="0.5"/><stop offset="1" stop-color="#192647" stop-opacity="0"/></linearGradient><linearGradient id="Degradado_sin_nombre_37" x1="444.31" y1="292.8" x2="180.71" y2="292.8" gradientUnits="userSpaceOnUse"><stop offset="0" stop-color="#043263" stop-opacity="0.1"/><stop offset="1" stop-color="#043263" stop-opacity="0"/></linearGradient><linearGradient id="Degradado_sin_nombre_3" x1="412.25" y1="177.88" x2="323.04" y2="177.88" gradientUnits="userSpaceOnUse"><stop offset="0" stop-color="#028484" stop-opacity="0.8"/><stop offset="1" stop-color="#028484" stop-opacity="0"/></linearGradient></defs><title>_</title><path class="cls-1" d="M512.17,304.66l-14.74-10.27L497.15,174v0c0-.11,0-.21,0-.32a2.4,2.4,0,0,0,0-.28c0-.11-.07-.2-.1-.3a2,2,0,0,0-.08-.26,2.49,2.49,0,0,0-.15-.28,1.71,1.71,0,0,0-.13-.23,2.31,2.31,0,0,0-.2-.24,1.56,1.56,0,0,0-.16-.2,2,2,0,0,0-.28-.23l-.17-.14a2.85,2.85,0,0,0-.3-.16,1.39,1.39,0,0,0-.21-.11,2,2,0,0,0-.41-.13l-.15,0a2.91,2.91,0,0,0-.6-.06H208.55a3.24,3.24,0,0,0-3.24,3.24V294.74l-14.23,9.92a23,23,0,0,0-9.86,18.87V515a23,23,0,0,0,23,23H499a23,23,0,0,0,23-23V323.53A23,23,0,0,0,512.17,304.66Z"/><path class="cls-2" d="M137.45,250.66,298,138.88,458.55,250.66a23,23,0,0,1,9.86,18.87V328.7H127.59V269.53A23,23,0,0,1,137.45,250.66Z"/><path class="cls-3" d="M440.52,117H154.92a3.23,3.23,0,0,0-3.23,3.24v348H440.3a4,4,0,0,0,4-4l-.57-241.4L443.52,120A3,3,0,0,0,440.52,117Z"/><path class="cls-4" d="M371.31,117,180.71,468.61H440.35c2.19,0,4-2.24,4-4.43L443.52,120a3,3,0,0,0-3-3Z"/><path class="cls-5" d="M295.84,241H188.44a5,5,0,0,1,0-10h107.4a5,5,0,0,1,0,10Z"/><path class="cls-5" d="M295.84,261H188.44a5,5,0,1,1,0-10h107.4a5,5,0,0,1,0,10Z"/><path class="cls-5" d="M295.84,281H188.44a5,5,0,0,1,0-10h107.4a5,5,0,0,1,0,10Z"/><path class="cls-5" d="M407.33,316H188.44a5,5,0,0,1,0-10H407.33a5,5,0,0,1,0,10Z"/><path class="cls-5" d="M407.33,336H188.44a5,5,0,0,1,0-10H407.33a5,5,0,0,1,0,10Z"/><path class="cls-6" d="M295.84,361.06l-168.25-75.5V461a23,23,0,0,0,23,23H271a24.8,24.8,0,0,0,24.8-24.81Z"/><path class="cls-6" d="M300.16,361.06l168.25-75.5V461a23,23,0,0,1-23,23H325a24.8,24.8,0,0,1-24.8-24.81Z"/><path class="cls-7" d="M468.41,459.2,310.65,355.36a23,23,0,0,0-25.3,0L127.59,459.2V461a23,23,0,0,0,23,23H445.41a23,23,0,0,0,23-23Z"/><rect class="cls-5" x="328.91" y="230.86" width="83.34" height="50.38" rx="3"/><rect class="cls-8" x="183.75" y="149.72" width="228.5" height="56.33" rx="3"/><path class="cls-9" d="M409.25,149.72H353.57L323,206h86.21a3,3,0,0,0,3-3V152.72A3,3,0,0,0,409.25,149.72Z"/></svg>