<svg id="Contenido" xmlns="http://www.w3.org/2000/svg" xmlns:xlink="http://www.w3.org/1999/xlink" viewBox="0 0 600 600"><defs><style>.cls-1{fill:url(#Degradado_sin_nombre_7);}.cls-2{fill:url(#Degradado_sin_nombre_7-2);}.cls-3{fill:url(#Degradado_sin_nombre_7-3);}.cls-4{fill:url(#Degradado_sin_nombre_7-4);}.cls-5{fill:#2dcccd;}.cls-6{fill:#1464a5;}.cls-7{fill:#043263;}.cls-8{fill:url(#Degradado_sin_nombre_24);}</style><linearGradient id="Degradado_sin_nombre_7" x1="295.92" y1="117.52" x2="502.29" y2="505.66" gradientUnits="userSpaceOnUse"><stop offset="0" stop-color="#192647"/><stop offset="0" stop-color="#192647" stop-opacity="0.5"/><stop offset="1" stop-color="#192647" stop-opacity="0"/></linearGradient><linearGradient id="Degradado_sin_nombre_7-2" x1="310" y1="107.27" x2="515.63" y2="494" xlink:href="#Degradado_sin_nombre_7"/><linearGradient id="Degradado_sin_nombre_7-3" x1="323.89" y1="96.62" x2="529.2" y2="482.75" xlink:href="#Degradado_sin_nombre_7"/><linearGradient id="Degradado_sin_nombre_7-4" x1="240.1" y1="165.46" x2="447.06" y2="554.69" xlink:href="#Degradado_sin_nombre_7"/><linearGradient id="Degradado_sin_nombre_24" x1="453.97" y1="394.74" x2="231.38" y2="394.74" gradientUnits="userSpaceOnUse"><stop offset="0" stop-color="#043263" stop-opacity="0.6"/><stop offset="1" stop-color="#043263" stop-opacity="0.2"/></linearGradient></defs><title>GLOMO</title><path class="cls-1" d="M411.59,347.41a10,10,0,0,0,13.51-4.18A51.26,51.26,0,0,0,355.85,274a10,10,0,1,0,9.33,17.69,31.27,31.27,0,0,1,42.23,42.23A10,10,0,0,0,411.59,347.41Z"/><path class="cls-2" d="M442,363.44a9.89,9.89,0,0,0,4.65,1.16,10,10,0,0,0,8.86-5.34,86.35,86.35,0,0,0,9-52.15A85.64,85.64,0,0,0,392,234.58a86.23,86.23,0,0,0-52.16,9,10,10,0,1,0,9.33,17.69,65.65,65.65,0,0,1,88.68,88.67A10,10,0,0,0,442,363.44Z"/><path class="cls-3" d="M333.12,230.84a100.81,100.81,0,0,1,60.93-10.49A100,100,0,0,1,478.74,305,100.87,100.87,0,0,1,468.25,366a10,10,0,0,0,4.18,13.51,9.86,9.86,0,0,0,4.65,1.16,10,10,0,0,0,8.86-5.34,121,121,0,0,0,12.59-73.09A120,120,0,0,0,396.89,200.55a121,121,0,0,0-73.1,12.6,10,10,0,0,0,9.33,17.69Z"/><path class="cls-4" d="M500.86,433.06l-62.92-37.35a16.43,16.43,0,0,0-20.89,3.45l-3.79,4.43a2.42,2.42,0,0,0,.61,3.66l.12.07L392.46,432.5A11.72,11.72,0,0,1,377.63,435l-2.76-1.63c-8.92-5.24-21.63-14.23-33.3-22.83a246.14,246.14,0,0,1-52.08-52.09c-8.6-11.67-17.6-24.38-22.84-33.3L265,322.37a11.72,11.72,0,0,1,2.48-14.83L292.68,286l.07.12a2.42,2.42,0,0,0,3.66.61l4.43-3.79a16.43,16.43,0,0,0,3.45-20.89l-37.35-62.92a14.05,14.05,0,0,0-15-6.58l-9.49,2a2.42,2.42,0,0,0-1.58,3.6l.23.39-9.78,2.07A30.89,30.89,0,0,0,213,212.24L210,216.32a108.87,108.87,0,0,0-14.33,25.48,47.87,47.87,0,0,0-3.37,19h0a182.67,182.67,0,0,0,13.94,65.08h0a314.07,314.07,0,0,0,46.54,77.82l.78,1a290.36,290.36,0,0,0,41.77,41.77l1,.78a314.07,314.07,0,0,0,77.82,46.54h0a182.67,182.67,0,0,0,65.08,13.94h0a47.87,47.87,0,0,0,19-3.37A108.87,108.87,0,0,0,483.68,490l4.08-3.07a30.89,30.89,0,0,0,11.62-18.28l2.07-9.78.39.23a2.42,2.42,0,0,0,3.6-1.58l2-9.49A14.05,14.05,0,0,0,500.86,433.06Z"/><path class="cls-5" d="M366.25,298.57a9.9,9.9,0,0,1-4.66-1.16,10,10,0,0,1-4.18-13.51,31.27,31.27,0,0,0-42.23-42.23A10,10,0,1,1,305.85,224a51.26,51.26,0,0,1,69.25,69.25A10,10,0,0,1,366.25,298.57Z"/><path class="cls-5" d="M396.67,314.6a10,10,0,0,1-8.84-14.67,65.65,65.65,0,0,0-88.68-88.68,10,10,0,1,1-9.33-17.68,86.24,86.24,0,0,1,52.16-9,85.64,85.64,0,0,1,72.53,72.53,86.35,86.35,0,0,1-9,52.15A10,10,0,0,1,396.67,314.6Z"/><path class="cls-5" d="M427.08,330.63a9.86,9.86,0,0,1-4.65-1.16A10,10,0,0,1,418.25,316,100.87,100.87,0,0,0,428.74,255a100,100,0,0,0-84.69-84.69,100.81,100.81,0,0,0-60.93,10.49,10,10,0,0,1-9.33-17.69,121,121,0,0,1,73.1-12.6A120,120,0,0,1,448.53,252.2a121,121,0,0,1-12.59,73.09A10,10,0,0,1,427.08,330.63Z"/><path class="cls-6" d="M163,162.24,160,166.32a108.87,108.87,0,0,0-14.33,25.48h0a47.87,47.87,0,0,0-3.37,19h0a182.67,182.67,0,0,0,13.94,65.08h0a314.07,314.07,0,0,0,46.54,77.82l.78,1a290.36,290.36,0,0,0,41.77,41.77l1,.78a314.07,314.07,0,0,0,77.82,46.54h0a182.67,182.67,0,0,0,65.08,13.94h0a47.87,47.87,0,0,0,19-3.37h0A108.87,108.87,0,0,0,433.68,440l4.08-3.07a30.89,30.89,0,0,0,11.62-18.28l4.3-20.3a13.27,13.27,0,0,0-6.21-14.16L388.07,349a15.52,15.52,0,0,0-19.72,3.26L342.46,382.5A11.72,11.72,0,0,1,327.63,385l-2.76-1.63c-8.92-5.24-21.63-14.23-33.3-22.83a246.14,246.14,0,0,1-52.08-52.09c-8.6-11.67-17.6-24.38-22.84-33.3L215,272.37a11.72,11.72,0,0,1,2.48-14.83l30.28-25.89A15.52,15.52,0,0,0,251,211.93l-35.26-59.4a13.27,13.27,0,0,0-14.16-6.21l-20.3,4.3A30.89,30.89,0,0,0,163,162.24Z"/><path class="cls-7" d="M457.44,398.06a14.05,14.05,0,0,0-6.58-15l-62.92-37.35a16.43,16.43,0,0,0-20.89,3.45l-3.79,4.43a2.42,2.42,0,0,0,.61,3.66l88,51.88a2.42,2.42,0,0,0,3.6-1.58Z"/><path class="cls-7" d="M201.94,142.56a14.05,14.05,0,0,1,15,6.58l37.35,62.92A16.43,16.43,0,0,1,250.84,233l-4.43,3.79a2.42,2.42,0,0,1-3.66-.61l-51.88-88a2.42,2.42,0,0,1,1.58-3.6Z"/><path class="cls-8" d="M447.47,384.22,388.07,349a15.52,15.52,0,0,0-19.72,3.26L342.46,382.5A11.72,11.72,0,0,1,327.63,385l-2.76-1.63c-8.92-5.24-21.63-14.23-33.3-22.83A247,247,0,0,1,259,331.73l-27.62,52.62q6.76,6.27,13.92,12.12l1,.78a314.07,314.07,0,0,0,77.82,46.54h0a182.67,182.67,0,0,0,65.08,13.94h0a47.87,47.87,0,0,0,19-3.37A108.87,108.87,0,0,0,433.68,440l4.08-3.07a30.89,30.89,0,0,0,11.62-18.28l4.3-20.3A13.27,13.27,0,0,0,447.47,384.22Z"/></svg>