<svg xmlns="http://www.w3.org/2000/svg" xmlns:xlink="http://www.w3.org/1999/xlink" viewBox="0 0 600 600"><defs><style>.cls-1{fill:none;}.cls-2{fill:url(#Degradado_sin_nombre_502);}.cls-3{fill:#f8cd50;}.cls-4{fill:#2dcccd;}.cls-5{fill:url(#Degradado_sin_nombre_102);}.cls-6{fill:#004481;}.cls-7{fill:url(#Degradado_sin_nombre_114);}.cls-8{fill:#49a5e6;}.cls-9{opacity:0.5;isolation:isolate;fill:url(#Degradado_sin_nombre_100);}</style><linearGradient id="Degradado_sin_nombre_502" x1="213.66" y1="87.72" x2="443.63" y2="520.25" gradientTransform="translate(0 2)" gradientUnits="userSpaceOnUse"><stop offset="0" stop-color="#192647" stop-opacity="0.5"/><stop offset="1" stop-color="#192647" stop-opacity="0"/></linearGradient><linearGradient id="Degradado_sin_nombre_102" x1="490" y1="275.3" x2="386.2" y2="275.3" gradientTransform="translate(0 2)" gradientUnits="userSpaceOnUse"><stop offset="0" stop-color="#192647"/><stop offset="0" stop-color="#028484" stop-opacity="0.3"/><stop offset="1" stop-color="#028484" stop-opacity="0"/></linearGradient><linearGradient id="Degradado_sin_nombre_114" x1="335" y1="332.5" x2="265" y2="332.5" gradientTransform="translate(0 2)" gradientUnits="userSpaceOnUse"><stop offset="0" stop-color="#072146" stop-opacity="0.8"/><stop offset="1" stop-color="#072146" stop-opacity="0"/></linearGradient><linearGradient id="Degradado_sin_nombre_100" x1="280.86" y1="129.3" x2="296.09" y2="137.41" gradientTransform="translate(0 2)" gradientUnits="userSpaceOnUse"><stop offset="0" stop-color="#eaf9fa"/><stop offset="1" stop-color="#eaf9fa" stop-opacity="0.2"/><stop offset="1" stop-color="#eaf9fa" stop-opacity="0.5"/></linearGradient></defs><title>11</title><g id="Cuadrados_Blancos" data-name="Cuadrados Blancos"><rect class="cls-1" width="600" height="600"/></g><g id="Capa_67" data-name="Capa 67"><path class="cls-2" d="M540,367V331a23,23,0,0,0-15.2-21.6l-46.2-16.7V279.8a18.05,18.05,0,0,0-18-18h0a18,18,0,0,0-18,17.9L385,258.8V210.2a52.5,52.5,0,0,0-35-49.5,52.5,52.5,0,0,0-35,49.5v48.6l-57.6,20.9a18,18,0,1,0-36,0v13l-46.2,16.7A23,23,0,0,0,160,331v36l155-20.3V458.5l-41,22.3a18.27,18.27,0,0,0-9.5,16.1v12a2.43,2.43,0,0,0,2.4,2.4h55.7c1,1.9,2,3.7,3.1,5.5l19.4,31v18.6a5,5,0,0,0,10,0V547.8l19.4-31c1.1-1.8,2.2-3.7,3.1-5.5h55.7a2.43,2.43,0,0,0,2.4-2.4h0v-12a18.2,18.2,0,0,0-9.6-16l-41-22.3v-112Z"/><path class="cls-3" d="M189.4,210.7h0a18.05,18.05,0,0,1,18,18h0V289h-36V228.7a18.05,18.05,0,0,1,18-18Z"/><path class="cls-3" d="M410.6,210.7h0a18.05,18.05,0,0,1,18,18h0V289h-36V228.7a18.05,18.05,0,0,1,18-18Z"/><path class="cls-4" d="M287.6,395.1,224,429.8a18.27,18.27,0,0,0-9.5,16.1v12a2.43,2.43,0,0,0,2.4,2.4h70.8V395.1Z"/><path class="cls-4" d="M312.4,395.1,376,429.7a18.27,18.27,0,0,1,9.5,16.1v12a2.43,2.43,0,0,1-2.4,2.4H312.3V395.1Z"/><path class="cls-4" d="M270,206,125.2,258.4A23,23,0,0,0,110,280v36l160-21Z"/><path class="cls-4" d="M330,206l144.8,52.4A23,23,0,0,1,490,280v36L330,295Z"/><path class="cls-5" d="M490,280.1a23,23,0,0,0-15.2-21.6L420,238.6l-33.8,63.8L490,316Z"/><path class="cls-6" d="M300,109.7a52.5,52.5,0,0,0-35,49.5V428.6a70.43,70.43,0,0,0,10.6,37.1l22.6,36.1a2.11,2.11,0,0,0,2.9.7,2.34,2.34,0,0,0,.7-.7l22.6-36.1A69.53,69.53,0,0,0,335,428.6V159.2A52.5,52.5,0,0,0,300,109.7Z"/><path class="cls-7" d="M265,298.3V428.6a70.43,70.43,0,0,0,10.6,37.1l22.6,36.1a2.11,2.11,0,0,0,2.9.7,2.34,2.34,0,0,0,.7-.7l22.6-36.1A69.53,69.53,0,0,0,335,428.6V166.2Z"/><path class="cls-8" d="M300,142.8a34.62,34.62,0,0,1,23.5,9.1,2.09,2.09,0,0,0,3-.1,1.9,1.9,0,0,0,.5-1.9,45.68,45.68,0,0,0-27-32.7,45.68,45.68,0,0,0-27,32.7,2.21,2.21,0,0,0,1.6,2.5,2.51,2.51,0,0,0,1.9-.5A34.15,34.15,0,0,1,300,142.8Z"/><path class="cls-9" d="M300,117.2a45.68,45.68,0,0,0-27,32.7,2.21,2.21,0,0,0,1.6,2.5,2.51,2.51,0,0,0,1.9-.5,35.25,35.25,0,0,1,17.5-8.6l12.2-22.9A45.35,45.35,0,0,0,300,117.2Z"/><path class="cls-4" d="M300,427.3h0a5,5,0,0,1,5,5v83a5,5,0,0,1-5,5h0a5,5,0,0,1-5-5v-83A5,5,0,0,1,300,427.3Z"/></g></svg>