<?xml version="1.0" encoding="UTF-8"?>
<svg width="600px" height="600px" viewBox="0 0 600 600" version="1.1" xmlns="http://www.w3.org/2000/svg" xmlns:xlink="http://www.w3.org/1999/xlink">
    <title>qr_mobile_dark</title>
    <defs>
        <linearGradient x1="35.3278766%" y1="1.03578845%" x2="64.6721234%" y2="98.9642116%" id="linearGradient-1">
            <stop stop-color="#192647" stop-opacity="0.5" offset="0%"></stop>
            <stop stop-color="#192647" stop-opacity="0" offset="100%"></stop>
        </linearGradient>
        <linearGradient x1="29.2099936%" y1="22.3167926%" x2="67.325829%" y2="73.0101873%" id="linearGradient-2">
            <stop stop-color="#FFFFFF" stop-opacity="0.5" offset="0%"></stop>
            <stop stop-color="#ECF7F8" stop-opacity="0.1" offset="100%"></stop>
        </linearGradient>
    </defs>
    <g id="qr_mobile_dark" stroke="none" stroke-width="1" fill="none" fill-rule="evenodd">
        <g>
            <g id="Cuadrados_Blancos">
                <rect id="Rectangle" x="0" y="0" width="600" height="600"></rect>
            </g>
            <g id="Capa_9" transform="translate(185.000000, 96.000000)" fill-rule="nonzero">
                <path d="M76.1,51.85 L262.2,51.85 C274.515281,51.861034 284.494487,61.8447153 284.5,74.16 L284.5,438.89 C284.494487,451.205285 274.515281,461.188966 262.2,461.2 L76.1,461.2 C63.7847191,461.188966 53.8055127,451.205285 53.8,438.89 L53.8,74.16 C53.8055127,61.8447153 63.7847191,51.861034 76.1,51.85 Z" id="Path" fill="url(#linearGradient-1)"></path>
                <path d="M22.5,0.85 L207.4,0.85 C219.618157,0.866558264 229.511053,10.7818371 229.500009,23 L229.500009,385 C229.488973,397.200923 219.600923,407.088973 207.4,407.1 L22.5,407.1 C10.2990773,407.088973 0.411026598,397.200923 0.399888784,385 L0.399888784,23 C0.381405455,17.1307502 2.69513808,11.4945061 6.83219693,7.33119208 C10.9692558,3.1678781 16.59075,0.818535821 22.46,0.8 L22.5,0.85 Z" id="Path" fill="#043263"></path>
                <rect id="Rectangle" fill="#49A5E6" x="0.4" y="51.85" width="229.2" height="304.3"></rect>
                <polygon id="Path" fill="url(#linearGradient-2)" opacity="0.5" points="0.7 52.05 0.7 355.95 117.5 356.15 229.5 149.15 229.5 51.85"></polygon>
                <g id="Group" transform="translate(47.500000, 130.900000)">
                    <circle id="Oval" fill="#07467F" cx="66.9" cy="66.9" r="66.9"></circle>
                    <path d="M47.7,82.5 L52.6,82.5 C52.8146136,82.5145168 52.9854832,82.6853864 53,82.9 L53,87.8 C52.9854832,88.0146136 52.8146136,88.1854832 52.6,88.2 L47.7,88.2 C47.4853864,88.1854832 47.3145168,88.0146136 47.3,87.8 L47.3,82.9 C47.2907668,82.7913447 47.329934,82.6841495 47.4070418,82.6070418 C47.4841495,82.529934 47.5913447,82.4907668 47.7,82.5 Z" id="Path" fill="#2DCCCD"></path>
                    <path d="M82.6,82.5 C82.3853864,82.4854832 82.2145168,82.3146136 82.2,82.1 L82.2,82.1 L82.2,71.3 C82.1854832,71.0853864 82.0146136,70.9145168 81.8,70.9 L71,70.9 C70.7853864,70.9145168 70.6145168,71.0853864 70.6,71.3 L70.6,76.3 C70.6145168,76.5146136 70.7853864,76.6854832 71,76.7 L76,76.7 C76.2146136,76.7145168 76.3854832,76.8853864 76.4,77.1 L76.4,82 C76.3854832,82.2146136 76.2146136,82.3854832 76,82.4 L71,82.4 C70.7853864,82.4145168 70.6145168,82.5853864 70.6,82.8 L70.6,82.8 L70.6,93.6 C70.6145168,93.8146136 70.7853864,93.9854832 71,94 L76,94 C76.2146136,93.9854832 76.3854832,93.8146136 76.4,93.6 L76.4,88.6 C76.4145168,88.3853864 76.5853864,88.2145168 76.8,88.2 L87.6,88.2 C87.8146136,88.1854832 87.9854832,88.0146136 88,87.8 L88,87.8 L88,82.9 C87.9854832,82.6853864 87.8146136,82.5145168 87.6,82.5 L82.6,82.5 L82.6,82.5 Z" id="Path" fill="#2DCCCD"></path>
                    <path d="M88.4,70.8 L93.3,70.8 C93.5146136,70.8145168 93.6854832,70.9853864 93.7,71.2 L93.7,82 C93.6854832,82.2146136 93.5146136,82.3854832 93.3,82.4 L88.4,82.4 C88.1853864,82.3854832 88.0145168,82.2146136 88,82 L88,71.2 C88.0145168,70.9853864 88.1853864,70.8145168 88.4,70.8 Z" id="Path" fill="#2DCCCD"></path>
                    <path d="M93.8,82.9 L93.8,87.8 C93.7854832,88.0146136 93.6146136,88.1854832 93.4,88.2 L88.4,88.2 C88.1853864,88.2145168 88.0145168,88.3853864 88,88.6 L88,99.4 C88.0145168,99.6146136 88.1853864,99.7854832 88.4,99.8 L93.4,99.8 C93.6146136,99.7854832 93.7854832,99.6146136 93.8,99.4 L93.8,94.5 C93.8145168,94.2853864 93.9853864,94.1145168 94.2,94.1 L99.1,94.1 C99.3146136,94.0854832 99.4854832,93.9146136 99.5,93.7 L99.5,82.9 C99.4854832,82.6853864 99.3146136,82.5145168 99.1,82.5 L94.2,82.5 C94.0913447,82.4907668 93.9841495,82.529934 93.9070418,82.6070418 C93.829934,82.6841495 93.7907668,82.7913447 93.8,82.9 L93.8,82.9 Z" id="Path" fill="#2DCCCD"></path>
                    <path d="M76.8,94.1 L81.7,94.1 C81.9146136,94.1145168 82.0854832,94.2853864 82.1,94.5 L82.1,99.4 C82.0854832,99.6146136 81.9146136,99.7854832 81.7,99.8 L76.8,99.8 C76.5853864,99.7854832 76.4145168,99.6146136 76.4,99.4 L76.4,94.5 C76.3907668,94.3913447 76.429934,94.2841495 76.5070418,94.2070418 C76.5841495,94.129934 76.6913447,94.0907668 76.8,94.1 Z" id="Path" fill="#2DCCCD"></path>
                    <path d="M35.6,71.2 L35.6,99.4 C35.6145168,99.6146136 35.7853864,99.7854832 36,99.8 L64.2,99.8 C64.4146136,99.7854832 64.5854832,99.6146136 64.6,99.4 L64.6,71.2 C64.5854832,70.9853864 64.4146136,70.8145168 64.2,70.8 L36,70.8 C35.7853864,70.8145168 35.6145168,70.9853864 35.6,71.2 Z M58.5,94.1 L41.9,94.1 C41.6853864,94.0854832 41.5145168,93.9146136 41.5,93.7 L41.5,77.1 C41.5145168,76.8853864 41.6853864,76.7145168 41.9,76.7 L58.5,76.7 C58.7146136,76.7145168 58.8854832,76.8853864 58.9,77.1 L58.9,77.1 L58.9,93.7 C58.8854832,93.9146136 58.7146136,94.0854832 58.5,94.1 L58.5,94.1 Z" id="Shape" fill="#2DCCCD"></path>
                    <path d="M82.6,47.5 L87.5,47.5 C87.7146136,47.5145168 87.8854832,47.6853864 87.9,47.9 L87.9,52.8 C87.8854832,53.0146136 87.7146136,53.1854832 87.5,53.2 L82.6,53.2 C82.3853864,53.1854832 82.2145168,53.0146136 82.2,52.8 L82.2,47.9 C82.2145168,47.6853864 82.3853864,47.5145168 82.6,47.5 L82.6,47.5 Z" id="Path" fill="#2DCCCD"></path>
                    <path d="M70.5,36.4 L70.5,64.6 C70.5145168,64.8146136 70.6853864,64.9854832 70.9,65 L99.1,65 C99.3146136,64.9854832 99.4854832,64.8146136 99.5,64.6 L99.5,64.6 L99.5,36.4 C99.4854832,36.1853864 99.3146136,36.0145168 99.1,36 L70.9,36 C70.7,35.9 70.5,36.1 70.5,36.4 Z M93.3,59.2 L76.8,59.2 C76.5853864,59.1854832 76.4145168,59.0146136 76.4,58.8 L76.4,42.2 C76.4145168,41.9853864 76.5853864,41.8145168 76.8,41.8 L93.4,41.8 C93.6146136,41.8145168 93.7854832,41.9853864 93.8,42.2 L93.8,58.8 C93.7687133,59.0464872 93.5473431,59.2235833 93.3,59.2 L93.3,59.2 Z" id="Shape" fill="#2DCCCD"></path>
                    <path d="M47.7,47.5 L52.6,47.5 C52.8146136,47.5145168 52.9854832,47.6853864 53,47.9 L53,52.8 C52.9854832,53.0146136 52.8146136,53.1854832 52.6,53.2 L47.7,53.2 C47.4853864,53.1854832 47.3145168,53.0146136 47.3,52.8 L47.3,47.9 C47.3145168,47.6853864 47.4853864,47.5145168 47.7,47.5 L47.7,47.5 Z" id="Path" fill="#2DCCCD"></path>
                    <path d="M35.6,36.4 L35.6,64.6 C35.6145168,64.8146136 35.7853864,64.9854832 36,65 L64.2,65 C64.4146136,64.9854832 64.5854832,64.8146136 64.6,64.6 L64.6,64.6 L64.6,36.4 C64.5854832,36.1853864 64.4146136,36.0145168 64.2,36 L36,36 C35.8,35.9 35.6,36.1 35.6,36.4 Z M58.5,59.2 L41.9,59.2 C41.6853864,59.1854832 41.5145168,59.0146136 41.5,58.8 L41.5,42.2 C41.5145168,41.9853864 41.6853864,41.8145168 41.9,41.8 L58.5,41.8 C58.7146136,41.8145168 58.8854832,41.9853864 58.9,42.2 L58.9,58.8 C58.8854832,59.0146136 58.7146136,59.1854832 58.5,59.2 Z" id="Shape" fill="#2DCCCD"></path>
                </g>
            </g>
        </g>
    </g>
</svg>