<svg id="Contenido" xmlns="http://www.w3.org/2000/svg" xmlns:xlink="http://www.w3.org/1999/xlink" viewBox="0 0 600 600"><defs><style>.cls-1{fill:url(#Degradado_sin_nombre);}.cls-2{fill:url(#Degradado_sin_nombre_2);}.cls-3{fill:url(#Degradado_sin_nombre_3);}.cls-4{fill:url(#Degradado_sin_nombre_4);}.cls-5{fill:url(#Degradado_sin_nombre_5);}.cls-6{fill:url(#Degradado_sin_nombre_6);}.cls-7{fill:url(#Degradado_sin_nombre_7);}.cls-8{fill:#043263;}.cls-9{fill:#fff;}.cls-10{fill:#2dcccd;}.cls-11{fill:url(#Degradado_sin_nombre_9);}.cls-12{fill:url(#Degradado_sin_nombre_10);}.cls-13{fill:url(#Degradado_sin_nombre_11);}.cls-14{fill:none;}</style><linearGradient id="Degradado_sin_nombre" x1="192.63" y1="442.31" x2="394.54" y2="62.58" gradientTransform="matrix(1, 0, 0, -1, 0, 602)" gradientUnits="userSpaceOnUse"><stop offset="0" stop-color="#192647" stop-opacity="0.5"/><stop offset="1" stop-color="#192647" stop-opacity="0"/></linearGradient><linearGradient id="Degradado_sin_nombre_2" x1="137.66" y1="374" x2="339.56" y2="-5.73" xlink:href="#Degradado_sin_nombre"/><linearGradient id="Degradado_sin_nombre_3" x1="310.25" y1="545.09" x2="512.15" y2="165.36" xlink:href="#Degradado_sin_nombre"/><linearGradient id="Degradado_sin_nombre_4" x1="228.34" y1="467.48" x2="429.63" y2="88.9" xlink:href="#Degradado_sin_nombre"/><linearGradient id="Degradado_sin_nombre_5" x1="272.75" y1="540.65" x2="495.82" y2="121.12" xlink:href="#Degradado_sin_nombre"/><linearGradient id="Degradado_sin_nombre_6" x1="220.96" y1="593.25" x2="484.47" y2="97.65" xlink:href="#Degradado_sin_nombre"/><linearGradient id="Degradado_sin_nombre_7" x1="217.26" y1="437.15" x2="419.33" y2="57.12" xlink:href="#Degradado_sin_nombre"/><linearGradient id="Degradado_sin_nombre_9" x1="339.2" y1="440.01" x2="365.29" y2="413.91" gradientTransform="matrix(1, 0, 0, -1, 0, 602)" gradientUnits="userSpaceOnUse"><stop offset="0" stop-color="#fff" stop-opacity="0.5"/><stop offset="1" stop-color="#fff" stop-opacity="0"/></linearGradient><linearGradient id="Degradado_sin_nombre_10" x1="166.94" y1="440.01" x2="193.03" y2="413.91" xlink:href="#Degradado_sin_nombre_9"/><linearGradient id="Degradado_sin_nombre_11" x1="166.95" y1="267.51" x2="193.04" y2="241.41" xlink:href="#Degradado_sin_nombre_9"/></defs><title>QR</title><path class="cls-1" d="M175.26,317.32H301.57a8.38,8.38,0,0,0,8.38-8.38h0V182.63a8.39,8.39,0,0,0-8.38-8.37H175.26a8.39,8.39,0,0,0-8.38,8.37V308.94a8.38,8.38,0,0,0,8.38,8.38Z"/><rect class="cls-2" x="166.95" y="346.09" width="143.06" height="143.06" rx="8.38"/><rect class="cls-3" x="339.14" y="174.26" width="143.06" height="143.06" rx="8.38"/><path class="cls-4" d="M425.21,399.39a2.12,2.12,0,0,0-2-2H398.6a2.12,2.12,0,0,1-2-2V342.21a2.12,2.12,0,0,0-2-2H341.43a2.12,2.12,0,0,0-2,2v24.65a2.12,2.12,0,0,0,2,2h24.64a2.12,2.12,0,0,1,2,2V395a2.12,2.12,0,0,1-2,2H341.43a2.12,2.12,0,0,0-2,2v53.23a2.12,2.12,0,0,0,2,2h24.64a2.12,2.12,0,0,0,2-2V427.48a2.12,2.12,0,0,1,2-2H423.3a2.12,2.12,0,0,0,2-2Z"/><rect class="cls-5" x="425.21" y="345.91" width="28.09" height="57.17" rx="1.97"/><path class="cls-6" d="M479.92,403.57H455.77a1.81,1.81,0,0,0-2,1.6,2.67,2.67,0,0,0,0,.4V429.7a2.12,2.12,0,0,1-2,2H427.19a2.12,2.12,0,0,0-2,2v53.23a2.12,2.12,0,0,0,2,2h24.64a2.12,2.12,0,0,0,2-2V462.72a2.12,2.12,0,0,1,2-2H480a2.12,2.12,0,0,0,2-2V405.55A2.13,2.13,0,0,0,479.92,403.57Z"/><path class="cls-7" d="M394.16,460.75H370a1.8,1.8,0,0,0-2,1.57,1.55,1.55,0,0,0,0,.43V486.9a2.12,2.12,0,0,0,2,2h24.15a2.12,2.12,0,0,0,2-2V462.72A2.11,2.11,0,0,0,394.16,460.75Z"/><path class="cls-8" d="M117.79,119.22V245.54a8.39,8.39,0,0,0,8.38,8.37H252.48a8.39,8.39,0,0,0,8.38-8.37V119.22a8.39,8.39,0,0,0-8.38-8.37H126.17A8.39,8.39,0,0,0,117.79,119.22ZM226.21,227.71h-73.9a8.37,8.37,0,0,1-8.37-8.37h0v-73.9a8.37,8.37,0,0,1,8.36-8.38h73.91a8.38,8.38,0,0,1,8.38,8.38h0v73.9a8.38,8.38,0,0,1-8.38,8.38Z"/><path class="cls-8" d="M117.86,291.06V417.37a8.37,8.37,0,0,0,8.37,8.37H252.55a8.37,8.37,0,0,0,8.37-8.37h0V291.06a8.39,8.39,0,0,0-8.37-8.38H126.23A8.39,8.39,0,0,0,117.86,291.06ZM226.28,399.54H152.37a8.39,8.39,0,0,1-8.37-8.38v-73.9a8.39,8.39,0,0,1,8.37-8.38h73.91a8.39,8.39,0,0,1,8.37,8.38v73.9A8.39,8.39,0,0,1,226.28,399.54Z"/><path class="cls-8" d="M290.05,119.22V245.54a8.39,8.39,0,0,0,8.38,8.37H424.74a8.39,8.39,0,0,0,8.38-8.37V119.22a8.39,8.39,0,0,0-8.38-8.37H298.43A8.39,8.39,0,0,0,290.05,119.22ZM398.47,227.71h-73.9a8.39,8.39,0,0,1-8.37-8.38v-73.9a8.39,8.39,0,0,1,8.37-8.38h73.9a8.38,8.38,0,0,1,8.38,8.38h0v73.9a8.38,8.38,0,0,1-8.38,8.38Z"/><path class="cls-8" d="M349.51,340.16a2.12,2.12,0,0,1-2-2h0V285a2.12,2.12,0,0,0-2-2H292.34a2.12,2.12,0,0,0-2,2v24.65a2.12,2.12,0,0,0,2,2H317a2.12,2.12,0,0,1,2,2V337.7a2.12,2.12,0,0,1-2,2H292.34a2.12,2.12,0,0,0-2,2h0v53.23a2.11,2.11,0,0,0,2,2H317a2.11,2.11,0,0,0,2-2v-24.7a2.12,2.12,0,0,1,2-2h53.23a2.12,2.12,0,0,0,2-2h0V342.14a2.12,2.12,0,0,0-2-2H349.51Z"/><path class="cls-8" d="M378.1,282.5h24.15a2.12,2.12,0,0,1,2,2v53.2a2.12,2.12,0,0,1-2,2H378.1a2.12,2.12,0,0,1-2-2V284.47A2.11,2.11,0,0,1,378.1,282.5Z"/><path class="cls-8" d="M404.71,342.14v24.15a2.12,2.12,0,0,1-2,2H378.1a2.12,2.12,0,0,0-2,2v53.23a2.12,2.12,0,0,0,2,2h24.64a2.12,2.12,0,0,0,2-2V399.31a2.12,2.12,0,0,1,2-2h24.15a2.12,2.12,0,0,0,2-2V342.14a2.12,2.12,0,0,0-2-2H406.68a1.81,1.81,0,0,0-2,1.6,2.67,2.67,0,0,0,0,.4Z"/><path class="cls-8" d="M320.92,397.34h24.15a2.12,2.12,0,0,1,2,2v24.15a2.12,2.12,0,0,1-2,2H320.92a2.12,2.12,0,0,1-2-2V399.31a1.8,1.8,0,0,1,1.61-2A1.27,1.27,0,0,1,320.92,397.34Z"/><rect class="cls-9" x="316.2" y="137.05" width="90.65" height="90.65" rx="8.38"/><path class="cls-10" d="M344.07,159.2h35a5,5,0,0,1,5,5v35a5,5,0,0,1-5,5h-35a5,5,0,0,1-5-5v-35A5,5,0,0,1,344.07,159.2Z"/><path class="cls-11" d="M344.07,159.2h31.75l-26.64,45h-5.11a5,5,0,0,1-5-5v-35A5,5,0,0,1,344.07,159.2Z"/><rect class="cls-9" x="144" y="137.05" width="90.65" height="90.65" rx="8.38"/><path class="cls-10" d="M172.06,159.2h35a5,5,0,0,1,5,5v35a5,5,0,0,1-5,5h-35a5,5,0,0,1-5-5v-35A5,5,0,0,1,172.06,159.2Z"/><path class="cls-12" d="M171.81,159.2h31.75l-26.64,45h-5.11a5,5,0,0,1-5-5v-35A5,5,0,0,1,171.81,159.2Z"/><rect class="cls-9" x="144" y="308.88" width="90.65" height="90.65" rx="8.38"/><path class="cls-10" d="M171.87,331.7h35a5,5,0,0,1,5,5v35a5,5,0,0,1-5,5h-35a5,5,0,0,1-5-5v-35A5,5,0,0,1,171.87,331.7Z"/><path class="cls-13" d="M171.81,331.7h31.75l-26.64,45h-5.11a5,5,0,0,1-5-5v-35A5,5,0,0,1,171.81,331.7Z"/><rect class="cls-14" width="600" height="600"/></svg>