<svg id="Cuadrados_Blancos" data-name="Cuadrados Blancos" xmlns="http://www.w3.org/2000/svg" xmlns:xlink="http://www.w3.org/1999/xlink" viewBox="0 0 600 600"><defs><style>.cls-1{fill:none;}.cls-2{fill:url(#Degradado_sin_nombre_384);}.cls-3{fill:#028484;}.cls-4{fill:#052047;}.cls-5{fill:#004481;}.cls-6{fill:#1464a5;}.cls-7{fill:#003165;}.cls-8{fill:#49a5e6;}.cls-9{fill:#2dcccd;}.cls-10{fill:#f8cd50;}.cls-11{fill:url(#Degradado_sin_nombre_122);}.cls-12{fill:url(#Degradado_sin_nombre_153);}</style><linearGradient id="Degradado_sin_nombre_384" x1="260.67" y1="221.69" x2="443.12" y2="564.82" gradientUnits="userSpaceOnUse"><stop offset="0" stop-color="#1c2645" stop-opacity="0.5"/><stop offset="1" stop-color="#1c2645" stop-opacity="0"/></linearGradient><linearGradient id="Degradado_sin_nombre_122" x1="167.05" y1="375.86" x2="269.31" y2="478.12" gradientUnits="userSpaceOnUse"><stop offset="0" stop-color="#fff" stop-opacity="0.5"/><stop offset="1" stop-color="#fff" stop-opacity="0.2"/></linearGradient><linearGradient id="Degradado_sin_nombre_153" x1="507.05" y1="378.05" x2="241.05" y2="378.05" gradientUnits="userSpaceOnUse"><stop offset="0" stop-color="#028484" stop-opacity="0.4"/><stop offset="1" stop-color="#028484" stop-opacity="0.16"/></linearGradient></defs><title>11</title><rect class="cls-1" width="600" height="600"/><rect class="cls-1" width="600" height="600"/><path class="cls-2" d="M557.29,493H519.54a70.63,70.63,0,0,0-33-59.71l35.73-67.21A3.19,3.19,0,0,0,521,361.8l-3.76-2a3.19,3.19,0,0,0-4.32,1.32l-4.19,7.8-13.16-7a6.4,6.4,0,0,0-8.64,2.64l-57,107.18H368.69v-141c.24,0,.47.07.72.09l85.38,4.68a6.39,6.39,0,0,0,6.74-6.38V330a6.38,6.38,0,0,0,6,6.37l80.59,4.6a6.39,6.39,0,0,0,6.75-6.38V315.71c-18.17-53.33-100.55-120.36-186.21-123.06v-3.07a5.33,5.33,0,1,0-10.65,0v3.07c-85.65,2.7-168,69.73-186.21,123.06v18.85a6.39,6.39,0,0,0,6.75,6.38l80.6-4.6a6.38,6.38,0,0,0,6-6.37v-.82a6.39,6.39,0,0,0,6.74,6.38l85.39-4.68c.24,0,.48-.05.71-.09v141H308.52a6.39,6.39,0,0,0-6.38,6.39,6.39,6.39,0,0,0-6.39-6.39h-115a6.39,6.39,0,0,0-6.39,6.39V493h-7.45a3.19,3.19,0,0,0-3.2,3.19v4.26a3.2,3.2,0,0,0,3.2,3.2H185v18.12a3.19,3.19,0,0,0,3.19,3.19h4.26a3.19,3.19,0,0,0,3.19-3.19V503.69H358v18.1a3.19,3.19,0,0,0,3.2,3.19h4.26a3.19,3.19,0,0,0,3.19-3.19v-18.1H508.9v18.12a3.19,3.19,0,0,0,3.19,3.19h4.26a3.19,3.19,0,0,0,3.2-3.19V503.69h37.74a3.2,3.2,0,0,0,3.2-3.2v-4.26A3.19,3.19,0,0,0,557.29,493ZM454.8,493l26.73-50.28A60,60,0,0,1,508.9,493Z"/><path class="cls-3" d="M139,471.49h-4.26a3.19,3.19,0,0,1-3.19-3.19V444.86h10.65V468.3A3.19,3.19,0,0,1,139,471.49Z"/><path class="cls-3" d="M462.92,471.49h-4.26a3.19,3.19,0,0,1-3.2-3.19V444.86h10.65V468.3A3.19,3.19,0,0,1,462.92,471.49Z"/><path class="cls-3" d="M465.9,445.27l-10.62-.83c.12-1.55.18-3.15.18-4.73a60.05,60.05,0,0,0-32.28-53.34l4.94-9.43a70.68,70.68,0,0,1,38,62.77C466.11,441.57,466,443.44,465.9,445.27Z"/><path class="cls-4" d="M312.06,471.47H307.8a3.19,3.19,0,0,1-3.19-3.19V200.62h10.65V468.28A3.2,3.2,0,0,1,312.06,471.47Z"/><path class="cls-5" d="M258.45,246l-46.68,10.76v18.87a6.39,6.39,0,0,0,6.74,6.38l85.38-4.68a6.39,6.39,0,0,0,6-6.38V251.39Z"/><path class="cls-6" d="M165.08,251.44,118.39,262.2v18.85a6.39,6.39,0,0,0,6.76,6.38l80.59-4.59a6.4,6.4,0,0,0,6-6.38V256.88Z"/><path class="cls-6" d="M361.41,246l46.69,10.76v18.87a6.39,6.39,0,0,1-6.74,6.38L316,277.34a6.39,6.39,0,0,1-6-6.38V251.39Z"/><path class="cls-5" d="M454.78,251.44l46.69,10.76v18.85a6.39,6.39,0,0,1-6.75,6.38l-80.6-4.59a6.39,6.39,0,0,1-6-6.38V256.88Z"/><path class="cls-7" d="M309.93,168.86a5.32,5.32,0,0,1-5.32-5.32V136.07a5.33,5.33,0,0,1,10.65,0v27.47A5.33,5.33,0,0,1,309.93,168.86Z"/><path class="cls-8" d="M309.93,139.05c-87.54,0-173,68.72-191.54,123.15,37.61-6.1,54.78-6.56,93.38-5.32h0C223.57,219.46,257.89,164.11,309.93,139.05Z"/><path class="cls-6" d="M211.77,256.88c38.24-5.38,60.72-6.62,98.16-5.33V139.05C257.89,164.11,223.57,219.46,211.77,256.88Z"/><path class="cls-6" d="M309.93,139.05c87.54,0,173,68.72,191.54,123.15-37.61-6.1-54.78-6.56-93.37-5.32h0C396.29,219.46,362,164.11,309.93,139.05Z"/><path class="cls-8" d="M408.1,256.88c-38.24-5.38-60.73-6.62-98.17-5.33V139.05C362,164.11,396.29,219.46,408.1,256.88Z"/><path class="cls-9" d="M503.86,439.53H401.36l67.48-126.91a3.19,3.19,0,0,0-1.32-4.32l-3.76-2a3.19,3.19,0,0,0-4.32,1.32L389.3,439.53H113.48a3.2,3.2,0,0,0-3.2,3.2V447a3.19,3.19,0,0,0,3.2,3.19H503.86a3.19,3.19,0,0,0,3.19-3.19v-4.26A3.19,3.19,0,0,0,503.86,439.53Z"/><path class="cls-10" d="M455.25,315.42l-13.16-7a6.38,6.38,0,0,0-8.64,2.64l-57,107.17H255.09a6.39,6.39,0,0,0-6.39,6.39,6.39,6.39,0,0,0-6.39-6.39h-115a6.39,6.39,0,0,0-6.39,6.39v14.9H389.27v0Z"/><path class="cls-11" d="M255.09,418.24a6.39,6.39,0,0,0-6.39,6.39,6.39,6.39,0,0,0-6.39-6.39h-115a6.39,6.39,0,0,0-6.39,6.39v14.9h187l11.32-21.29Z"/><path class="cls-12" d="M503.86,439.53H401.36l67.48-126.91a3.19,3.19,0,0,0-1.32-4.32l-3.76-2a3.19,3.19,0,0,0-4.32,1.32L389.3,439.53H246.71l-5.66,10.65H503.86a3.19,3.19,0,0,0,3.19-3.19v-4.26A3.19,3.19,0,0,0,503.86,439.53Z"/></svg>