<?xml version="1.0" encoding="utf-8"?>
<!-- Generator: Adobe Illustrator 23.0.1, SVG Export Plug-In . SVG Version: 6.00 Build 0)  -->
<svg version="1.1" id="Capa_1" xmlns="http://www.w3.org/2000/svg" xmlns:xlink="http://www.w3.org/1999/xlink" x="0px" y="0px"
	 viewBox="0 0 600 600" style="enable-background:new 0 0 600 600;" xml:space="preserve">
<style type="text/css">
	.st0{fill:url(#SVGID_1_);}
	.st1{clip-path:url(#SVGID_3_);}
	.st2{fill:none;stroke:#BABABA;stroke-width:6.28;stroke-miterlimit:10;}
	.st3{clip-path:url(#SVGID_5_);}
	.st4{fill:#49A5E6;}
	.st5{fill:none;stroke:#1464A5;stroke-width:24.74;stroke-miterlimit:10;}
	.st6{clip-path:url(#SVGID_7_);}
	.st7{fill:none;}
	.st8{opacity:0.5;fill:url(#SVGID_8_);enable-background:new    ;}
	.st9{fill:#FFFFFF;}
	.st10{fill:#1464A5;}
	.st11{fill:#043263;}
	.st12{fill:#2DCCCD;}
	.st13{opacity:0.5;fill:url(#SVGID_9_);enable-background:new    ;}
	.st14{fill-rule:evenodd;clip-rule:evenodd;fill:#FFFFFF;}
</style>
<title>Mesa de trabajo 1 copia 22</title>
<linearGradient id="SVGID_1_" gradientUnits="userSpaceOnUse" x1="278.1954" y1="433.5233" x2="451.6046" y2="107.3949" gradientTransform="matrix(1 0 0 -1 0 600)">
	<stop  offset="0" style="stop-color:#192647"/>
	<stop  offset="0" style="stop-color:#192647;stop-opacity:0.5"/>
	<stop  offset="1" style="stop-color:#192647;stop-opacity:0"/>
</linearGradient>
<path class="st0" d="M543.2,229.7c0-40.9-33.1-74.1-74.1-74.1c-18.9,0-37,7.2-50.8,20.1c-24.6-11.6-51.4-17.6-78.6-17.6
	c-101.8,0-184.7,82.9-184.7,184.7S238,527.6,339.9,527.6s184.7-82.9,184.7-184.7c0-18.9-2.9-37.7-8.6-55.7
	C533.2,273.1,543.3,252,543.2,229.7z"/>
<g>
	<defs>
		<path id="SVGID_2_" d="M151.9,299.6c0,79.4,64.4,143.8,143.8,143.8S439.5,379,439.5,299.6s-64.4-143.8-143.8-143.8
			S151.9,220.2,151.9,299.6L151.9,299.6"/>
	</defs>
	<clipPath id="SVGID_3_">
		<use xlink:href="#SVGID_2_"  style="overflow:visible;"/>
	</clipPath>
	<g class="st1">
		<path class="st2" d="M295.7,443.4c79.4,0,143.8-64.4,143.8-143.8s-64.4-143.8-143.8-143.8s-143.8,64.4-143.8,143.8
			S216.3,443.4,295.7,443.4L295.7,443.4z"/>
	</g>
</g>
<g>
	<defs>
		<path id="SVGID_4_" d="M115.1,296.8c0,99.9,80.9,180.8,180.8,180.8s180.8-80.9,180.8-180.8s-80.9-180.8-180.8-180.8
			S115.1,197,115.1,296.8"/>
	</defs>
	<clipPath id="SVGID_5_">
		<use xlink:href="#SVGID_4_"  style="overflow:visible;"/>
	</clipPath>
	<g class="st3">
		<path class="st2" d="M295.9,477.6c99.9,0,180.8-80.9,180.8-180.8c0-99.9-80.9-180.8-180.8-180.8S115.1,197,115.1,296.9
			C115.1,396.7,196,477.6,295.9,477.6z"/>
	</g>
</g>
<path class="st4" d="M476.7,296.9c0,99.9-81,180.9-180.9,180.9c-99.9,0-180.9-81-180.9-180.9C115,197,196,116,295.9,116
	S476.7,197,476.7,296.9"/>
<path class="st5" d="M468.2,296.9c0,95.2-77.1,172.3-172.3,172.3c-95.2,0-172.3-77.1-172.3-172.3s77.1-172.3,172.3-172.3
	c0,0,0,0,0,0C391,124.5,468.2,201.7,468.2,296.9"/>
<g>
	<defs>
		<path id="SVGID_6_" d="M456.6,296.9c0,88.8-72,160.8-160.7,160.8c-88.8,0-160.8-72-160.8-160.7s72-160.8,160.7-160.8l0,0
			C384.6,136.1,456.6,208.1,456.6,296.9"/>
	</defs>
	<clipPath id="SVGID_7_">
		<use xlink:href="#SVGID_6_"  style="overflow:visible;"/>
	</clipPath>
	<g class="st6">
		<path class="st7" d="M375.9,157.4L215.2,435.9c76.9,44.4,175.2,18,219.6-58.9S452.8,201.8,375.9,157.4z"/>
		
			<linearGradient id="SVGID_8_" gradientUnits="userSpaceOnUse" x1="164.491" y1="430.561" x2="352.651" y2="242.411" gradientTransform="matrix(1 0 0 -1 0 600)">
			<stop  offset="0" style="stop-color:#FFFFFF;stop-opacity:0.5"/>
			<stop  offset="1" style="stop-color:#EDF8F9;stop-opacity:0.2"/>
			<stop  offset="1" style="stop-color:#FFFFFF;stop-opacity:0"/>
		</linearGradient>
		<path class="st8" d="M295.9,136.1c-88.8,0-160.8,72-160.7,160.8c0,57.3,30.5,110.3,80.1,139l160.7-278.5
			C351.5,143.4,323.9,136.1,295.9,136.1z"/>
	</g>
</g>
<circle class="st9" cx="295.9" cy="166.7" r="7.6"/>
<circle class="st9" cx="295.9" cy="427" r="7.6"/>
<circle class="st9" cx="426" cy="296.9" r="7.6"/>
<circle class="st9" cx="165.7" cy="296.9" r="7.6"/>
<circle class="st9" cx="230.8" cy="184.1" r="7.6"/>
<circle class="st9" cx="360.9" cy="409.6" r="7.6"/>
<circle class="st9" cx="408.6" cy="231.8" r="7.6"/>
<circle class="st9" cx="183.1" cy="361.9" r="7.6"/>
<circle class="st9" cx="183.1" cy="231.8" r="7.6"/>
<circle class="st9" cx="408.6" cy="361.9" r="7.6"/>
<circle class="st9" cx="360.9" cy="184.1" r="7.6"/>
<circle class="st9" cx="230.8" cy="409.6" r="7.6"/>
<polygon class="st10" points="309.3,314.8 282.3,313.9 281.7,189.3 309.3,207 "/>
<path class="st11" d="M353.5,322.9c6.9,3.1,10,11.3,6.9,18.2c-3.1,6.8-11.1,9.9-18,7l-53-23.4c-7-3.1-10.1-11.2-7.1-18.2
	c3.1-7,11.2-10.1,18.2-7L353.5,322.9z"/>
<path class="st12" d="M499.2,183.7c0,40.9-33.2,74.1-74.1,74.1S351,224.6,351,183.7s33.2-74.1,74.1-74.1c0,0,0,0,0,0
	C466.1,109.6,499.2,142.8,499.2,183.7C499.2,183.7,499.2,183.7,499.2,183.7"/>
<linearGradient id="SVGID_9_" gradientUnits="userSpaceOnUse" x1="384.5696" y1="478.6788" x2="438.8596" y2="376.5788" gradientTransform="matrix(1 0 0 -1 0 600)">
	<stop  offset="0" style="stop-color:#EAF9FA"/>
	<stop  offset="1" style="stop-color:#EAF9FA;stop-opacity:0.2"/>
	<stop  offset="1" style="stop-color:#EAF9FA;stop-opacity:0.5"/>
</linearGradient>
<path class="st13" d="M460,118.3c-35.9-19.6-81-6.4-100.6,29.5c-19.6,35.9-6.4,81,29.5,100.6c0.5,0.3,1,0.5,1.5,0.8"/>
<path class="st14" d="M467.8,203.3L443.6,224v-13.8h-41.4l13.8-13.8h27.6v-13.8L467.8,203.3z M385,168.8l24.1-20.7v13.8h41.4
	l-13.8,13.8h-27.6v13.8L385,168.8z"/>
</svg>
