<?xml version="1.0" encoding="utf-8"?>
<!-- Generator: Adobe Illustrator 23.0.1, SVG Export Plug-In . SVG Version: 6.00 Build 0)  -->
<svg version="1.1" id="Contenido" xmlns="http://www.w3.org/2000/svg" xmlns:xlink="http://www.w3.org/1999/xlink" x="0px" y="0px"
	 viewBox="0 0 600 600" style="enable-background:new 0 0 600 600;" xml:space="preserve">
<style type="text/css">
	.st0{fill:url(#SVGID_1_);}
	.st1{fill:url(#SVGID_2_);}
	.st2{fill:url(#SVGID_3_);}
	.st3{fill-rule:evenodd;clip-rule:evenodd;fill:url(#SVGID_4_);}
	.st4{fill-rule:evenodd;clip-rule:evenodd;fill:url(#SVGID_5_);}
	.st5{fill:#F1873E;}
	.st6{fill-rule:evenodd;clip-rule:evenodd;fill:#BA987C;}
	.st7{fill:#BA987C;}
	.st8{fill-rule:evenodd;clip-rule:evenodd;fill:url(#SVGID_6_);}
	.st9{fill-rule:evenodd;clip-rule:evenodd;fill:#49A5E6;}
	.st10{fill:#D4EDFC;}
	.st11{fill:#028484;}
	.st12{fill:#02A5A5;}
	.st13{fill:#EAF9FA;}
	.st14{fill-rule:evenodd;clip-rule:evenodd;fill:#E1D0C3;}
	.st15{fill:#E1D0C3;}
	.st16{fill-rule:evenodd;clip-rule:evenodd;fill:url(#SVGID_7_);}
	.st17{fill-rule:evenodd;clip-rule:evenodd;fill:#2DCCCD;}
	.st18{fill:url(#SVGID_8_);}
	.st19{fill:#5AC4C4;}
	.st20{fill:url(#SVGID_9_);}
	.st21{fill:url(#SVGID_10_);}
	.st22{fill:#E09973;}
	.st23{fill:#F7B27F;}
	.st24{fill-rule:evenodd;clip-rule:evenodd;fill:#F7B27F;}
	.st25{fill-rule:evenodd;clip-rule:evenodd;fill:url(#SVGID_11_);}
	.st26{fill-rule:evenodd;clip-rule:evenodd;fill:#1464A5;}
	.st27{fill:#49A5E6;}
	.st28{fill-rule:evenodd;clip-rule:evenodd;fill:url(#SVGID_12_);}
	.st29{fill-rule:evenodd;clip-rule:evenodd;fill:url(#SVGID_13_);}
	.st30{fill-rule:evenodd;clip-rule:evenodd;fill:url(#SVGID_14_);}
	.st31{fill:#EECC67;}
	.st32{fill:#FBF3DC;}
	.st33{fill:url(#SVGID_15_);}
	.st34{fill-rule:evenodd;clip-rule:evenodd;fill:url(#SVGID_16_);}
	.st35{fill-rule:evenodd;clip-rule:evenodd;fill:url(#SVGID_17_);}
	.st36{fill:url(#SVGID_18_);}
	.st37{fill-rule:evenodd;clip-rule:evenodd;fill:url(#SVGID_19_);}
	.st38{fill:url(#SVGID_20_);}
	.st39{fill:url(#SVGID_21_);}
	.st40{fill:url(#SVGID_22_);}
	.st41{fill:url(#SVGID_23_);}
	.st42{fill-rule:evenodd;clip-rule:evenodd;fill:url(#SVGID_24_);}
	.st43{fill-rule:evenodd;clip-rule:evenodd;fill:#FADE8E;}
	.st44{fill-rule:evenodd;clip-rule:evenodd;fill:url(#SVGID_25_);}
	.st45{fill-rule:evenodd;clip-rule:evenodd;fill:#D4EDFC;}
	.st46{fill-rule:evenodd;clip-rule:evenodd;fill:#043263;}
	.st47{fill:#F2969A;}
	.st48{fill:#043263;}
	.st49{fill-rule:evenodd;clip-rule:evenodd;fill:url(#SVGID_26_);}
	.st50{fill:#FACBA9;}
	.st51{fill:url(#SVGID_27_);}
	.st52{fill:url(#SVGID_28_);}
	.st53{fill:url(#SVGID_29_);}
	.st54{fill:url(#SVGID_30_);}
	.st55{fill-rule:evenodd;clip-rule:evenodd;fill:url(#SVGID_31_);}
	.st56{fill:none;}
</style>
<g>
	<linearGradient id="SVGID_1_" gradientUnits="userSpaceOnUse" x1="39.6087" y1="80.7849" x2="332.1137" y2="630.9067">
		<stop  offset="0" style="stop-color:#1C2645"/>
		<stop  offset="0" style="stop-color:#1C2645;stop-opacity:0.5"/>
		<stop  offset="1" style="stop-color:#1C2645;stop-opacity:0"/>
	</linearGradient>
	<path class="st0" d="M313,317.2c0.1-0.1,0.1-0.1,0.2-0.1c0,0,0,0,0,0c0.3-0.3,0.6-0.6,0.9-0.9c0,0,0-0.1,0.1-0.1
		c0.5-0.5,0.9-1.1,1.2-1.7c0.1-0.2,0.2-0.3,0.2-0.5c0.3-0.6,0.6-1.2,0.8-1.8c0,0,0,0,0,0c0-0.1,0.1-0.2,0.1-0.4c0,0,0,0,0,0
		c0.1-0.3,0.2-0.7,0.3-1c0,0,0,0,0,0c0-0.1,0-0.1,0-0.2c0.1-0.4,0.2-0.9,0.2-1.3c0,0,0,0,0,0c0,0,0,0,0,0c0-0.3,0-0.5,0-0.8
		c0,0,0,0,0,0c0-0.3,0-0.5,0-0.7c0-0.2,0-0.3,0-0.4c0,0,0,0,0,0c0-0.3,0-0.5,0-0.8c0,0,0,0,0,0c0-0.4-0.1-0.9-0.2-1.3c0,0,0,0,0,0
		c0-0.1,0-0.1-0.1-0.2c0,0,0,0,0,0c-0.1-0.2-0.1-0.5-0.2-0.7c-0.1-0.3-0.2-0.7-0.3-1c-0.1-0.1-0.1-0.3-0.2-0.4c0,0,0,0,0,0
		c-0.1-0.2-0.1-0.3-0.2-0.5c0,0,0,0,0,0c-0.1-0.2-0.2-0.4-0.3-0.6c0,0,0,0,0,0c-2.2-4.1-6.5-6.9-11.5-6.9c-2.5,0-4.8,0.7-6.8,1.9
		c-1.3,0.8-2.9-0.2-2.9-1.7v-13.7h-76.4c-1.6,0-2.9,1.3-2.9,2.9v21c-3.2-0.1-6.3-0.1-9.5,0c-8.1,0.5-17.8,2.4-29.4,10.2
		c-11.6,7.7-25.4,41.7-33.1,45.6c-0.9,0.5-2.4,1.2-3.5,1.8c-0.4-0.6-0.9-1.3-1.3-1.9c-1.3-1.8-3.7-2.5-5.7-1.6l-10.4,4.1
		c-2.1-2.5-5.6-3.4-8.7-2.2l-51.4,20.4c-6.1,2.4-8.5,9.8-5,15.3c4.8,7.7,9.3,16.3,13,25.6c3.7,9.3,6.4,18.6,8.2,27.5
		c1.3,6.5,8.1,10.2,14.2,7.8l51.4-20.4c3-1.2,4.9-4.1,4.9-7.3l10.5-4.2c2.1-0.8,3.3-2.9,3-5.1c-0.2-1.3-0.4-2.6-0.6-3.9
		c1.6-0.8,4.7-2.3,7.8-3.9c4.4-2.2,18.9,0.2,32.5-5c8.5-3.2,15.6-10.1,19.7-14.8c0.1-0.1,0.1-0.1,0.2-0.2c1.5-1.5,5.2-3.7,9.9-5.9
		h62.9v-13.5c0-1.5-1.6-2.4-2.9-1.7c-2,1.2-4.3,1.9-6.8,1.9c-6.1,0-11.2-4.2-12.6-9.8c0.2,0,0.5,0,0.7,0c7.3,0.4,13.3-5.5,13.1-12.8
		c0-1.2-0.2-2.4-0.6-3.4c1.4,0.1,2.8,0.4,4.1,0.9c0.7,0.3,1.4,0.6,2,1c1.3,0.8,2.9-0.1,2.9-1.7v0v-2.3c5.4-1.4,9.4-6.4,9.2-12.4
		c-0.2-5.6-4-10.3-9.2-11.6v-0.9c0-1.6,1.8-2.6,3.2-1.8c1.8,1.1,4,1.7,6.3,1.8c0,0,0.1,0,0.1,0c0,0,0,0,0.1,0c0.5,0,1,0,1.5-0.1
		c0.9-0.1,1.7-0.3,2.5-0.5c0,0,0,0,0,0c0.1,0,0.2-0.1,0.3-0.1c0.3-0.1,0.5-0.2,0.8-0.3c0,0,0,0,0,0c0.2-0.1,0.4-0.1,0.5-0.2
		c0,0,0,0,0,0C310.9,318.9,312,318.1,313,317.2z"/>
	<linearGradient id="SVGID_2_" gradientUnits="userSpaceOnUse" x1="286.0048" y1="-52.3769" x2="579.6482" y2="499.886">
		<stop  offset="0" style="stop-color:#1C2645"/>
		<stop  offset="0" style="stop-color:#1C2645;stop-opacity:0.5"/>
		<stop  offset="1" style="stop-color:#1C2645;stop-opacity:0"/>
	</linearGradient>
	<path class="st1" d="M326.5,285.4c0.2,1.5,2,2.2,3.2,1.2c2.1-1.7,4.8-2.7,7.8-2.8c4.3-0.1,8.4,2.1,10.8,5.5
		c0.1,0.2,0.3,0.4,0.4,0.5c0.1,0.1,0.2,0.3,0.3,0.4c0.1,0.2,0.3,0.5,0.4,0.7c0.1,0.1,0.1,0.2,0.2,0.4c0.1,0.3,0.3,0.6,0.4,1
		c0,0.1,0.1,0.1,0.1,0.2c0.1,0.4,0.3,0.8,0.4,1.2c0,0,0,0,0,0c0.1,0.3,0.1,0.6,0.2,0.9c0,0.2,0.1,0.4,0.1,0.6c0,0,0,0,0,0
		c0,0.2,0,0.4,0,0.6c0,0.3,0.1,0.5,0.1,0.8c0,0.4,0,0.9,0,1.3c0,0.1,0,0.1,0,0.2c0,0.3-0.1,0.7-0.1,1c0,0.1-0.1,0.3-0.1,0.4
		c-0.1,0.3-0.1,0.5-0.2,0.8c0,0.2-0.1,0.3-0.1,0.5c0,0.1-0.1,0.2-0.1,0.3c0,0.1-0.1,0.2-0.1,0.3c-0.2,0.4-0.3,0.8-0.5,1.2
		c0,0,0,0,0,0c-0.2,0.4-0.4,0.8-0.6,1.1c0,0-0.1,0.1-0.1,0.1c-0.2,0.3-0.4,0.5-0.5,0.8c0,0-0.1,0.1-0.1,0.1c0,0,0,0,0,0.1
		c-0.2,0.2-0.4,0.5-0.6,0.7c0,0,0,0,0,0c0,0,0,0-0.1,0.1c-0.7,0.7-1.4,1.3-2.1,1.9c-0.1,0.1-0.3,0.2-0.4,0.3
		c-0.2,0.1-0.3,0.2-0.5,0.3c-0.1,0.1-0.2,0.1-0.4,0.2c-0.1,0-0.2,0.1-0.3,0.1c-0.1,0.1-0.3,0.1-0.4,0.2c-0.3,0.1-0.5,0.2-0.8,0.3
		c-0.1,0-0.2,0.1-0.3,0.1c-0.4,0.1-0.8,0.3-1.2,0.4c0,0,0,0,0,0c-0.1,0-0.1,0-0.2,0l0,0c-0.4,0.1-0.8,0.2-1.2,0.2c0,0-0.1,0-0.1,0
		c-0.2,0-0.4,0-0.5,0c-0.3,0-0.6,0-1,0c-0.2,0-0.4,0-0.6,0c-0.3,0-0.6,0-0.9-0.1c-0.2,0-0.4-0.1-0.6-0.1c-0.3,0-0.6-0.1-0.8-0.2
		c-0.2,0-0.4-0.1-0.6-0.2c-0.3-0.1-0.5-0.2-0.8-0.3c-0.2-0.1-0.4-0.1-0.6-0.2c0,0-0.1-0.1-0.2-0.1c-1.2-0.7-2.7,0.1-2.9,1.4
		c0,0.1,0,0.2,0,0.3c0,0.1,0,0.2,0,0.3l0,0c0,0,0,0,0,0l1.8,13.8l45.5-5.8c0.2,4.5,2.8,8.8,7.1,10.9c6.7,3.2,14.7,0.1,17.3-6.8
		c0.3-0.9,0.7-1.8,1.1-2.7c-0.5,1.6-0.6,3.4-0.4,5.2c1,7.6,8.3,12.8,16,11c5.9-1.4,10-6.9,9.9-12.9c-0.1-3-1.1-5.7-2.8-7.8
		c-0.1-0.2-0.2-0.4-0.3-0.5c0.2-0.4,0.4-0.7,0.5-1.1c0.2-0.4,0.3-0.9,0.5-1.3c0.2-0.1,0.3-0.1,0.5-0.1l0.1,0
		c1.6,5.5,7.8,8.3,13.1,5.7c3.1-1.5,5-4.6,5.1-8l14-1.8l-2.1-16.6c7-6.2,13.9-11.9,17.2-13.2c0.1,0,0.2-0.1,0.2-0.1
		c6-1.8,15.4-5.5,22-12.1c10.5-10.5,14.3-24.9,18.2-28.1c2.7-2.2,5.5-4.4,6.9-5.6c1.1,0.8,2.3,1.5,3.4,2.2c1.9,1.2,4.4,0.9,6-0.7
		l37-34.1c4.2-4.1,3.7-11-1.1-14.4c-6.6-4.7-13.1-10.3-19.3-16.7c-6.2-6.4-11.6-13.2-16-19.9c-3.2-4.9-10.1-5.7-14.3-1.6l-37,34.1
		c-1.6,1.6-2,4-0.9,6c0.4,0.7,0.8,1.3,1.2,2c-1,0.8-2.3,1.9-3.1,2.5c-6.8,5.5-44.1,4.1-56.1,11.6c-12,7.5-17.9,15.7-21.7,23
		c-6.2,12.6-10.9,26.2-14.3,37.3l-59.9,7.7L326.5,285.4z"/>
	<linearGradient id="SVGID_3_" gradientUnits="userSpaceOnUse" x1="218.979" y1="-14.3377" x2="511.2315" y2="535.3093">
		<stop  offset="0" style="stop-color:#1C2645"/>
		<stop  offset="0" style="stop-color:#1C2645;stop-opacity:0.5"/>
		<stop  offset="1" style="stop-color:#1C2645;stop-opacity:0"/>
	</linearGradient>
	<path class="st2" d="M574,450.5l-44-24.2c-2-1-4.5-0.6-6,1.1c-0.5,0.6-1,1.2-1.5,1.8c-1.1-0.7-2.5-1.6-3.4-2.2
		c-7.4-4.7-17.9-40.5-28.8-49.5c-10.9-9-20.6-12-28.7-13.3c-19-2.5-38.9-2-51.3-1.2c-0.2-0.4-0.6-0.7-1.1-0.8L342,341.5l-4,13
		c-0.4,1.5-2.3,1.8-3.3,0.7c-0.5-0.6-1-1.1-1.6-1.5c0,0,0,0,0,0c0,0,0,0,0,0c-1.6-1.2-3.5-2.2-5.6-2.6c-5.9-1.2-12,2-14.4,7.6
		c-3.1,7.2,0.8,15.4,8.1,17.6c2.4,0.7,4.8,0.7,7,0.2c1.5-0.4,2.7,1,2.3,2.4l-4,13l49,15c1.2,5.4,5.9,9.7,11.8,9.9
		c0.8,0,1.7,0.1,2.6,0.1c-5.4,3-6.4,10.3-2,14.7c2.7,2.7,6.6,3.5,10.1,2l4.1-1.7c1.3,0.7,2.8,1.5,4.3,2.3c0.6,0.3,1.3,0.1,1.6-0.5
		c0,0,0-0.1,0-0.1c10.9,5.9,25.1,13.9,28.2,17.8c0.1,0.1,0.1,0.1,0.2,0.2c3.7,5.1,10.1,12.8,18.4,17c13.2,6.6,28.1,5.7,32.4,8.4
		c3,1.9,5.9,3.8,7.5,4.7c-0.4,1.3-0.7,2.6-1,3.9c-0.5,2.2,0.5,4.5,2.5,5.5l44,24.2c5.2,2.7,11.6,0,13.3-5.6
		c2.3-7.7,5.6-15.7,9.7-23.6c4.1-7.9,8.8-15.2,13.8-21.5C580.7,460,579.2,453.2,574,450.5z M405.6,374.8c0,0-0.1,0-0.1,0
		c0,0,0-0.1,0-0.1L405.6,374.8z"/>
</g>
<g>
	<path class="st22" d="M386.6,227.3c0.1,0.2-11.4,25.9-18.3,41.2c-2.8,6.2-0.1,13.6,6,16.5h0c6.7,3.2,14.7,0.1,17.3-6.8
		c5.4-14.2,14.1-35.4,18.6-39.2c6.8-5.8,16.2-12.3,18.1-18C430.3,215.3,386.6,227.3,386.6,227.3z"/>
	<path class="st23" d="M362.6,236.2c0.1,0.2-11.4,25.9-18.3,41.2c-2.8,6.2-0.1,13.6,6,16.5l0,0c6.7,3.2,14.7,0.1,17.3-6.8
		c5.4-14.2,14.1-35.4,18.6-39.2c6.8-5.8,16.2-12.3,18.1-18C406.3,224.2,362.6,236.2,362.6,236.2z"/>
	<path class="st24" d="M381.4,209.7l36.8,16.3l-9.4,17.1l2.1,30.4c0.3,3.7-1.8,7.3-5.1,9l0,0c-5.6,2.8-12.3-0.6-13.3-6.8
		L381.4,209.7z"/>
	<path class="st23" d="M447.9,152.7c0,0-3.2,2.6-4.8,3.9c-6.8,5.5-44.1,4.1-56.1,11.6c-12,7.5-17.9,15.7-21.7,23
		c-13.5,27.7-20.4,60.4-20.4,60.4l63.6-19.7l25.9,12.4c0,0,17.5-3.2,27.9-13.6s14.3-24.9,18.2-28.1c3.9-3.2,7.8-6.4,7.8-6.4
		L447.9,152.7z"/>
	
		<linearGradient id="SVGID_4_" gradientUnits="userSpaceOnUse" x1="-8423.7686" y1="-780.791" x2="-8416.9707" y2="-753.8637" gradientTransform="matrix(0.6152 -0.7883 0.7883 0.6152 6193.9199 -5949.3438)">
		<stop  offset="0" style="stop-color:#A68667"/>
		<stop  offset="1" style="stop-color:#A68667;stop-opacity:0"/>
	</linearGradient>
	<circle class="st3" cx="407.9" cy="216.5" r="14.4"/>
	<path class="st43" d="M482.9,111.9c4.2-4.1,11.1-3.3,14.3,1.6c4.4,6.7,9.8,13.5,16,19.9s12.8,12,19.3,16.7
		c4.8,3.4,5.3,10.3,1.1,14.4l-37,34.1c-1.6,1.6-4.1,1.8-6,0.7c-8.7-5.4-17.4-12.4-25.6-20.9c-8.2-8.5-14.9-17.5-20-26.3
		c-1.1-2-0.8-4.4,0.9-6L482.9,111.9z"/>
</g>
<g>
	<path class="st22" d="M195.6,303.3c0.2,0.1,27.8,0.2,44.2,0.3c6.7,0,12.2,5.4,12.4,12.1v0c0.2,7.3-5.9,13.2-13.1,12.8
		c-14.9-0.8-37.4-1.6-42.6,0.8c-7.9,3.7-17.6,9.5-23.5,9C167.2,337.6,195.6,303.3,195.6,303.3z"/>
	<path class="st23" d="M213.2,285.4c0.2,0.1,27.8,0.2,44.2,0.3c6.7,0,12.2,5.4,12.4,12.1v0c0.2,7.3-5.9,13.2-13.1,12.8
		c-14.9-0.8-37.4-1.6-42.6,0.8c-7.9,3.7-17.6,9.5-23.5,9C184.8,319.7,213.2,285.4,213.2,285.4z"/>
	<path class="st24" d="M180.1,295l3.1,29.7l42,22.5c3.3,1.7,7.2,1.4,10.1-1h0c4.8-3.9,4.4-11.3-0.7-14.7L180.1,295z"/>
	<path class="st23" d="M103.9,328c0,0,3.7-1.8,5.4-2.7c7.7-3.9,21.5-37.8,33.1-45.6c11.6-7.7,21.3-9.7,29.4-10.2
		c30.3-0.9,62.3,6.1,62.3,6.1l-43.3,49l0.6,28.1c0,0-9.9,14.4-23.5,19.5c-13.6,5.1-28,2.8-32.5,5s-8.9,4.5-8.9,4.5L103.9,328z"/>
	
		<linearGradient id="SVGID_5_" gradientUnits="userSpaceOnUse" x1="-7989.6118" y1="-757.7352" x2="-7982.9346" y2="-731.2864" gradientTransform="matrix(-0.9716 0.2368 0.2368 0.9716 -7405.6704 2933.0251)">
		<stop  offset="0" style="stop-color:#A68667"/>
		<stop  offset="1" style="stop-color:#A68667;stop-opacity:0"/>
	</linearGradient>
	<circle class="st4" cx="177.2" cy="318.1" r="14.2"/>
	<path class="st45" d="M79.5,331.3c-5.4,2.1-7.4,8.6-4.4,13.5c4.2,6.7,8.1,14.2,11.3,22.4c3.2,8.2,5.6,16.3,7.1,24.1
		c1.1,5.7,7.1,8.9,12.4,6.8l19.3-7.7c2.1-0.8,3.3-2.9,3-5.1c-1.3-9.9-4.1-20.6-8.3-31.4c-4.3-10.8-9.6-20.4-15.5-28.6
		c-1.3-1.8-3.7-2.5-5.7-1.6L79.5,331.3z"/>
	<path class="st26" d="M28.2,346c-6.1,2.4-8.5,9.8-5,15.3c4.8,7.7,9.3,16.3,13,25.6c3.7,9.3,6.4,18.6,8.2,27.5
		c1.3,6.5,8.1,10.2,14.2,7.8l51.4-20.4c3.3-1.3,5.3-4.8,4.8-8.4c-1.6-10.8-4.6-22.4-9.3-34c-4.6-11.7-10.4-22.2-16.6-31.1
		c-2.1-2.9-5.9-4.1-9.2-2.7L28.2,346z"/>
	<circle class="st46" cx="93.5" cy="388.1" r="5.8"/>
</g>
<g>
	<path class="st12" d="M250.9,338.2c-7.7,0-13.8-6.6-12.9-14.5c0.7-6,5.5-10.8,11.5-11.5c3-0.3,5.8,0.4,8.1,1.8c1.3,0.8,3-0.1,3-1.6
		v-13.6v-13.9c0-1.5,1.7-2.4,3-1.6c2.3,1.4,5.1,2.1,8.1,1.8c6-0.6,10.9-5.5,11.5-11.5c0.9-7.8-5.3-14.5-12.9-14.5
		c-2.5,0-4.8,0.7-6.8,1.9c-1.3,0.8-2.9-0.2-2.9-1.7l0-13.7h-76.4c-1.6,0-2.9,1.3-2.9,2.9v100c0,1.6,1.3,2.9,2.9,2.9h76.4l0-13.5
		c0-1.5-1.6-2.4-2.9-1.7C255.7,337.5,253.4,338.2,250.9,338.2z"/>
	<path class="st19" d="M199.1,318.5l-11.4,0c-0.8,0-1.5,0.7-1.5,1.5l0,25c0,0.8,0.7,1.5,1.5,1.5l25,0c0.8,0,1.5-0.7,1.5-1.5l0-11.4
		C214.1,325.2,207.4,318.5,199.1,318.5z"/>
	<path class="st19" d="M214.1,264l0-11.4c0-0.8-0.7-1.5-1.5-1.5l-25,0c-0.8,0-1.5,0.7-1.5,1.5l0,25c0,0.8,0.7,1.5,1.5,1.5l11.4,0
		C207.4,279.1,214.1,272.3,214.1,264z"/>
	<path class="st19" d="M260.6,298.8v-13.6c0-1.6,1.8-2.7,3.2-1.8l0.1,0.1c0.2,0.1,0.3,0.2,0.5,0.3c0.3,0.1,0.5,0.3,0.8,0.4
		c0.2,0.1,0.4,0.2,0.6,0.2c0.3,0.1,0.5,0.2,0.8,0.3c0.2,0.1,0.4,0.1,0.6,0.2c0.3,0.1,0.6,0.1,0.9,0.2c0.2,0,0.4,0.1,0.6,0.1
		c0.3,0,0.6,0.1,1,0.1c0.2,0,0.4,0,0.5,0c0.4,0,0.9,0,1.3-0.1c0.1,0,0.1,0,0.2,0c0,0,0,0,0,0c0.4,0,0.8-0.1,1.2-0.2
		c0.1,0,0.2-0.1,0.3-0.1c0.3-0.1,0.6-0.1,0.9-0.2c0.2,0,0.3-0.1,0.5-0.2c0.2-0.1,0.4-0.2,0.7-0.3c0.2-0.1,0.4-0.1,0.5-0.2
		c0.1-0.1,0.3-0.1,0.4-0.2c0.8-0.4,1.6-1,2.3-1.5c0,0,0.1-0.1,0.1-0.1c0.2-0.2,0.5-0.4,0.7-0.6c0.1-0.1,0.1-0.1,0.2-0.2
		c0.2-0.2,0.4-0.4,0.6-0.7c0-0.1,0.1-0.1,0.1-0.2c0.5-0.5,0.9-1.1,1.2-1.7c0.2-0.4,0.4-0.7,0.5-1c0.1-0.1,0.1-0.3,0.2-0.5
		c0.1-0.3,0.2-0.5,0.3-0.8c0-0.1,0.1-0.2,0.1-0.4c0.1-0.3,0.2-0.7,0.3-1c0-0.1,0-0.1,0.1-0.2c0.1-0.4,0.2-0.9,0.2-1.3
		c0-0.3,0-0.5,0-0.8c0-0.2,0-0.4,0-0.6c0-0.2,0-0.4,0-0.6c0-0.3,0-0.5,0-0.8c0-0.4-0.1-0.9-0.2-1.3c0-0.1,0-0.1-0.1-0.2
		c-0.1-0.3-0.2-0.7-0.3-1c0-0.1-0.1-0.2-0.1-0.4c-0.1-0.3-0.2-0.5-0.3-0.8c-0.1-0.2-0.1-0.3-0.2-0.5c-0.1-0.2-0.2-0.4-0.3-0.6
		c-0.1-0.1-0.1-0.2-0.2-0.3c-16.4,2-29.1,16.1-29.1,33.1c0,5.1,1.1,9.9,3.2,14.2c0.7,0.3,1.4,0.6,2,1c1.3,0.8,2.9-0.1,2.9-1.7V298.8
		z"/>
</g>
<path class="st24" d="M187.8,357.4c-6.8,6.8-31.7,4-31.7,4s3.3-19-2.2-28.4c26.5-2.3,54.6-9.2,54.6-9.2c9.6-2.4,15-1.1,19.6,0.4
	c1.3,0.4,3.4,1.6,4.6,2.6c0.9,0.7,1.5,1.7,1.7,2.9c0.2,1.6,0.2,3.6-0.8,5.1c-0.5,0.8-1.7,1.8-2.8,2.4
	C230.9,337.3,193.6,351.6,187.8,357.4z"/>
<g>
	<path class="st12" d="M368.3,289.6c1,7.6,8.3,12.8,16,11c5.9-1.4,10-6.9,9.9-12.9c-0.1-3-1.1-5.7-2.8-7.8c-1-1.2-0.3-3,1.2-3.2
		l32.3-4.1l-6.4-49.8c-0.2-1.6-1.7-2.7-3.3-2.5L291,236.1l1.7,13.6c0.2,1.5,2,2.2,3.2,1.2c2.1-1.7,4.8-2.7,7.8-2.8
		c6-0.1,11.5,4,12.9,9.9c1.8,7.7-3.4,15-11,16c-2.5,0.3-4.8-0.1-7-1c-1.4-0.6-2.9,0.5-2.7,2l1.8,13.8l69.6-8.9
		c1.5-0.2,2.6,1.3,2,2.7C368.4,284.7,368,287.1,368.3,289.6z"/>
	<path class="st19" d="M404.7,255.1l11.3-1.5c0.8-0.1,1.4-0.8,1.3-1.6l-3.2-24.8c-0.1-0.8-0.8-1.4-1.6-1.3l-24.8,3.2
		c-0.8,0.1-1.4,0.8-1.3,1.6l1.5,11.3C388.9,250.3,396.4,256.2,404.7,255.1z"/>
	<path class="st19" d="M318.4,252.6c-1.4,0.2-2.7,0.4-4,0.8c0.1,0.1,0.1,0.2,0.2,0.3c0.1,0.2,0.3,0.4,0.4,0.6
		c0.1,0.1,0.2,0.3,0.3,0.4c0.1,0.2,0.3,0.5,0.4,0.7c0.1,0.1,0.1,0.2,0.2,0.4c0.1,0.3,0.3,0.6,0.4,1c0,0.1,0.1,0.1,0.1,0.2
		c0.1,0.4,0.3,0.8,0.4,1.2c0,0,0,0,0,0c0.1,0.3,0.1,0.5,0.1,0.8c0,0.2,0.1,0.4,0.1,0.6c0,0.2,0,0.4,0,0.6c0,0.3,0.1,0.5,0.1,0.8
		c0,0,0,0,0,0c0,0.4,0,0.9,0,1.3c0,0.1,0,0.1,0,0.2c0,0.3-0.1,0.7-0.1,1c0,0.1-0.1,0.3-0.1,0.4c-0.1,0.3-0.1,0.5-0.2,0.8
		c0,0.2-0.1,0.3-0.1,0.5c-0.1,0.2-0.1,0.4-0.2,0.6c-0.3,0.8-0.7,1.6-1.2,2.3c0,0-0.1,0.1-0.1,0.1c-0.2,0.3-0.4,0.5-0.5,0.8
		c0,0.1-0.1,0.1-0.1,0.2c-0.2,0.2-0.4,0.5-0.6,0.7c0,0,0,0-0.1,0.1c-0.7,0.7-1.4,1.3-2.1,1.9c-0.1,0.1-0.3,0.2-0.4,0.3
		c-0.2,0.1-0.3,0.2-0.5,0.3c-0.2,0.1-0.4,0.2-0.6,0.3c-0.1,0.1-0.3,0.1-0.4,0.2c-0.3,0.1-0.5,0.2-0.8,0.3c-0.1,0-0.2,0.1-0.3,0.1
		c-0.4,0.1-0.8,0.3-1.2,0.4c0,0,0,0,0,0c0,0,0,0,0,0c-0.1,0-0.1,0-0.2,0c-0.4,0.1-0.8,0.2-1.2,0.2c0,0-0.1,0-0.1,0
		c-0.2,0-0.4,0-0.5,0c-0.3,0-0.6,0-1,0c-0.2,0-0.4,0-0.6,0c-0.3,0-0.6,0-0.9-0.1c-0.2,0-0.4-0.1-0.6-0.1c-0.3,0-0.6-0.1-0.8-0.2
		c-0.2,0-0.4-0.1-0.6-0.2c-0.3-0.1-0.5-0.2-0.8-0.3c-0.2-0.1-0.4-0.1-0.6-0.2c0,0-0.1-0.1-0.2-0.1c-1.4-0.8-3.1,0.4-2.9,1.9
		l1.8,13.8l57.9-7.4c0,0,0,0,0,0C353.3,263.1,336.6,250.2,318.4,252.6z"/>
</g>
<path class="st50" d="M220.1,342.5c-0.6,0.3-1.3,0-1.5-0.6c-1.1-2.7-2.6-6.9-1.8-7.3c1.2-0.6,2.8-2.1,7.1-3.6s7.5,0.6,8.7,2.2
	c0.4,0.5,0.8,1.1,1,1.7c0.3,0.5,0.1,1.2-0.4,1.5C230.9,338,226.4,339.5,220.1,342.5z"/>
<path class="st24" d="M440,242.8c9.2-3.5,17-27.7,17-27.7s-19-4.9-25.4-13.9c-13.3,23.7-31.4,46.8-31.4,46.8
	c-6.3,7.9-7.3,13.5-7.8,18.3c-0.1,1.4,0.1,3.8,0.5,5.4c0.3,1.1,1,2.2,2,2.8c1.4,0.9,3.2,1.7,5,1.4c1-0.1,2.4-0.8,3.4-1.6
	C403.3,274.3,432.2,245.7,440,242.8z"/>
<path class="st50" d="M414.2,265.6c0.5-0.4,0.5-1.2,0-1.7c-2.1-2.1-5.5-5.1-6.1-4.5c-1,0.9-3,1.8-6.1,5.3c-3.1,3.5-2.4,7.2-1.3,9.1
	c0.3,0.6,0.8,1.1,1.2,1.6c0.4,0.5,1.1,0.6,1.6,0.2C405.8,274,409,270.4,414.2,265.6z"/>
<linearGradient id="SVGID_6_" gradientUnits="userSpaceOnUse" x1="441.6047" y1="234.1416" x2="461.4939" y2="238.9615" gradientTransform="matrix(0.9994 -3.365913e-02 3.365913e-02 0.9994 -7.1343 -69.1758)">
	<stop  offset="2.384186e-07" style="stop-color:#C49735;stop-opacity:0.5"/>
	<stop  offset="0.7356" style="stop-color:#C49735;stop-opacity:0"/>
</linearGradient>
<path style="fill:url(#SVGID_6_);" d="M458.4,142.9l-12.1,11.2c1.6,2.7,3.4,5.5,5.4,8.2L465,150L458.4,142.9z"/>
<linearGradient id="SVGID_7_" gradientUnits="userSpaceOnUse" x1="452.9586" y1="247.2855" x2="472.483" y2="253.4182" gradientTransform="matrix(0.9994 -3.365913e-02 3.365913e-02 0.9994 -7.1343 -69.1758)">
	<stop  offset="0" style="stop-color:#C49735;stop-opacity:0.5"/>
	<stop  offset="0.6709" style="stop-color:#C49735;stop-opacity:0"/>
</linearGradient>
<path style="fill:url(#SVGID_7_);" d="M469.8,156.3l-13.3,12.3c2,2.5,4.1,4.9,6.3,7.4l13.5-12.5L469.8,156.3z"/>
<linearGradient id="SVGID_8_" gradientUnits="userSpaceOnUse" x1="463.4023" y1="260.2617" x2="483.3305" y2="264.9177" gradientTransform="matrix(0.9994 -3.365913e-02 3.365913e-02 0.9994 -7.1343 -69.1758)">
	<stop  offset="1.140738e-03" style="stop-color:#C49735;stop-opacity:0.5"/>
	<stop  offset="0.6895" style="stop-color:#C49735;stop-opacity:0"/>
</linearGradient>
<path class="st18" d="M481.2,168.4l-13.5,12.5c2.4,2.3,4.7,4.5,7.2,6.6l12.9-11.9L481.2,168.4z"/>
<linearGradient id="SVGID_9_" gradientUnits="userSpaceOnUse" x1="475.5353" y1="272.0377" x2="495.5447" y2="276.3319" gradientTransform="matrix(0.9994 -3.365913e-02 3.365913e-02 0.9994 -7.1343 -69.1758)">
	<stop  offset="2.515373e-03" style="stop-color:#C49735;stop-opacity:0.5"/>
	<stop  offset="0.7537" style="stop-color:#C49735;stop-opacity:0"/>
</linearGradient>
<path class="st20" d="M493.8,180.4l-12.9,12c2.7,2.1,5.4,3.9,8.1,5.7l11.4-10.5L493.8,180.4z"/>
<g>
	<path class="st22" d="M400.2,360.2c-0.2,0.1-28.1-2.6-44.8-4.3c-6.8-0.7-12.9,4.2-13.8,11l0,0c-1,7.3,4.6,13.9,12,14.3
		c15.1,0.7,38,2.2,43,5.2c7.6,4.6,16.8,11.5,22.8,11.5C425.5,397.8,400.2,360.2,400.2,360.2z"/>
	<path class="st23" d="M384.2,340.3c-0.2,0.1-28.1-2.6-44.8-4.3c-6.8-0.7-12.9,4.2-13.8,11v0c-1,7.3,4.6,13.9,12,14.3
		c15.1,0.7,38,2.2,43,5.2c7.6,4.6,16.8,11.5,22.8,11.5C409.4,377.9,384.2,340.3,384.2,340.3z"/>
	<path class="st24" d="M415.3,349.7l-3.8,40.1l-19.1-3.5L364.2,398c-3.5,1.4-7.5,0.6-10.1-2l0,0c-4.4-4.4-3.3-11.8,2.2-14.8
		L415.3,349.7z"/>
	<path class="st23" d="M490.5,394.6c0,0-3.5-2.2-5.2-3.3c-7.4-4.7-17.9-40.5-28.8-49.5c-10.9-9-20.6-12-28.7-13.3
		c-30.6-4-63.7-0.2-63.7-0.2l38.8,54l-3.5,28.4c0,0,8.6,15.6,21.8,22.2s28.1,5.7,32.4,8.4s8.5,5.4,8.5,5.4L490.5,394.6z"/>
	
		<linearGradient id="SVGID_10_" gradientUnits="userSpaceOnUse" x1="-8608.8867" y1="-835.5668" x2="-8602.0889" y2="-808.6395" gradientTransform="matrix(0.9429 0.3332 -0.3332 0.9429 8257.0732 4020.0908)">
		<stop  offset="0" style="stop-color:#A68667"/>
		<stop  offset="1" style="stop-color:#A68667;stop-opacity:0"/>
	</linearGradient>
	<circle style="fill-rule:evenodd;clip-rule:evenodd;fill:url(#SVGID_10_);" cx="417.3" cy="377" r="14.4"/>
	<path class="st45" d="M540.3,414.9c5.2,2.7,6.7,9.5,3,14.1c-5,6.3-9.6,13.6-13.8,21.5c-4.1,7.9-7.4,15.9-9.7,23.6
		c-1.7,5.6-8.1,8.3-13.3,5.6l-44-24.2c-2-1-3.1-3.3-2.5-5.5c2.3-9.9,6.2-20.5,11.7-31c5.4-10.5,11.8-19.7,18.6-27.3
		c1.5-1.7,4-2.1,6-1.1L540.3,414.9z"/>
</g>
<g>
	<path class="st12" d="M397.4,336.3c0.7,2.6,0.5,5.5-0.7,8.3c-2.4,5.5-8.4,8.8-14.3,7.7c-7.7-1.5-12.3-9.3-10.1-16.6
		c0.7-2.4,2.1-4.4,3.8-5.9c1.1-1,0.7-2.8-0.7-3.3l-67.1-20.6l-4,13c-0.4,1.5-2.3,1.8-3.3,0.7c-1.8-2-4.3-3.5-7.2-4.1
		c-5.9-1.2-12,2-14.4,7.6c-3.1,7.2,0.8,15.4,8.1,17.6c2.4,0.7,4.8,0.7,7,0.2c1.5-0.4,2.7,1,2.3,2.4l-4,13l119.9,36.7
		c1.5,0.5,3.2-0.4,3.6-1.9l14.6-47.6l-31.2-9.5C398.3,333.5,397,334.8,397.4,336.3z"/>
	<path class="st19" d="M389.3,366.8l-3.3,10.9c-0.2,0.8,0.2,1.6,1,1.8l23.9,7.3c0.8,0.2,1.6-0.2,1.8-1L420,362
		c0.2-0.8-0.2-1.6-1-1.8l-10.9-3.3C400.2,354.4,391.8,358.9,389.3,366.8z"/>
	<path class="st19" d="M301,319.6c-0.5-0.6-1.1-1.1-1.7-1.6c1.8,12.4,10.5,23.2,23.2,27.1c17.6,5.4,36.1-4.6,41.5-22.2l-55.8-17.1
		l-4,13C303.9,320.3,302,320.7,301,319.6z"/>
</g>
<path class="st24" d="M401,413.4c5.8,8,31.2,9.1,31.2,9.1s-0.3-19.6,6.7-28.2c-26.3-6.6-53.4-17.9-53.4-17.9
	c-9.3-3.9-14.9-3.5-19.7-2.7c-1.4,0.2-3.7,1.1-5.1,1.9c-1,0.6-1.8,1.5-2.2,2.6c-0.5,1.6-0.7,3.5,0,5.2c0.4,0.9,1.4,2,2.4,2.9
	C360.9,386.3,396.1,406.7,401,413.4z"/>
<path class="st50" d="M372.2,394.6c0.6,0.4,1.3,0.2,1.6-0.4c1.4-2.6,3.5-6.6,2.8-7.1c-1.1-0.8-2.5-2.4-6.7-4.5
	c-4.2-2.1-7.6-0.4-9.1,1.1c-0.5,0.5-0.9,1-1.2,1.6c-0.3,0.5-0.2,1.2,0.2,1.6C361.8,388.7,366.2,390.7,372.2,394.6z"/>
<g>
	<rect x="0" y="0" class="st56" width="600" height="600"/>
</g>
</svg>
