<svg xmlns="http://www.w3.org/2000/svg" xmlns:xlink="http://www.w3.org/1999/xlink" viewBox="0 0 600 600"><defs><style>.cls-1{fill:none;}.cls-2{fill:url(#Degradado_sin_nombre_380);}.cls-3{fill:#1464a5;}.cls-4{fill:#da3951;}.cls-5{fill:#fddc6c;}.cls-6{fill:#2dcccd;}.cls-7{fill:#49a5e6;}.cls-8{opacity:0.5;isolation:isolate;fill:url(#Degradado_sin_nombre_32);}.cls-9{fill:#004481;}</style><linearGradient id="Degradado_sin_nombre_380" x1="257.65" y1="255.82" x2="418.41" y2="558.17" gradientUnits="userSpaceOnUse"><stop offset="0" stop-color="#192647" stop-opacity="0.5"/><stop offset="1" stop-color="#192647" stop-opacity="0"/></linearGradient><linearGradient id="Degradado_sin_nombre_32" x1="193.38" y1="275.67" x2="317.33" y2="399.61" gradientUnits="userSpaceOnUse"><stop offset="0" stop-color="#fff" stop-opacity="0.5"/><stop offset="1" stop-color="#ebf6f7" stop-opacity="0.2"/><stop offset="1" stop-color="#fff" stop-opacity="0"/></linearGradient></defs><title>11</title><g id="Cuadrados_Blancos" data-name="Cuadrados Blancos"><rect class="cls-1" width="600" height="600"/></g><g id="Capa_104" data-name="Capa 104"><path class="cls-2" d="M355,235c-128.68,0-233,104.32-233,233H588C588,339.32,483.68,235,355,235Z"/><path class="cls-3" d="M300,180C171.32,180,67,284.32,67,413H533C533,284.32,428.68,180,300,180Z"/><path class="cls-4" d="M99.7,413H312L164.5,265.5A199.77,199.77,0,0,0,99.7,413Z"/><path class="cls-5" d="M300,212.7a199.58,199.58,0,0,0-135.5,52.8L312,413H500.3C500.3,302.38,410.62,212.7,300,212.7Z"/><path class="cls-6" d="M500.3,413a199.58,199.58,0,0,0-52.8-135.5L312,413Z"/><path class="cls-7" d="M300,240.5A172.5,172.5,0,0,0,127.47,412.94l345,.12A172.5,172.5,0,0,0,300,240.5Z"/><path class="cls-8" d="M382.28,261.35A172.56,172.56,0,0,0,127.5,413H303.94Z"/><path class="cls-9" d="M272.28,404.77a30.29,30.29,0,0,0,42-7.47c9.52-13.57,27.59-88.29,25.92-89.35,0,0-65.9,41.55-75.42,55.12A29.83,29.83,0,0,0,272.28,404.77ZM279.91,375a11,11,0,0,1,15.18-2.7,10.77,10.77,0,0,1,2.71,15.07,10.93,10.93,0,0,1-15.17,2.7A10.77,10.77,0,0,1,279.91,375Z"/></g></svg>