<svg id="Contenido" xmlns="http://www.w3.org/2000/svg" xmlns:xlink="http://www.w3.org/1999/xlink" viewBox="0 0 600 600"><defs><style>.cls-1{fill:url(#Degradado_sin_nombre_23);}.cls-2{fill:#1464a5;}.cls-3{fill:url(#Degradado_sin_nombre_24);}</style><linearGradient id="Degradado_sin_nombre_23" x1="267.32" y1="168.92" x2="455.05" y2="521.99" gradientUnits="userSpaceOnUse"><stop offset="0" stop-color="#192647"/><stop offset="0" stop-color="#192647" stop-opacity="0.5"/><stop offset="1" stop-color="#192647" stop-opacity="0"/></linearGradient><linearGradient id="Degradado_sin_nombre_24" x1="498.88" y1="323.53" x2="212.01" y2="323.53" gradientUnits="userSpaceOnUse"><stop offset="0" stop-color="#043263" stop-opacity="0.8"/><stop offset="1" stop-color="#043263" stop-opacity="0"/></linearGradient></defs><title>_</title><path class="cls-1" d="M350.59,128.15,411.69,252,548.3,271.8a3,3,0,0,1,1.67,5.11l-98.86,96.36,23.34,136.07a3,3,0,0,1-4.35,3.16L347.9,448.26,225.71,512.5a3,3,0,0,1-4.35-3.16L244.7,373.27l-98.86-96.36a3,3,0,0,1,1.66-5.11L284.12,252l61.09-123.8A3,3,0,0,1,350.59,128.15Z"/><path class="cls-2" d="M298.59,78.15,359.69,202,496.3,221.8a3,3,0,0,1,1.67,5.11l-98.86,96.36,23.34,136.07a3,3,0,0,1-4.35,3.16L295.9,398.26,173.71,462.5a3,3,0,0,1-4.35-3.16L192.7,323.27,93.84,226.91a3,3,0,0,1,1.66-5.11L232.12,202l61.09-123.8A3,3,0,0,1,298.59,78.15Z"/><path class="cls-3" d="M496.3,221.8,359.69,202l-8.75-17.73L212,442.37l83.89-44.11L418.1,462.5a3,3,0,0,0,4.35-3.16L399.11,323.27,498,226.91A3,3,0,0,0,496.3,221.8Z"/></svg>