<svg xmlns="http://www.w3.org/2000/svg" xmlns:xlink="http://www.w3.org/1999/xlink" viewBox="0 0 600 600"><defs><style>.cls-1{fill:none;}.cls-2{fill:url(#Degradado_sin_nombre_407);}.cls-3{fill:url(#Degradado_sin_nombre_189);}.cls-4{fill:#2dcccd;}.cls-5{fill:url(#Degradado_sin_nombre_414);}.cls-6{fill:#02a5a5;}.cls-7{fill:url(#Degradado_sin_nombre_67);}.cls-8{fill:#eaf9fa;}.cls-9{fill:#da3951;}.cls-10{fill:#d4edfc;}.cls-11{fill:#028484;}.cls-12{opacity:0.5;}.cls-13{fill:url(#Degradado_sin_nombre_413);}.cls-14{fill:#1464a5;}.cls-15{fill:url(#Degradado_sin_nombre_5);}.cls-16{fill:#004481;}.cls-17{fill:url(#Degradado_sin_nombre_5-2);}.cls-18{fill:#49a5e6;}.cls-19{fill:#043263;}.cls-20{fill:url(#Degradado_sin_nombre_410);}</style><linearGradient id="Degradado_sin_nombre_407" x1="319.94" y1="205.78" x2="440.76" y2="433.02" gradientUnits="userSpaceOnUse"><stop offset="0" stop-color="#192647" stop-opacity="0.5"/><stop offset="1" stop-color="#192647" stop-opacity="0"/></linearGradient><linearGradient id="Degradado_sin_nombre_189" x1="212.64" y1="283.97" x2="338.25" y2="47.73" gradientTransform="matrix(1, 0, 0, -1, 0, 582)" xlink:href="#Degradado_sin_nombre_407"/><linearGradient id="Degradado_sin_nombre_414" x1="553.3" y1="357.55" x2="317" y2="357.55" gradientTransform="matrix(1, 0, 0, -1, 0, 582)" gradientUnits="userSpaceOnUse"><stop offset="0" stop-color="#02a5a5"/><stop offset="1" stop-color="#02a5a5" stop-opacity="0"/></linearGradient><linearGradient id="Degradado_sin_nombre_67" x1="553.3" y1="321.56" x2="200.42" y2="321.56" gradientTransform="matrix(1, 0, 0, -1, 0, 582)" gradientUnits="userSpaceOnUse"><stop offset="0" stop-color="#028484"/><stop offset="1" stop-color="#028484" stop-opacity="0"/></linearGradient><linearGradient id="Degradado_sin_nombre_413" x1="268.87" y1="409.86" x2="310.68" y2="368.04" gradientTransform="matrix(1, 0, 0, -1, 0, 582)" gradientUnits="userSpaceOnUse"><stop offset="0" stop-color="#eaf9fa" stop-opacity="0.5"/><stop offset="1" stop-color="#eaf9fa" stop-opacity="0"/></linearGradient><linearGradient id="Degradado_sin_nombre_5" x1="452.3" y1="256.55" x2="216" y2="256.55" gradientTransform="matrix(1, 0, 0, -1, 0, 582)" gradientUnits="userSpaceOnUse"><stop offset="0" stop-color="#043263"/><stop offset="1" stop-color="#043263" stop-opacity="0"/></linearGradient><linearGradient id="Degradado_sin_nombre_5-2" x1="452.3" y1="220.56" x2="99.42" y2="220.56" xlink:href="#Degradado_sin_nombre_5"/><linearGradient id="Degradado_sin_nombre_410" x1="167.87" y1="308.86" x2="209.68" y2="267.04" xlink:href="#Degradado_sin_nombre_413"/></defs><title>13</title><g id="Cuadrados_Blancos" data-name="Cuadrados Blancos"><rect class="cls-1" width="600" height="600"/><rect class="cls-1" width="600" height="600"/></g><g id="Capa_79" data-name="Capa 79"><path class="cls-2" d="M597.76,289.1h-2v-8a9.19,9.19,0,0,0-5.08-8.22l-.39-1.57a16.24,16.24,0,0,0-13.45-12.13l-46-6.57h0L487.78,212a48.69,48.69,0,0,0-31.68-11.72H345.5a37.84,37.84,0,0,0-28.73,13.25l0,0c-.27.29-.55.58-.81.89l-.07.09h-.37l-30.71,39.38-5.16,6.53s0,0,0,0l-.21.27h0l0,0L215,266a42.54,42.54,0,0,0-38.24,30.08l-6.1,20.14a12,12,0,0,0-7.5,8.48l-4.1,17.57h3.7l1,0h-4.68v0a12.89,12.89,0,0,0,12.56,15.82h40a45.95,45.95,0,0,0,86,0H471.26a45.94,45.94,0,0,0,88.49-9.72l19.9-4.38a20.59,20.59,0,0,0,16.15-20.1h0V305.33h1.86a3,3,0,0,0,3.05-2.95V292.15A3,3,0,0,0,597.76,289.1Z"/><path class="cls-3" d="M487.85,394.35H486v-8h0v-.1a9.17,9.17,0,0,0-3.42-7.05,8.48,8.48,0,0,0-1.65-1.07l-.39-1.57a18.08,18.08,0,0,0-.61-1.89,16.22,16.22,0,0,0-12.84-10.23l-46-6.57h0L394.4,332.71a58.86,58.86,0,1,0-64.62-27.21H235.65A37.8,37.8,0,0,0,207,318.7l-.32.4-.51.56-.07.1h-.37L174.6,359.61l-5,6.35h0l-64.42,5.23A42.52,42.52,0,0,0,70.64,392.7l-2.16.08a3,3,0,0,0-2.71,2L62,405.42a3,3,0,0,0,1.89,3.8,3.5,3.5,0,0,0,.56.13l-3.65,12a12,12,0,0,0-7.5,8.5l-4.1,17.6h0a12.89,12.89,0,0,0,9.63,15.47,12.61,12.61,0,0,0,2.93.34h40a45.94,45.94,0,0,0,86,0h173.7a45.94,45.94,0,0,0,88.46-9.72l19.91-4.38a20.58,20.58,0,0,0,16.17-20h0V410.57h1.87a3,3,0,0,0,3-3V397.4a3,3,0,0,0-2.95-3Z"/><path class="cls-4" d="M134.26,249.56l-14,46.19,311.37,7.7L553.3,246.67l-5.47-21.87a16.24,16.24,0,0,0-13.45-12.13l-46-6.57-43.12-40.63a48.69,48.69,0,0,0-31.68-11.72H303A37.84,37.84,0,0,0,274.27,167l-37.36,47.26-64.41,5.22A42.54,42.54,0,0,0,134.26,249.56Z"/><path class="cls-4" d="M116.56,295.75a12.89,12.89,0,0,0,12.56,15.82H472.17a8.05,8.05,0,0,0,1.76-.2l63.22-13.9a20.59,20.59,0,0,0,16.15-20.1h0l-82,18-354.73.41Z"/><path class="cls-4" d="M450.32,212.45A129.14,129.14,0,0,1,429,214.22H236.91l36.53-46.3a40.58,40.58,0,0,1,30.8-14.17H413.6a48.69,48.69,0,0,1,31.68,11.72L488.4,206.1Z"/><path class="cls-5" d="M553.3,246.67l-5.47-21.87a16.24,16.24,0,0,0-13.45-12.13l-46-6.57-43.12-40.63a48.69,48.69,0,0,0-31.68-11.72H391.19L317,295.15H433.56Z"/><path class="cls-6" d="M116.56,295.75l358.55-.6,78.19-17.78V234.59a9.2,9.2,0,0,0-9.18-9.2h-.4L131.12,269a12,12,0,0,0-10.46,9.18Z"/><path class="cls-7" d="M543.72,225.4,285.56,251.07l-23.29,44.42,212.84-.34,78.19-17.78V234.59a9.2,9.2,0,0,0-9.18-9.2Z"/><path class="cls-8" d="M400.55,168l-127.11-.08-36.31,46a.16.16,0,0,0,0,.22.14.14,0,0,0,.1,0l215-5.56a3.07,3.07,0,0,0,1.87-5.44L423.92,176A38.12,38.12,0,0,0,400.55,168Z"/><path class="cls-9" d="M555.17,242.6h-14a8.31,8.31,0,0,0-8.37,7.58,8.11,8.11,0,0,0,7.55,8.63l.54,0h14.27a3,3,0,0,0,3.05-2.95V245.65a3,3,0,0,0-3-3.05Z"/><circle class="cls-10" cx="212.14" cy="295.34" r="38.29"/><path class="cls-11" d="M166.18,295.34a46,46,0,1,1,45.95,46A45.95,45.95,0,0,1,166.18,295.34Zm16.75,0a29.2,29.2,0,1,0,29.2-29.2A29.2,29.2,0,0,0,182.93,295.34Z"/><circle class="cls-10" cx="471.77" cy="295.34" r="38.29"/><path class="cls-11" d="M425.81,295.34a46,46,0,1,1,45.95,46A45.95,45.95,0,0,1,425.81,295.34Zm16.75,0a29.2,29.2,0,1,0,29.2-29.2A29.2,29.2,0,0,0,442.56,295.34Z"/><polygon class="cls-11" points="356.44 168.01 372.67 168.01 388.89 210.29 358.47 211.2 356.44 168.01"/><g class="cls-12"><polygon class="cls-13" points="338.25 168.01 273 168.01 237.16 213.96 312.52 212.12 338.25 168.01"/></g><path class="cls-14" d="M33.26,350.56l-14,46.19,311.37,7.7L452.3,347.67l-5.47-21.87a16.24,16.24,0,0,0-13.45-12.13l-46-6.57-43.12-40.63a48.69,48.69,0,0,0-31.68-11.72H202A37.84,37.84,0,0,0,173.27,268l-37.36,47.26L71.5,320.48A42.54,42.54,0,0,0,33.26,350.56Z"/><path class="cls-14" d="M15.56,396.75a12.89,12.89,0,0,0,12.56,15.82H371.17a8.05,8.05,0,0,0,1.76-.2l63.22-13.9a20.59,20.59,0,0,0,16.15-20.1h0l-82,18-354.73.41Z"/><path class="cls-14" d="M349.32,313.45A129.14,129.14,0,0,1,328,315.22H135.91l36.53-46.3a40.58,40.58,0,0,1,30.8-14.17H312.6a48.69,48.69,0,0,1,31.68,11.72L387.4,307.1Z"/><path class="cls-15" d="M452.3,347.67l-5.47-21.87a16.24,16.24,0,0,0-13.45-12.13l-46-6.57-43.12-40.63a48.69,48.69,0,0,0-31.68-11.72H290.19L216,396.15H332.56Z"/><path class="cls-16" d="M15.56,396.75l358.55-.6,78.19-17.78V335.59a9.2,9.2,0,0,0-9.18-9.2h-.4L30.12,370a12,12,0,0,0-10.46,9.18Z"/><path class="cls-17" d="M442.72,326.4,184.56,352.07l-23.29,44.42,212.84-.34,78.19-17.78V335.59a9.2,9.2,0,0,0-9.18-9.2Z"/><path class="cls-18" d="M299.55,269l-127.11-.08-36.31,46a.16.16,0,0,0,0,.22.14.14,0,0,0,.1,0l215-5.56a3.07,3.07,0,0,0,1.87-5.44L322.92,277A38.12,38.12,0,0,0,299.55,269Z"/><path class="cls-9" d="M454.17,343.6h-14a8.31,8.31,0,0,0-8.37,7.58,8.11,8.11,0,0,0,7.55,8.63l.54,0h14.27a3,3,0,0,0,3-2.95V346.65a3,3,0,0,0-2.95-3Z"/><circle class="cls-10" cx="111.14" cy="396.34" r="38.29"/><path class="cls-19" d="M65.18,396.34a46,46,0,1,1,45.95,46A45.95,45.95,0,0,1,65.18,396.34Zm16.75,0a29.2,29.2,0,1,0,29.2-29.2A29.2,29.2,0,0,0,81.93,396.34Z"/><circle class="cls-10" cx="370.77" cy="396.34" r="38.29"/><path class="cls-19" d="M324.81,396.34a46,46,0,1,1,45.95,46A45.95,45.95,0,0,1,324.81,396.34Zm16.75,0a29.2,29.2,0,1,0,29.2-29.2A29.2,29.2,0,0,0,341.56,396.34Z"/><polygon class="cls-19" points="255.44 269.01 271.67 269.01 287.89 311.29 257.47 312.2 255.44 269.01"/><g class="cls-12"><polygon class="cls-20" points="237.25 269.01 172 269.01 136.16 314.96 211.52 313.12 237.25 269.01"/></g><path class="cls-10" d="M30.36,361H39a16.49,16.49,0,0,0,16.1-14.62h0a1.69,1.69,0,0,0-1.39-1.91,1.22,1.22,0,0,0-.27,0l-19.82.75a2.73,2.73,0,0,0-2.47,1.89l-3.41,10.1a2.87,2.87,0,0,0,1.63,3.63A2.43,2.43,0,0,0,30.36,361Z"/><path class="cls-10" d="M129.31,260.57H138A16.48,16.48,0,0,0,154.08,246h0a1.68,1.68,0,0,0-1.39-1.91l-.27,0-19.82.76a2.73,2.73,0,0,0-2.47,1.89l-3.4,10.1a2.86,2.86,0,0,0,1.62,3.63A2.66,2.66,0,0,0,129.31,260.57Z"/></g></svg>