<!-- Generated by IcoMoon.io -->
<svg version="1.1" xmlns="http://www.w3.org/2000/svg" width="1024" height="1024" viewBox="0 0 1024 1024">
<title></title>
<g id="icomoon-ignore">
</g>
<path fill="#616161" d="M1004.482 168.614c38.45 92.738 20.127 203.438-55.29 278.856-83.035 83.035-208.53 96.026-306.080 40.976l-70.526 77.021 50.318 50.519 30.071-30.071c15.356-15.396 40.295-15.396 55.651 0l243.853 246.339c15.396 15.356 15.396 40.295 0 55.651l-111.302 111.302c-15.356 15.396-40.295 15.396-55.651 0l-243.853-246.339c-15.396-15.356-15.396-40.295 0-55.651l27.465-27.465-47.953-48.073-337.233 368.426c-30.752 30.752-80.589 30.752-111.302 0l-27.825-27.825c-30.752-30.752-30.752-80.589 0-111.302l384.183-321.756-255.16-255.842-80.589-0.040-93.259-149.953 75.056-75.177 153.361 93.861 1.002 78.906 258.127 259.129 75.098-62.868c-73.413-100.075-65.755-241.046 24.699-331.499 75.056-75.056 185.155-93.7 277.653-55.972l-165.349 163.063 139.167 139.167 165.67-163.384zM137.122 890.23c-15.356-15.356-40.255-15.356-55.651 0-15.396 15.396-15.396 40.295 0 55.691 15.396 15.356 40.295 15.356 55.651 0 15.396-15.436 15.396-40.335 0-55.691z"></path>
</svg>
