<svg id="Capa_1" data-name="Capa 1" xmlns="http://www.w3.org/2000/svg" xmlns:xlink="http://www.w3.org/1999/xlink" viewBox="0 0 600 600"><defs><style>.cls-1{fill:url(#Degradado_sin_nombre_3);}.cls-2{fill:#2dcccd;}.cls-3{opacity:0.5;isolation:isolate;fill:url(#Degradado_sin_nombre_4);}.cls-4{fill:#fff;fill-rule:evenodd;}</style><linearGradient id="Degradado_sin_nombre_3" x1="234.94" y1="147.52" x2="434.07" y2="522.02" gradientUnits="userSpaceOnUse"><stop offset="0" stop-color="#192647"/><stop offset="0" stop-color="#192647" stop-opacity="0.5"/><stop offset="1" stop-color="#192647" stop-opacity="0"/></linearGradient><linearGradient id="Degradado_sin_nombre_4" x1="215.8" y1="31.27" x2="331.18" y2="-185.72" gradientTransform="matrix(1, 0, 0, -1, 0, 202)" gradientUnits="userSpaceOnUse"><stop offset="0" stop-color="#eaf9fa"/><stop offset="1" stop-color="#eaf9fa" stop-opacity="0.2"/><stop offset="1" stop-color="#eaf9fa" stop-opacity="0.5"/></linearGradient></defs><title>UFE_Empresas</title><path class="cls-1" d="M494,338.5A157.5,157.5,0,1,1,336.5,181h0A157.51,157.51,0,0,1,494,338.5"/><path class="cls-2" d="M458,302.5A157.5,157.5,0,1,1,300.5,145h0A157.51,157.51,0,0,1,458,302.5"/><path class="cls-3" d="M376.1,164.29A157.63,157.63,0,0,0,162.29,227c-41.78,76.37-13.5,172,62.74,213.68,1,.64,2.19,1.16,3.22,1.67"/><path class="cls-4" d="M391.14,344.16l-51.29,44V358.81H251.91l29.31-29.31h58.63V300.19ZM215.26,270.87l51.3-44v29.32H354.5l-29.31,29.31H266.56v29.31Z"/></svg>