<svg id="Contenido" xmlns="http://www.w3.org/2000/svg" xmlns:xlink="http://www.w3.org/1999/xlink" viewBox="0 0 600 600"><defs><style>.cls-1,.cls-14,.cls-2,.cls-3{fill-rule:evenodd;}.cls-1{fill:url(#Degradado_sin_nombre_7);}.cls-2{fill:#eaa271;}.cls-3{fill:#fab27f;}.cls-4{fill:url(#linear-gradient);}.cls-5{fill:url(#linear-gradient-2);}.cls-6{fill:#043263;}.cls-7{fill:#004481;}.cls-8{fill:#02a5a5;}.cls-9{fill:url(#linear-gradient-3);}.cls-10{fill:#5ac4c4;}.cls-11{fill:#1464a5;}.cls-12{fill:url(#linear-gradient-4);}.cls-13{fill:#1973b8;}.cls-14{fill:#2dcccd;}</style><linearGradient id="Degradado_sin_nombre_7" x1="288.86" y1="231.21" x2="419.97" y2="477.79" gradientUnits="userSpaceOnUse"><stop offset="0" stop-color="#192647"/><stop offset="0" stop-color="#192647" stop-opacity="0.5"/><stop offset="1" stop-color="#192647" stop-opacity="0"/></linearGradient><linearGradient id="linear-gradient" x1="3233.5" y1="269.05" x2="3260.78" y2="377.1" gradientTransform="matrix(-1, 0, 0, 1, 3554.84, 0)" gradientUnits="userSpaceOnUse"><stop offset="0" stop-color="#bf8860"/><stop offset="1" stop-color="#bf8860" stop-opacity="0"/></linearGradient><linearGradient id="linear-gradient-2" x1="3211.23" y1="206.81" x2="3181.28" y2="393.01" gradientTransform="matrix(1, 0, 0, -1, -2836.27, 609.69)" gradientUnits="userSpaceOnUse"><stop offset="0" stop-color="#043263"/><stop offset="1" stop-color="#004481" stop-opacity="0"/></linearGradient><linearGradient id="linear-gradient-3" x1="3102.59" y1="222.89" x2="3155.5" y2="137.28" gradientTransform="matrix(-1, 0, 0, 1, 3554.84, 0)" gradientUnits="userSpaceOnUse"><stop offset="0" stop-color="#028484"/><stop offset="1" stop-color="#028484" stop-opacity="0"/></linearGradient><linearGradient id="linear-gradient-4" x1="3080.62" y1="285.95" x2="3128.3" y2="316.13" gradientTransform="matrix(-1, 0, 0, 1, 3554.84, 0)" gradientUnits="userSpaceOnUse"><stop offset="0" stop-color="#043263"/><stop offset="1" stop-color="#043263" stop-opacity="0"/></linearGradient></defs><title>_</title><path class="cls-1" d="M523,297.76a21.44,21.44,0,0,0-7.9-42.08l7.12-13.4L527.72,232h0L407.59,168.08l-9.16,17.22h0l-39.34,74H344.85a47.14,47.14,0,0,0-6.77-17.36,3.17,3.17,0,0,0-5-.49L271.51,309.1l0,.08-.06-.05-18.33,27.41c-7,10.4-29.83,69-34.18,80.29a17.21,17.21,0,0,0-17.09,2.9l-24.78,20.79a17.2,17.2,0,0,0,.16,26.48,261.11,261.11,0,0,1,60.06,71.57,17.19,17.19,0,0,0,26,4.76l24.78-20.79a17.24,17.24,0,0,0,5.33-18.36c.49-.07,1-.14,1.49-.23,30.71-5.51,71.61-31.19,89.2-53.59l49.91.33a31,31,0,0,0,26-13.75h34.39a9.4,9.4,0,0,0,9.05-6.89,9.39,9.39,0,0,0,8.72-7.38,9.37,9.37,0,0,0,4.52-8v-6.43a21.45,21.45,0,0,0,0-37.71v-4.33h5.61a5.38,5.38,0,0,0,0-10.75,5.21,5.21,0,0,1,5.37,5.22V347.44A21.43,21.43,0,0,0,517.62,308l-.88-.06v-8.68Z"/><path class="cls-2" d="M314.76,227.13l51.79,47,108.8-26.11a21.45,21.45,0,0,0,16.14-17.48h0A21.44,21.44,0,0,0,467.37,206Z"/><path class="cls-2" d="M316.25,247.79l41.07,56.63,111.84-3.31a21.41,21.41,0,0,0,19.37-13.8h0a21.43,21.43,0,0,0-18.57-29Z"/><path class="cls-2" d="M312.06,288.22l33.36,61.49L456.73,361a21.44,21.44,0,0,0,21-11.16h0a21.45,21.45,0,0,0-14.64-31.19Z"/><path class="cls-3" d="M205.5,286.83l18.33-27.42,29.84,24S275.28,266,275.28,266L312,338.79l19.29,22L417.65,370h0a31,31,0,0,1-31.23,31l-49.91-.33C318.92,423,278,448.73,247.31,454.23s-50.68-12.41-50.7-12.43l-26-72.8S197.79,298.34,205.5,286.83Z"/><circle class="cls-4" cx="308.3" cy="320.72" r="57.91"/><path class="cls-5" d="M271.78,222.47H445.47a10.71,10.71,0,0,1,10.71,10.71V376.52a10.71,10.71,0,0,1-10.71,10.71H271.78a9.4,9.4,0,0,1-9.4-9.4v-146a9.4,9.4,0,0,1,9.4-9.4Z" transform="translate(718.57 609.69) rotate(-180)"/><rect class="cls-6" x="439.66" y="294.65" width="35.03" height="21.81" transform="translate(914.36 611.11) rotate(-180)"/><path class="cls-7" d="M280.38,215.59H454.07a10.71,10.71,0,0,1,10.71,10.71V369.64a10.71,10.71,0,0,1-10.71,10.71H280.38A9.4,9.4,0,0,1,271,371V225a9.4,9.4,0,0,1,9.4-9.4Z" transform="translate(735.77 595.95) rotate(-180)"/><polygon class="cls-6" points="274.34 361.4 278.62 367.32 289.94 361.1 274.34 361.4"/><rect class="cls-8" x="329.64" y="136.56" width="122.98" height="136.06" transform="translate(26.86 453.89) rotate(-62)"/><polygon class="cls-9" points="359.93 118.36 480.06 182.24 447.88 242.78 384.16 198.38 350.77 135.59 359.93 118.36"/><circle class="cls-10" cx="379.94" cy="225.64" r="31.19"/><path class="cls-10" d="M352.82,140.88a18.92,18.92,0,0,0,25.59-7.82l-16.7-8.88Z"/><path class="cls-10" d="M457.55,175.14a18.9,18.9,0,0,0,7.82,25.58l8.88-16.7Z"/><rect class="cls-11" x="275.28" y="209.57" width="193.79" height="164.76" rx="9.4" transform="translate(744.36 583.9) rotate(-180)"/><path class="cls-12" d="M439.66,316.3l29.66.16v-33H439.66a16.44,16.44,0,0,0-16.43,16.44h0A16.44,16.44,0,0,0,439.66,316.3Z"/><path class="cls-13" d="M439.66,305.56l35,.15h0a5.23,5.23,0,0,1,5.37,5.22v-27.5a10.75,10.75,0,0,0-10.74-10.75H439.66a16.44,16.44,0,0,0-16.43,16.44h0A16.44,16.44,0,0,0,439.66,305.56Z"/><circle class="cls-6" cx="474.69" cy="311.09" r="5.37"/><circle class="cls-7" cx="439.66" cy="289.12" r="10.82"/><path class="cls-14" d="M129.45,390.81a17.19,17.19,0,0,0,.16,26.47,255.47,255.47,0,0,1,33.26,33.08,255.72,255.72,0,0,1,26.8,38.49,17.18,17.18,0,0,0,26,4.76l24.78-20.79a17.26,17.26,0,0,0,4.12-21.28A251.59,251.59,0,0,0,214.53,407a252,252,0,0,0-38.63-37.36,17.26,17.26,0,0,0-21.67.37Z"/><circle class="cls-8" cx="211.64" cy="464.06" r="10.82"/><path class="cls-3" d="M223.85,259.38l10,17.78,1.73,47.91,53.87-80.22a47.46,47.46,0,0,0,1-52.65h0a3.17,3.17,0,0,0-5-.48Z"/></svg>