<?xml version="1.0" encoding="utf-8"?>
<!-- Generator: Adobe Illustrator 23.0.1, SVG Export Plug-In . SVG Version: 6.00 Build 0)  -->
<svg version="1.1" id="Contenido" xmlns="http://www.w3.org/2000/svg" xmlns:xlink="http://www.w3.org/1999/xlink" x="0px" y="0px"
	 viewBox="0 0 600 600" style="enable-background:new 0 0 600 600;" xml:space="preserve">
<style type="text/css">
	.st0{fill:url(#SVGID_1_);}
	.st1{fill:#02A5A5;}
	.st2{fill:url(#SVGID_2_);}
	.st3{fill:#5AC4C4;}
	.st4{fill:#EAF9FA;}
	.st5{fill:#043263;}
	.st6{fill:#1464A5;}
	.st7{fill:url(#SVGID_3_);}
	.st8{fill:url(#SVGID_4_);}
	.st9{fill:#1973B8;}
	.st10{fill:#004481;}
</style>
<title>_</title>
<linearGradient id="SVGID_1_" gradientUnits="userSpaceOnUse" x1="148.7423" y1="566.6113" x2="460.4424" y2="-19.6288" gradientTransform="matrix(1 0 0 -1 0 602)">
	<stop  offset="0" style="stop-color:#192647"/>
	<stop  offset="0" style="stop-color:#192647;stop-opacity:0.5"/>
	<stop  offset="1" style="stop-color:#192647;stop-opacity:0"/>
</linearGradient>
<path class="st0" d="M504.5,381.1H494V290c0-8.8-5.1-16.9-13-20.7l0,0c-3.1-1.5-6.5-2.3-10-2.3h-32.7l46.7-84.6
	c0.9-1.7,0.3-3.7-1.3-4.7c0,0,0,0,0,0l-0.1-0.1l0,0L394,128.3l-39-21.6c-1.7-0.9-3.7-0.3-4.6,1.3c0,0,0,0,0,0l-87.9,159H179
	c-12.7,0-23,10.3-23,23l0,0v242c0,12.7,10.3,23,23,23h292c12.7,0,23-10.3,23-23v-73.4h11.1l0,0c5.3-0.3,9.4-4.7,9.4-10v-57.5
	C514.5,385.6,510,381.1,504.5,381.1C504.5,381.1,504.5,381.1,504.5,381.1z"/>
<path class="st1" d="M134.5,360.1L301.3,58.1c0.9-1.7,3-2.3,4.6-1.3l128.7,71.1c1.7,0.9,2.3,3,1.3,4.6L269.2,434.5
	c-0.9,1.7-3,2.3-4.6,1.3l-128.7-71.1C134.2,363.8,133.6,361.8,134.5,360.1z"/>
<linearGradient id="SVGID_2_" gradientUnits="userSpaceOnUse" x1="507.1362" y1="17.658" x2="281.6656" y2="17.658" gradientTransform="matrix(0.4836 -0.8753 -0.8753 -0.4836 140.576 544.65)">
	<stop  offset="0" style="stop-color:#028484;stop-opacity:0.8"/>
	<stop  offset="1" style="stop-color:#028484;stop-opacity:0"/>
</linearGradient>
<path class="st2" d="M301.2,58.2l-68.6,124.3l96.1,144.3L436,132.6c1-1.7,0.3-3.9-1.4-4.9L306.1,56.8
	C304.4,55.8,302.2,56.4,301.2,58.2C301.2,58.2,301.2,58.2,301.2,58.2z"/>
<path class="st3" d="M288.2,97.8l16.4-29.6c0.9-1.7,3-2.3,4.6-1.3l0,0l29.6,16.4c1.7,0.9,2.3,3,1.3,4.6l0,0l-0.9,1.6
	c-9.5,17.1-31,23.3-48.1,13.9c0,0,0,0,0,0l-1.6-0.9C287.9,101.6,287.3,99.5,288.2,97.8L288.2,97.8L288.2,97.8z"/>
<path class="st3" d="M395.1,114.3l29.6,16.4c1.7,0.9,2.3,3,1.3,4.6l0,0l-16.4,29.6c-0.9,1.7-3,2.3-4.6,1.3l0,0l-1.7-0.9
	c-17.1-9.5-23.3-31-13.9-48.1l0.9-1.6C391.3,114,393.4,113.4,395.1,114.3z"/>
<path class="st3" d="M282.5,395l-16.4,29.6c-0.9,1.7-3,2.3-4.6,1.3l0,0l-29.6-16.4c-1.7-0.9-2.3-3-1.3-4.6l0,0l0.9-1.6
	c9.5-17.1,31-23.3,48.1-13.8c0,0,0,0,0,0l1.6,0.9C282.9,391.3,283.5,393.4,282.5,395z"/>
<path class="st3" d="M175.7,378.6L146,362.2c-1.7-0.9-2.3-3-1.3-4.6l0,0l16.4-29.6c0.9-1.7,3-2.3,4.6-1.3c0,0,0,0,0,0l1.6,0.9
	c17.1,9.5,23.3,31,13.9,48.1l-0.9,1.6C179.4,378.9,177.3,379.5,175.7,378.6C175.7,378.6,175.7,378.6,175.7,378.6L175.7,378.6z"/>
<path class="st3" d="M309.2,203.6c23.4,13,31.8,42.5,18.8,65.9c-13,23.4-42.5,31.8-65.9,18.8c-23.4-13-31.8-42.4-18.8-65.8
	C256.3,199,285.8,190.6,309.2,203.6"/>
<path class="st4" d="M296.9,245.7c-2.8-1.6-4.6-1.1-9.9,2.9c-7.7,5.7-11.6,6.5-17,3.6s-6.7-9.3-5.4-14.3l-6.5-3.6l0.1-0.2l6.2-4.7
	l3.6,2c1.4-1.8,3.1-3.4,5-4.5l0.4-0.2l0.2-0.1l0.2,0.2l0.4,0.3l4.5,3.5l0.9,0.7l0.6,0.4l-0.7,0.3l-1,0.4c-2.7,1.2-4.9,3.1-6.4,5.7
	c-1.8,3.3-1.3,5.9,1.2,7.3c2.3,1.3,4,0.7,9.3-3.1c7.7-5.7,11.9-6.6,17.6-3.5c4.9,2.8,7.4,8.4,6.2,13.9l7.5,4.1l-0.3,0.5l-6.7,4.1
	l-3.7-2c-2,2.8-4.4,5.2-7.1,7.2l-0.4,0.3l-0.3,0.2l-0.2-0.2l-0.4-0.3l-4.7-3.5l-0.8-0.6l-0.5-0.4l0.6-0.3l0.9-0.5
	c3.3-1.6,6.1-4.2,8-7.4C300.3,250.3,299.7,247.3,296.9,245.7"/>
<rect x="394.9" y="370.5" class="st5" width="61.2" height="38.1"/>
<path class="st6" d="M422,505H130c-12.7,0-23-10.3-23-23V240c0-12.7,10.3-23,23-23H422c12.7,0,23,10.3,23,23V482
	C445,494.7,434.7,505,422,505z"/>
<linearGradient id="SVGID_3_" gradientUnits="userSpaceOnUse" x1="445" y1="241" x2="197.07" y2="241" gradientTransform="matrix(1 0 0 -1 0 602)">
	<stop  offset="0" style="stop-color:#192647"/>
	<stop  offset="0" style="stop-color:#043263;stop-opacity:0.3"/>
	<stop  offset="1" style="stop-color:#043263;stop-opacity:0"/>
</linearGradient>
<path class="st7" d="M422,217h-66.8L197.1,505H422c12.7,0,23-10.3,23-23V240C445,227.3,434.7,217,422,217z"/>
<linearGradient id="SVGID_4_" gradientUnits="userSpaceOnUse" x1="2701.5286" y1="246.7278" x2="2784.8984" y2="193.9778" gradientTransform="matrix(-1 0 0 -1 3156.8401 602)">
	<stop  offset="0" style="stop-color:#043263"/>
	<stop  offset="1" style="stop-color:#043263;stop-opacity:0"/>
</linearGradient>
<path class="st8" d="M394.9,408.3l51.9,0.3v-57.8h-51.9c-15.9,0-28.7,12.9-28.7,28.7c0,0,0,0,0,0l0,0
	C366.2,395.5,379,408.3,394.9,408.3C394.9,408.3,394.9,408.3,394.9,408.3z"/>
<path class="st9" d="M394.9,388.6h70.6v-47.5c0-5.5-4.5-10-10-10h-60.6c-15.9,0-28.7,12.9-28.7,28.7c0,0,0,0,0,0l0,0
	C366.2,375.7,379,388.6,394.9,388.6C394.9,388.6,394.9,388.6,394.9,388.6z"/>
<circle class="st5" cx="455.5" cy="398.6" r="10"/>
<circle class="st10" cx="394.9" cy="359.9" r="18"/>
<path class="st9" d="M465.5,398.6L465.5,398.6v-10h-10C461,388.6,465.5,393.1,465.5,398.6z"/>
</svg>
