<?xml version="1.0" encoding="UTF-8"?>
<svg width="600px" height="600px" viewBox="0 0 600 600" version="1.1" xmlns="http://www.w3.org/2000/svg" xmlns:xlink="http://www.w3.org/1999/xlink">
    <title>yatirim_fonlari</title>
    <defs>
        <linearGradient x1="11.1776648%" y1="-21.2837398%" x2="163.163717%" y2="253.064836%" id="linearGradient-1">
            <stop stop-color="#192647" offset="0%"></stop>
            <stop stop-color="#192647" stop-opacity="0.5" offset="0%"></stop>
            <stop stop-color="#192647" stop-opacity="0" offset="100%"></stop>
        </linearGradient>
        <linearGradient x1="9.50608759%" y1="-7.99145272%" x2="59.1458353%" y2="86.7503131%" id="linearGradient-2">
            <stop stop-color="#192647" offset="0%"></stop>
            <stop stop-color="#192647" stop-opacity="0.5" offset="0%"></stop>
            <stop stop-color="#192647" stop-opacity="0" offset="100%"></stop>
        </linearGradient>
        <linearGradient x1="103.378819%" y1="54.4106619%" x2="-3.40919145%" y2="46.3826853%" id="linearGradient-3">
            <stop stop-color="#028484" stop-opacity="0.5" offset="0%"></stop>
            <stop stop-color="#028484" stop-opacity="0" offset="100%"></stop>
        </linearGradient>
        <linearGradient x1="140.100746%" y1="44.8778591%" x2="47.5774463%" y2="44.8778591%" id="linearGradient-4">
            <stop stop-color="#028484" stop-opacity="0.5" offset="0%"></stop>
            <stop stop-color="#028484" stop-opacity="0" offset="100%"></stop>
        </linearGradient>
        <linearGradient x1="26.4841169%" y1="29.6760856%" x2="61.0054108%" y2="53.0714755%" id="linearGradient-5">
            <stop stop-color="#FFFFFF" stop-opacity="0.6" offset="0%"></stop>
            <stop stop-color="#FFFFFF" stop-opacity="0.2" offset="100%"></stop>
        </linearGradient>
    </defs>
    <g id="yatirim_fonlari" stroke="none" stroke-width="1" fill="none" fill-rule="evenodd">
        <g id="funds_dollar" transform="translate(96.000000, 96.000000)">
            <path d="M62.8187554,129.108248 L62.8187554,129.537481 C62.8187554,129.827845 62.8187554,130.118208 62.8187554,130.421197 C62.8187554,130.724185 62.8187554,130.698936 62.8187554,130.837805 C62.8187554,130.976675 62.8187554,131.481655 62.8187554,131.809893 C62.8187554,131.948762 62.8187554,132.100256 62.8187554,132.239126 L62.8187554,133.28696 C62.8187554,133.438454 62.8187554,133.602573 62.8187554,133.754067 C62.8187554,134.120178 62.8187554,134.486288 62.8187554,134.865024 C62.8187554,135.016518 62.8187554,135.168012 62.8187554,135.319506 C62.8187554,135.72349 62.8187554,136.11485 62.8823501,136.581957 L62.8823501,137.036439 C62.8823501,137.465673 62.8823501,137.894906 62.9713826,138.29889 C62.9713826,138.43776 62.9713826,138.589254 62.9713826,138.728123 L63.0858531,140.116819 L63.0858531,140.533428 C63.0858531,141.025784 63.1748856,141.51814 63.2257614,142.02312 C63.2257614,142.149365 63.2257614,142.288235 63.2257614,142.41448 C63.2257614,142.932085 63.3275129,143.44969 63.3911076,143.979919 C63.3911076,144.118789 63.3911076,144.245034 63.3911076,144.383903 C63.4547023,144.926757 63.518297,145.456987 63.5946106,146.012465 C63.5946106,146.13871 63.5946106,146.264955 63.5946106,146.3912 C63.5946106,146.959303 63.7472378,147.527406 63.8235515,148.108134 C63.8235515,148.221754 63.8235515,148.335375 63.8235515,148.46162 C63.912584,149.054972 64.0016166,149.648324 64.1033681,150.2543 C64.1033681,150.367921 64.1033681,150.468917 64.1033681,150.582537 C64.2051196,151.201138 64.3068711,151.844988 64.4213416,152.450965 C64.4213416,152.551961 64.4213416,152.652957 64.4213416,152.753953 C64.535812,153.397803 64.6630014,154.016404 64.7901908,154.710752 C64.7901908,154.799123 64.7901908,154.887495 64.7901908,154.988491 C64.9173801,155.644965 65.0572885,156.326689 65.1971968,156.995788 C65.1971968,157.084159 65.1971968,157.172531 65.2607915,157.248278 C65.3964601,157.938418 65.5490874,158.632766 65.7186732,159.331322 C65.7186732,159.407069 65.7186732,159.482816 65.7186732,159.558563 C65.8840194,160.265536 66.0620846,160.985133 66.2401497,161.70473 L66.2401497,161.881473 C66.4309338,162.613694 66.6217178,163.35854 66.8252208,164.103386 L66.8252208,164.242256 C67.0287238,164.999727 67.2449458,165.769822 67.4738867,166.539917 L67.4738867,166.628288 C67.7028275,167.411008 67.9444874,168.193727 68.1861472,168.989071 L68.1861472,168.989071 C68.4405259,169.79704 68.6949047,170.592384 68.9747213,171.400353 L68.9747213,171.400353 C80.1673867,204.413444 108.848592,241.516875 181.511884,238.865729 C181.646774,238.860893 181.778156,238.821771 181.893452,238.752108 C182.75834,238.486993 182.923686,237.817894 183,236.795309 C182.605713,121.508293 85.3312755,121.07906 65.6169217,122.177392 C63.8726878,122.272341 62.4161611,123.53084 62.081057,125.232523 C62.0302342,125.361219 62.0043431,125.498279 62.0047434,125.636508 L62.0047434,125.888998 L62.0047434,125.888998 C61.9984189,125.977258 61.9984189,126.065852 62.0047434,126.154113 C62.0047434,126.34348 62.0047434,126.545472 62.0047434,126.760089 L62.0047434,129.032501 L62.8187554,129.108248 Z" id="Path" fill="url(#linearGradient-1)" fill-rule="nonzero"></path>
            <path d="M337.390615,197.274776 C327.981188,197.272483 318.600482,198.311964 309.420234,200.37419 C335.381833,177.217507 355.456938,140.545349 356.76646,82.6218855 C356.76646,82.24081 356.76646,81.8343296 356.76646,81.4405517 C356.76646,79.5732821 356.76646,77.7060126 356.76646,75.8006355 C356.76646,72.9298673 356.76646,70.0209916 356.639322,67.0359008 C356.620536,66.4754173 356.343686,65.9550272 355.889207,65.6259218 C355.113665,64.5462081 353.72786,64 351.630081,64 C181.722731,65.6894344 184.659621,211.89537 186.350558,236.068254 C186.492915,238.015102 188.084709,239.539674 190.037562,239.599553 C210.292543,240.066264 230.503149,237.497225 249.995888,231.978045 C243.471979,238.12553 237.608752,244.937178 232.501686,252.302067 L86.8141429,252.302067 C84.7076499,252.302067 83,254.0082 83,256.112821 L83,288.732877 C83,290.837498 84.7076499,292.543631 86.8141429,292.543631 L214.079376,292.543631 C212.990616,296.730523 212.116464,300.97021 211.460331,305.246145 L86.8649981,305.246145 C84.7585052,305.246145 83.0508552,306.952278 83.0508552,309.056899 L83.0508552,341.689658 C83.0508552,343.794279 84.7585052,345.500412 86.8649981,345.500412 L211.79089,345.500412 C212.500935,349.779376 213.430265,354.019121 214.575215,358.202926 L86.8141429,358.202926 C84.7076499,358.202926 83,359.909058 83,362.01368 L83,394.646438 C83,396.75106 84.7076499,398.457192 86.8141429,398.457192 L233.747639,398.457192 C237.692168,403.959839 242.06668,409.141728 246.830149,413.954259 L247.287847,414.424252 L247.961678,415.097486 C256.8087,423.900163 266.906026,431.351935 277.928128,437.212563 L277.928128,437.212563 C324.794603,461.989007 382.118595,455.188055 421.8742,420.134716 C461.629805,385.081377 475.511887,329.098463 456.733445,279.556218 C437.955004,230.013973 390.438947,197.262012 337.416042,197.312884 L337.390615,197.274776 Z" id="Path" fill="url(#linearGradient-2)" fill-rule="nonzero"></path>
            <path d="M217,333 L23.8205443,333 C21.710516,333 20,331.304109 20,329.212121 L20,296.787879 C20,294.695891 21.710516,293 23.8205443,293 L217,293 L217,333 Z" id="Path" fill="#F8CD51" fill-rule="nonzero"></path>
            <path d="M217,281 L23.8205443,281 C21.710516,281 20,279.304644 20,277.213317 L20,244.786683 C20,242.695356 21.710516,241 23.8205443,241 L217,241 L217,281 Z" id="Path" fill="#F8CD51" fill-rule="nonzero"></path>
            <path d="M217,228 L23.8205443,228 C21.710516,228 20,226.304644 20,224.213317 L20,191.786683 C20,189.695356 21.710516,188 23.8205443,188 L217,188 L217,228 Z" id="Path" fill="#F8CD51" fill-rule="nonzero"></path>
            <path d="M121,171.805147 C120.605785,56.5055725 23.3491292,56.0889639 3.63837909,57.1746711 C1.6355979,57.2806313 0.0574460323,58.9080349 0.0268610094,60.8988991 C-0.418220444,80.5931218 3.29503054,177.953279 119.257824,173.875565 C120.720235,173.761945 120.9237,173.029723 121,171.805147 Z" id="Path" fill="#2DCCCD" fill-rule="nonzero"></path>
            <path d="M0.0318485613,60.3585152 C-0.441330944,79.5189471 2.80698242,178.130628 120.24502,173.865724 C120.559669,173.846081 120.83383,173.646625 120.946638,173.355289 C121.059446,173.063952 120.990171,172.73427 120.769354,172.511585 L2.48726654,59.4093525 C2.08122351,59.0150865 1.47921697,58.8932334 0.949346041,59.0980596 C0.419475109,59.3028857 0.0603281451,59.7962809 0.0318485613,60.3585152 L0.0318485613,60.3585152 Z" id="Path" fill="url(#linearGradient-3)" fill-rule="nonzero"></path>
            <path d="M288.79916,0 C118.7769,1.67966492 121.716656,148.192255 123.358338,172.36925 C123.494617,174.324503 125.089654,175.85886 127.048941,175.919451 C151.432373,176.733834 298.852871,174.646977 293.876921,4.39003331 C293.889647,1.4506197 292.311596,0 288.79916,0 Z" id="Path" fill="#2DCCCD" fill-rule="nonzero"></path>
            <path d="M128.480627,173.919999 C152.87867,174.729827 300.130126,172.654643 294.862078,2.7553002 C294.825361,2.02267509 294.357284,1.38110496 293.669387,1.12053897 C292.981491,0.859972981 292.204104,1.02977767 291.688555,1.55321205 L127.427018,171.313366 C127.008429,171.751679 126.885367,172.393368 127.112251,172.954679 C127.339135,173.515991 127.874116,173.893393 128.480627,173.919999 Z" id="Path" fill="url(#linearGradient-4)" fill-rule="nonzero"></path>
            <path d="M402,259.51908 C402,329.895066 344.97134,386.957884 274.595363,387 C204.357517,387 147,329.782352 147,259.506365 C147.055994,189.149461 204.047796,132.112161 274.404637,132 L274.404637,132 C308.236981,131.98315 340.689598,145.410304 364.619834,169.32623 C388.550069,193.242156 401.996631,225.686735 402,259.51908" id="Path" fill="#F8CD51" fill-rule="nonzero"></path>
            <path d="M335,147.808272 C273.060942,114.950623 196.271742,138.653713 163.017575,200.304539 C129.763409,261.955365 153.675947,339.142351 215.602312,372 L335,147.808272 Z" id="Path" fill="url(#linearGradient-5)" fill-rule="nonzero"></path>
            <path d="M272,255.242382 L272,311.436288 C278.533366,311.436288 284.13331,310.350426 288.8,308.17867 C293.46669,306.006914 297.233319,302.986861 300.1,299.118421 C302.966681,295.249981 305.06666,290.702935 306.4,285.477147 C307.73334,280.251359 308.4,274.584518 308.4,268.476454 L328,268.476454 C328,289.379606 322.700053,305.192467 312.1,315.915512 C301.499947,326.638558 284.53345,332 261.2,332 L251.8,332 L251.8,263.99723 L232,272.548476 L232,259.314404 L251.8,250.763158 L251.8,235.900277 L232,244.451524 L232,231.217452 L251.8,222.666205 L251.8,185 L272,185 L272,213.911357 L308.8,198.030471 L308.8,211.264543 L272,227.145429 L272,242.00831 L308.8,226.127424 L308.8,239.361496 L272,255.242382 Z" id="₺" fill="#FFFFFF"></path>
        </g>
    </g>
</svg>